{"glyphs":{"0":{"ha":690,"x_min":0,"x_max":0,"o":"m 297 -14 b 606 293 489 -14 569 92 b 672 676 606 293 672 675 b 426 1001 713 908 588 1001 b 115 693 272 1001 154 922 b 51 324 115 692 51 324 b 297 -14 15 118 90 -14 z m 308 108 b 183 310 221 108 156 153 l 251 694 b 415 883 275 832 332 883 b 540 690 510 883 565 840 l 472 300 b 308 108 447 154 394 108 z "},"1":{"ha":483,"x_min":0,"x_max":0,"o":"m 378 0 l 400 126 l 258 126 l 411 990 l 310 990 b 153 851 276 892 240 860 l 135 753 l 243 753 l 132 126 l -8 126 l -31 0 z "},"2":{"ha":643,"x_min":0,"x_max":0,"o":"m 519 0 l 542 126 l 156 126 b 390 400 178 251 283 325 b 642 710 501 478 615 560 l 646 732 b 408 1001 675 883 592 1001 b 126 769 247 1001 151 906 l 100 622 l 233 622 l 257 751 b 406 883 271 831 318 883 b 513 739 488 883 528 840 l 508 714 b 290 478 492 615 394 551 b 3 107 168 392 36 292 l -15 0 z "},"3":{"ha":646,"x_min":0,"x_max":0,"o":"m 275 -12 b 565 242 439 -12 532 61 l 572 285 b 475 508 592 386 568 472 b 635 711 578 538 619 613 l 639 738 b 400 1001 674 906 576 1001 b 121 775 235 1001 146 911 b 100 656 121 775 100 661 l 232 656 l 249 754 b 397 883 263 833 307 883 b 506 742 483 883 522 843 l 497 699 b 340 563 483 615 432 563 l 269 563 l 250 451 l 321 451 b 439 303 419 451 453 390 l 432 256 b 281 110 411 143 363 110 b 157 276 182 110 133 153 l 171 357 l 38 357 b 26 293 36 351 26 293 b 275 -12 -10 88 68 -12 z "},"4":{"ha":656,"x_min":0,"x_max":0,"o":"m 418 714 l 486 849 l 438 699 l 374 335 l 154 335 z m 592 219 l 613 335 l 496 335 l 611 990 l 496 990 l 17 317 l -1 219 l 354 219 l 315 0 l 438 0 l 476 219 z "},"5":{"ha":650,"x_min":0,"x_max":0,"o":"m 272 -14 b 567 257 438 -14 535 81 l 599 438 b 410 689 625 590 554 689 b 229 599 329 689 275 654 b 304 867 249 672 282 790 l 493 867 b 678 985 635 867 658 878 l 678 990 l 214 990 l 76 490 l 192 453 b 211 481 193 454 211 481 b 360 572 247 529 289 572 b 464 439 446 572 478 518 l 435 269 b 278 107 413 157 364 107 b 171 272 182 107 147 149 l 182 338 l 44 338 l 36 289 b 272 -14 0 83 68 -14 z "},"6":{"ha":674,"x_min":0,"x_max":0,"o":"m 601 279 l 610 335 b 403 615 642 515 542 615 b 213 503 307 615 249 567 l 246 694 b 422 883 269 832 332 883 b 532 711 514 883 556 839 l 667 711 b 426 1001 707 931 568 1001 b 115 693 272 1001 154 922 b 51 324 115 692 51 324 b 297 -14 15 118 90 -14 b 601 279 485 -14 565 86 z m 308 108 b 178 310 221 108 150 153 l 188 364 b 349 497 204 443 258 497 b 478 340 456 497 492 425 l 469 288 b 308 108 446 150 394 108 z "},"7":{"ha":575,"x_min":0,"x_max":0,"o":"m 193 0 b 626 881 304 347 429 599 l 646 990 l 138 990 l 115 863 l 486 863 b 47 0 306 610 179 363 z "},"8":{"ha":658,"x_min":0,"x_max":0,"o":"m 274 -14 b 578 247 458 -14 542 50 l 588 308 b 497 513 601 407 563 478 b 642 694 574 536 621 596 l 651 743 b 418 1001 686 928 586 1001 b 133 754 274 1001 167 950 l 128 715 b 197 524 114 621 140 556 b 42 325 110 497 58 421 l 33 276 b 274 -14 -3 88 63 -14 z m 351 574 b 257 711 267 574 244 628 l 263 749 b 408 883 279 854 332 883 b 519 735 494 883 544 860 l 514 704 b 372 574 494 618 457 574 z m 288 108 b 165 265 189 108 143 146 l 176 326 b 324 460 188 410 236 460 l 344 460 b 456 317 438 460 469 408 l 444 257 b 288 108 419 128 369 108 z "},"9":{"ha":674,"x_min":0,"x_max":0,"o":"m 356 504 b 233 663 253 504 221 574 l 240 707 b 400 883 263 838 318 883 b 528 678 489 883 556 835 l 519 633 b 356 504 500 554 442 504 z m 283 -14 b 590 294 458 -14 551 65 b 654 664 590 296 654 664 b 407 1001 690 865 611 1001 b 107 713 228 1001 136 901 l 100 664 b 304 392 74 483 165 392 b 496 501 400 392 460 439 l 460 293 b 288 107 436 156 390 107 b 178 286 196 107 154 158 l 183 317 l 47 317 l 42 286 b 283 -14 1 67 108 -14 z "}," ":{"ha":297,"x_min":0,"x_max":0,"o":""}," ":{"ha":297,"x_min":0,"x_max":0,"o":""},"A":{"ha":653,"x_min":0,"x_max":0,"o":"m 371 729 l 404 874 l 396 729 l 415 307 l 207 307 z m 429 0 l 558 0 l 492 990 l 360 990 l -46 0 l 89 0 l 160 185 l 421 185 z "},"B":{"ha":661,"x_min":0,"x_max":0,"o":"m 289 0 b 574 210 475 0 549 57 b 590 303 574 208 590 303 b 503 506 607 397 589 472 b 642 674 579 529 625 579 l 656 751 b 439 990 679 882 633 990 l 188 990 l 14 0 z m 417 879 b 526 757 507 879 539 835 l 515 697 b 358 563 500 599 461 563 l 242 563 l 297 879 z m 346 449 b 458 321 449 449 474 407 l 444 244 b 290 117 426 149 392 117 l 163 117 l 221 449 z "},"C":{"ha":667,"x_min":0,"x_max":0,"o":"m 292 -14 b 594 294 479 -14 560 89 l 610 375 l 471 375 l 457 301 b 304 108 432 151 386 108 b 185 310 221 108 157 153 l 254 701 b 418 885 278 839 332 885 b 531 708 513 885 551 826 l 511 600 l 649 600 l 667 704 b 425 1003 699 882 611 1003 b 118 700 265 1003 157 921 b 50 315 118 699 50 315 b 292 -14 14 118 85 -14 z "},"D":{"ha":683,"x_min":0,"x_max":0,"o":"m 14 0 l 264 0 b 600 301 447 0 565 100 l 663 658 b 418 990 700 871 590 990 l 188 990 z m 399 878 b 532 679 504 878 556 810 l 467 313 b 260 117 442 182 369 117 l 165 117 l 299 878 z "},"E":{"ha":588,"x_min":0,"x_max":0,"o":"m 493 122 l 164 122 l 221 443 l 494 443 l 515 564 l 242 564 l 296 872 l 611 872 l 632 990 l 188 990 l 14 0 l 472 0 z "},"F":{"ha":549,"x_min":0,"x_max":0,"o":"m 492 422 l 513 543 l 236 543 l 293 871 l 588 871 l 608 990 l 188 990 l 14 0 l 140 0 l 214 422 z "},"G":{"ha":692,"x_min":0,"x_max":0,"o":"m 464 0 l 547 0 l 636 511 l 354 511 l 335 394 l 485 394 l 468 300 b 299 108 443 158 385 108 b 182 310 207 108 154 161 l 251 703 b 418 885 275 840 331 885 b 535 703 521 885 557 831 l 524 640 l 660 640 l 671 703 b 426 1003 704 900 606 1003 b 117 696 265 1003 156 917 l 51 324 b 251 -14 14 106 78 -14 b 471 153 357 -14 428 38 z "},"H":{"ha":697,"x_min":0,"x_max":0,"o":"m 413 0 l 543 0 l 717 990 l 586 990 l 510 558 l 240 558 l 317 990 l 186 990 l 13 0 l 143 0 l 219 433 l 489 433 z "},"I":{"ha":474,"x_min":0,"x_max":0,"o":"m 354 0 l 375 122 l 250 122 l 382 872 l 507 872 l 528 990 l 151 990 l 131 872 l 256 872 l 124 122 l -1 122 l -22 0 z "},"J":{"ha":603,"x_min":0,"x_max":0,"o":"m 232 -14 b 497 239 374 -14 464 49 l 629 990 l 494 990 l 368 269 b 242 110 349 163 319 110 b 151 239 161 110 138 161 l 174 367 l 39 367 l 18 244 b 232 -14 -10 85 51 -14 z "},"K":{"ha":681,"x_min":0,"x_max":0,"o":"m 349 497 l 439 0 l 582 0 l 456 631 l 453 643 l 736 990 l 588 990 l 240 558 l 240 560 l 315 990 l 188 990 l 14 0 l 142 0 l 211 403 l 350 569 z "},"L":{"ha":553,"x_min":0,"x_max":0,"o":"m 443 0 l 464 125 l 165 125 l 318 990 l 188 990 l 14 0 z "},"M":{"ha":806,"x_min":0,"x_max":0,"o":"m 236 569 l 260 860 l 285 646 l 368 306 l 407 306 l 608 644 l 706 860 l 628 569 l 528 0 l 650 0 l 824 990 l 693 990 l 447 564 l 419 496 l 413 563 l 317 990 l 188 990 l 14 0 l 136 0 z "},"N":{"ha":725,"x_min":0,"x_max":0,"o":"m 243 624 l 258 838 l 278 671 l 456 0 l 569 0 l 743 990 l 622 990 l 513 368 l 501 189 l 478 329 l 303 990 l 188 990 l 14 0 l 133 0 z "},"O":{"ha":690,"x_min":0,"x_max":0,"o":"m 301 -14 b 604 286 486 -14 568 93 l 675 685 b 424 1001 707 892 588 1001 b 115 693 271 1001 156 922 l 50 317 b 301 -14 14 124 94 -14 z m 308 108 b 182 303 217 108 154 154 l 251 694 b 419 883 276 833 328 883 b 543 699 513 883 563 825 l 471 293 b 308 108 446 151 393 108 z "},"P":{"ha":642,"x_min":0,"x_max":0,"o":"m 403 875 b 525 729 501 875 542 825 l 501 594 b 313 433 482 481 419 433 l 218 433 l 294 875 z m 306 318 b 625 565 493 317 594 393 l 653 719 b 424 990 679 886 600 990 l 188 990 l 14 0 l 142 0 l 197 318 z "},"Q":{"ha":690,"x_min":0,"x_max":0,"o":"m 533 -133 l 461 25 b 606 293 540 72 582 163 b 672 676 606 293 672 675 b 426 1001 713 908 588 1001 b 115 693 272 1001 154 922 b 51 324 115 692 51 324 b 297 -14 15 118 90 -14 b 325 -12 307 -14 317 -14 l 368 -133 z m 308 108 b 183 310 221 108 156 153 l 251 694 b 415 883 275 832 332 883 b 540 690 510 883 565 840 l 472 300 b 308 108 447 154 394 108 z "},"R":{"ha":665,"x_min":0,"x_max":0,"o":"m 406 876 b 528 731 504 876 546 832 l 518 676 b 329 515 499 563 457 515 l 233 515 l 296 876 z m 321 400 b 429 264 421 400 443 350 l 396 78 b 404 0 390 46 389 14 l 549 0 b 531 75 529 14 524 39 l 567 276 b 472 458 585 368 561 432 b 642 646 575 483 624 544 l 656 719 b 426 990 686 889 606 990 l 188 990 l 14 0 l 143 0 l 213 400 z "},"S":{"ha":625,"x_min":0,"x_max":0,"o":"m 267 -14 b 549 229 444 -14 522 72 l 553 256 b 394 543 581 419 486 485 b 251 751 313 594 232 643 l 256 779 b 388 893 269 854 314 893 b 496 753 478 893 511 842 l 479 658 l 611 658 l 628 756 b 392 1006 650 893 575 1006 b 128 793 254 1006 150 925 l 122 761 b 285 464 92 590 193 521 b 424 260 365 413 442 365 l 419 232 b 276 104 407 158 371 104 b 156 258 186 104 138 154 l 175 371 l 42 371 l 22 271 b 267 -14 -12 93 82 -14 z "},"T":{"ha":547,"x_min":0,"x_max":0,"o":"m 600 869 l 621 990 l 132 990 l 111 869 l 290 869 l 138 0 l 268 0 l 421 869 z "},"U":{"ha":676,"x_min":0,"x_max":0,"o":"m 283 -14 b 578 289 467 -14 542 88 l 701 990 l 567 990 l 444 296 b 292 114 419 150 369 114 b 194 308 213 114 167 156 l 315 990 l 181 990 l 63 322 b 283 -14 26 117 76 -14 z "},"V":{"ha":651,"x_min":0,"x_max":0,"o":"m 322 0 l 731 990 l 594 990 l 314 271 l 279 131 l 290 271 l 260 990 l 126 990 l 190 0 z "},"W":{"ha":946,"x_min":0,"x_max":0,"o":"m 506 678 l 546 842 l 531 679 l 546 0 l 664 0 l 1017 990 l 890 990 l 669 347 l 618 124 l 635 326 l 617 990 l 526 990 l 267 326 l 215 136 l 246 347 l 264 990 l 138 990 l 121 0 l 239 0 z "},"X":{"ha":635,"x_min":0,"x_max":0,"o":"m 306 372 l 321 413 l 324 372 l 404 0 l 547 0 l 410 518 l 699 990 l 556 990 l 369 657 l 353 614 l 351 658 l 285 990 l 146 990 l 263 519 l -54 0 l 96 0 z "},"Y":{"ha":593,"x_min":0,"x_max":0,"o":"m 289 0 l 351 361 l 689 990 l 549 990 l 340 569 l 307 475 l 306 569 l 249 990 l 111 990 l 217 361 l 154 0 z "},"Z":{"ha":597,"x_min":0,"x_max":0,"o":"m 476 0 l 499 126 l 149 126 l 626 872 l 647 990 l 179 990 l 158 868 l 486 868 l -4 113 l -24 0 z "},"Á":{"ha":653,"x_min":0,"x_max":0,"o":"m 371 729 l 404 874 l 396 729 l 415 307 l 207 307 z m 429 0 l 558 0 l 492 990 l 360 990 l -46 0 l 89 0 l 160 185 l 421 185 z m 386 1074 l 486 1074 l 703 1292 l 564 1292 z "},"Ă":{"ha":653,"x_min":0,"x_max":0,"o":"m 371 729 l 404 874 l 396 729 l 415 307 l 207 307 z m 429 0 l 558 0 l 492 990 l 360 990 l -46 0 l 89 0 l 160 185 l 421 185 z m 454 1072 b 682 1293 597 1072 656 1150 l 585 1293 b 463 1163 568 1203 538 1164 b 382 1293 390 1164 365 1203 l 286 1293 b 454 1072 260 1149 313 1072 z "},"Â":{"ha":653,"x_min":0,"x_max":0,"o":"m 371 729 l 404 874 l 396 729 l 415 307 l 207 307 z m 429 0 l 558 0 l 492 990 l 360 990 l -46 0 l 89 0 l 160 185 l 421 185 z m 518 1068 l 628 1068 l 518 1286 l 428 1286 l 244 1068 l 358 1068 l 460 1194 z "},"Ä":{"ha":653,"x_min":0,"x_max":0,"o":"m 371 729 l 404 874 l 396 729 l 415 307 l 207 307 z m 429 0 l 558 0 l 492 990 l 360 990 l -46 0 l 89 0 l 160 185 l 421 185 z m 339 1064 b 422 1143 389 1064 411 1082 b 360 1226 432 1204 407 1226 b 276 1147 308 1226 288 1210 b 339 1064 265 1086 289 1064 z m 542 1064 b 625 1143 592 1064 614 1082 b 563 1226 635 1204 610 1226 b 479 1147 511 1226 490 1210 b 542 1064 468 1086 492 1064 z "},"À":{"ha":653,"x_min":0,"x_max":0,"o":"m 371 729 l 404 874 l 396 729 l 415 307 l 207 307 z m 429 0 l 558 0 l 492 990 l 360 990 l -46 0 l 89 0 l 160 185 l 421 185 z m 390 1074 l 489 1074 l 400 1292 l 263 1292 z "},"Ā":{"ha":653,"x_min":0,"x_max":0,"o":"m 371 729 l 404 874 l 396 729 l 415 307 l 207 307 z m 429 0 l 558 0 l 492 990 l 360 990 l -46 0 l 89 0 l 160 185 l 421 185 z m 278 1082 l 599 1082 l 615 1182 l 294 1182 z "},"Ʌ":{"ha":653,"x_min":0,"x_max":0,"o":"m 371 729 l 408 874 l 396 729 l 429 0 l 558 0 l 492 990 l 360 990 l -46 0 l 89 0 z "},"Ą":{"ha":653,"x_min":0,"x_max":0,"o":"m 371 729 l 404 874 l 396 729 l 415 307 l 207 307 z m 642 -132 l 526 -132 b 451 -186 513 -165 488 -186 b 400 -137 414 -186 394 -169 b 554 0 407 -97 440 -71 l 558 0 l 492 990 l 360 990 l -46 0 l 89 0 l 160 185 l 421 185 l 429 14 b 300 -128 349 -32 313 -74 b 435 -271 285 -211 332 -271 b 642 -132 536 -271 599 -228 z "},"Å":{"ha":653,"x_min":0,"x_max":0,"o":"m 371 729 l 404 874 l 396 729 l 415 307 l 207 307 z m 429 0 l 558 0 l 492 990 l 360 990 l -46 0 l 89 0 l 160 185 l 421 185 z m 450 1067 b 615 1201 532 1067 600 1111 b 475 1358 631 1286 574 1358 b 311 1225 396 1358 326 1307 b 450 1067 294 1135 347 1067 z m 454 1154 b 404 1215 421 1154 397 1181 b 469 1272 410 1253 436 1272 b 521 1210 504 1272 526 1247 b 454 1154 514 1172 489 1154 z "},"Ǻ":{"ha":653,"x_min":0,"x_max":0,"o":"m 418 1251 l 518 1251 l 735 1469 l 596 1469 z m 424 990 b 374 1051 390 990 367 1017 b 439 1108 379 1089 406 1108 b 490 1046 474 1108 496 1083 b 424 990 483 1008 458 990 z m 371 729 l 404 874 l 396 729 l 415 307 l 207 307 z m 160 185 l 421 185 l 429 0 l 558 0 l 496 918 b 585 1038 542 939 575 978 b 444 1194 600 1122 543 1194 b 281 1061 365 1194 296 1143 b 333 925 269 1001 289 951 l -46 0 l 89 0 z "},"Ã":{"ha":653,"x_min":0,"x_max":0,"o":"m 371 729 l 404 874 l 396 729 l 415 307 l 207 307 z m 429 0 l 558 0 l 492 990 l 360 990 l -46 0 l 89 0 l 160 185 l 421 185 z m 222 1071 l 313 1071 b 363 1147 322 1128 338 1147 b 529 1065 413 1147 440 1065 b 676 1239 625 1065 658 1132 l 588 1239 b 535 1163 576 1176 564 1163 b 364 1244 489 1163 450 1244 b 222 1071 272 1244 243 1181 z "},"Æ":{"ha":946,"x_min":0,"x_max":0,"o":"m 432 708 l 486 863 l 458 708 l 435 301 l 228 301 z m 417 0 l 829 0 l 850 122 l 544 122 l 563 443 l 850 443 l 871 564 l 569 564 l 588 872 l 968 872 l 989 990 l 453 990 l -61 0 l 76 0 l 171 189 l 428 189 z "},"Ǽ":{"ha":946,"x_min":0,"x_max":0,"o":"m 432 708 l 486 863 l 458 708 l 435 301 l 228 301 z m 417 0 l 829 0 l 850 122 l 544 122 l 563 443 l 850 443 l 871 564 l 569 564 l 588 872 l 968 872 l 989 990 l 453 990 l -61 0 l 76 0 l 171 189 l 428 189 z m 504 1074 l 604 1074 l 821 1292 l 682 1292 z "},"Ć":{"ha":667,"x_min":0,"x_max":0,"o":"m 292 -14 b 594 294 479 -14 560 89 l 610 375 l 471 375 l 457 301 b 304 108 432 151 386 108 b 185 310 221 108 157 153 l 254 701 b 418 885 278 839 332 885 b 531 708 513 885 551 826 l 511 600 l 649 600 l 667 704 b 425 1003 699 882 611 1003 b 118 700 265 1003 157 921 b 50 315 118 699 50 315 b 292 -14 14 118 85 -14 z m 418 1089 l 518 1089 l 735 1307 l 596 1307 z "},"Č":{"ha":667,"x_min":0,"x_max":0,"o":"m 292 -14 b 594 294 479 -14 560 89 l 610 375 l 471 375 l 457 301 b 304 108 432 151 386 108 b 185 310 221 108 157 153 l 254 701 b 418 885 278 839 332 885 b 531 708 513 885 551 826 l 511 600 l 649 600 l 667 704 b 425 1003 699 882 611 1003 b 118 700 265 1003 157 921 b 50 315 118 699 50 315 b 292 -14 14 118 85 -14 z m 511 1089 l 693 1307 l 582 1307 l 481 1185 l 424 1307 l 313 1307 l 421 1089 z "},"Ç":{"ha":667,"x_min":0,"x_max":0,"o":"m 231 -339 b 422 -212 342 -339 408 -290 b 304 -79 436 -131 396 -82 l 315 -14 b 594 294 486 -4 561 99 l 610 375 l 471 375 l 457 301 b 304 108 432 151 386 108 b 185 310 221 108 157 153 l 254 701 b 418 885 278 839 332 885 b 531 708 513 885 551 826 l 511 600 l 649 600 l 667 704 b 425 1003 699 882 611 1003 b 118 700 265 1003 157 921 b 50 315 118 699 50 315 b 224 -8 18 142 69 18 l 222 -8 l 196 -153 l 250 -153 b 321 -207 307 -153 328 -172 b 238 -257 315 -237 288 -257 b 167 -194 189 -257 164 -235 l 54 -194 b 231 -339 57 -286 99 -339 z "},"Ĉ":{"ha":667,"x_min":0,"x_max":0,"o":"m 292 -14 b 594 294 479 -14 560 89 l 610 375 l 471 375 l 457 301 b 304 108 432 151 386 108 b 185 310 221 108 157 153 l 254 701 b 418 885 278 839 332 885 b 531 708 513 885 551 826 l 511 600 l 649 600 l 667 704 b 425 1003 699 882 611 1003 b 118 700 265 1003 157 921 b 50 315 118 699 50 315 b 292 -14 14 118 85 -14 z m 551 1089 l 661 1089 l 551 1307 l 461 1307 l 278 1089 l 392 1089 l 493 1215 z "},"Ċ":{"ha":667,"x_min":0,"x_max":0,"o":"m 292 -14 b 594 294 479 -14 560 89 l 610 375 l 471 375 l 457 301 b 304 108 432 151 386 108 b 185 310 221 108 157 153 l 254 701 b 418 885 278 839 332 885 b 531 708 513 885 551 826 l 511 600 l 649 600 l 667 704 b 425 1003 699 882 611 1003 b 118 700 265 1003 157 921 b 50 315 118 699 50 315 b 292 -14 14 118 85 -14 z m 471 1085 b 565 1175 528 1085 553 1106 b 494 1271 578 1246 549 1271 b 399 1181 436 1271 411 1251 b 471 1085 386 1110 413 1085 z "},"Ď":{"ha":683,"x_min":0,"x_max":0,"o":"m 14 0 l 264 0 b 600 301 447 0 565 100 l 663 658 b 418 990 700 871 590 990 l 188 990 z m 399 878 b 532 679 504 878 556 810 l 467 313 b 260 117 442 182 369 117 l 165 117 l 299 878 z m 506 1074 l 688 1292 l 576 1292 l 475 1169 l 418 1292 l 307 1292 l 415 1074 z "},"Đ":{"ha":696,"x_min":0,"x_max":0,"o":"m 276 0 b 613 301 460 0 578 100 l 675 658 b 431 990 713 871 603 990 l 200 990 l 124 553 l 36 553 l 14 432 l 103 432 l 26 0 z m 364 432 l 386 553 l 254 553 l 311 878 l 411 878 b 544 679 517 878 568 810 l 479 313 b 272 117 454 182 382 117 l 178 117 l 232 432 z "},"Ð":{"ha":696,"x_min":0,"x_max":0,"o":"m 276 0 b 613 301 460 0 578 100 l 675 658 b 431 990 713 871 603 990 l 200 990 l 124 553 l 36 553 l 14 432 l 103 432 l 26 0 z m 364 432 l 386 553 l 254 553 l 311 878 l 411 878 b 544 679 517 878 568 810 l 479 313 b 272 117 454 182 382 117 l 178 117 l 232 432 z "},"É":{"ha":588,"x_min":0,"x_max":0,"o":"m 493 122 l 164 122 l 221 443 l 494 443 l 515 564 l 242 564 l 296 872 l 611 872 l 632 990 l 188 990 l 14 0 l 472 0 z m 371 1074 l 471 1074 l 688 1292 l 549 1292 z "},"Ĕ":{"ha":588,"x_min":0,"x_max":0,"o":"m 493 122 l 164 122 l 221 443 l 494 443 l 515 564 l 242 564 l 296 872 l 611 872 l 632 990 l 188 990 l 14 0 l 472 0 z m 439 1072 b 667 1293 582 1072 640 1150 l 569 1293 b 447 1163 553 1203 522 1164 b 367 1293 375 1164 350 1203 l 271 1293 b 439 1072 244 1149 297 1072 z "},"Ě":{"ha":588,"x_min":0,"x_max":0,"o":"m 493 122 l 164 122 l 221 443 l 494 443 l 515 564 l 242 564 l 296 872 l 611 872 l 632 990 l 188 990 l 14 0 l 472 0 z m 468 1074 l 650 1292 l 539 1292 l 438 1169 l 381 1292 l 269 1292 l 378 1074 z "},"Ê":{"ha":588,"x_min":0,"x_max":0,"o":"m 493 122 l 164 122 l 221 443 l 494 443 l 515 564 l 242 564 l 296 872 l 611 872 l 632 990 l 188 990 l 14 0 l 472 0 z m 508 1074 l 618 1074 l 508 1292 l 418 1292 l 235 1074 l 349 1074 l 450 1200 z "},"Ë":{"ha":588,"x_min":0,"x_max":0,"o":"m 493 122 l 164 122 l 221 443 l 494 443 l 515 564 l 242 564 l 296 872 l 611 872 l 632 990 l 188 990 l 14 0 l 472 0 z m 332 1071 b 415 1150 382 1071 404 1089 b 353 1233 425 1211 400 1233 b 269 1154 301 1233 281 1217 b 332 1071 258 1093 282 1071 z m 535 1071 b 618 1150 585 1071 607 1089 b 556 1233 628 1211 603 1233 b 472 1154 504 1233 483 1217 b 535 1071 461 1093 485 1071 z "},"Ė":{"ha":588,"x_min":0,"x_max":0,"o":"m 493 122 l 164 122 l 221 443 l 494 443 l 515 564 l 242 564 l 296 872 l 611 872 l 632 990 l 188 990 l 14 0 l 472 0 z m 428 1069 b 522 1160 485 1069 510 1090 b 451 1256 535 1231 506 1256 b 356 1165 393 1256 368 1236 b 428 1069 343 1094 369 1069 z "},"È":{"ha":588,"x_min":0,"x_max":0,"o":"m 493 122 l 164 122 l 221 443 l 494 443 l 515 564 l 242 564 l 296 872 l 611 872 l 632 990 l 188 990 l 14 0 l 472 0 z m 386 1074 l 485 1074 l 396 1292 l 258 1292 z "},"Ē":{"ha":588,"x_min":0,"x_max":0,"o":"m 493 122 l 164 122 l 221 443 l 494 443 l 515 564 l 242 564 l 296 872 l 611 872 l 632 990 l 188 990 l 14 0 l 472 0 z m 275 1099 l 596 1099 l 613 1199 l 292 1199 z "},"Ę":{"ha":588,"x_min":0,"x_max":0,"o":"m 560 -132 l 444 -132 b 369 -186 431 -165 406 -186 b 318 -137 332 -186 313 -169 b 472 0 325 -97 358 -71 l 493 122 l 164 122 l 221 443 l 494 443 l 515 564 l 242 564 l 296 872 l 611 872 l 632 990 l 188 990 l 14 0 l 324 0 b 218 -128 260 -40 229 -79 b 353 -271 203 -211 250 -271 b 560 -132 454 -271 517 -228 z "},"Ğ":{"ha":692,"x_min":0,"x_max":0,"o":"m 464 0 l 547 0 l 636 511 l 354 511 l 335 394 l 485 394 l 468 300 b 299 108 443 158 385 108 b 182 310 207 108 154 161 l 251 703 b 418 885 275 840 331 885 b 535 703 521 885 557 831 l 524 640 l 660 640 l 671 703 b 426 1003 704 900 606 1003 b 117 696 265 1003 156 917 l 51 324 b 251 -14 14 106 78 -14 b 471 153 357 -14 428 38 z m 481 1088 b 708 1308 624 1088 682 1165 l 611 1308 b 489 1178 594 1218 564 1179 b 408 1308 417 1179 392 1218 l 313 1308 b 481 1088 286 1164 339 1088 z "},"Ĝ":{"ha":692,"x_min":0,"x_max":0,"o":"m 464 0 l 547 0 l 636 511 l 354 511 l 335 394 l 485 394 l 468 300 b 299 108 443 158 385 108 b 182 310 207 108 154 161 l 251 703 b 418 885 275 840 331 885 b 535 703 521 885 557 831 l 524 640 l 660 640 l 671 703 b 426 1003 704 900 606 1003 b 117 696 265 1003 156 917 l 51 324 b 251 -14 14 106 78 -14 b 471 153 357 -14 428 38 z m 553 1089 l 663 1089 l 553 1307 l 463 1307 l 279 1089 l 393 1089 l 494 1215 z "},"Ģ":{"ha":692,"x_min":0,"x_max":0,"o":"m 464 0 l 547 0 l 636 511 l 354 511 l 335 394 l 485 394 l 468 300 b 299 108 443 158 385 108 b 182 310 207 108 154 161 l 251 703 b 418 885 275 840 331 885 b 535 703 521 885 557 831 l 524 640 l 660 640 l 671 703 b 426 1003 704 900 606 1003 b 117 696 265 1003 156 917 l 51 324 b 251 -14 14 106 78 -14 b 471 153 357 -14 428 38 z m 151 -379 b 326 -187 251 -365 308 -290 b 268 -78 340 -107 326 -78 b 176 -158 215 -78 188 -99 b 226 -231 167 -219 183 -231 b 242 -229 232 -231 236 -231 b 164 -310 228 -275 204 -303 z "},"Ġ":{"ha":692,"x_min":0,"x_max":0,"o":"m 464 0 l 547 0 l 636 511 l 354 511 l 335 394 l 485 394 l 468 300 b 299 108 443 158 385 108 b 182 310 207 108 154 161 l 251 703 b 418 885 275 840 331 885 b 535 703 521 885 557 831 l 524 640 l 660 640 l 671 703 b 426 1003 704 900 606 1003 b 117 696 265 1003 156 917 l 51 324 b 251 -14 14 106 78 -14 b 471 153 357 -14 428 38 z m 475 1085 b 569 1175 532 1085 557 1106 b 499 1271 582 1246 553 1271 b 403 1181 440 1271 415 1251 b 475 1085 390 1110 417 1085 z "},"Ħ":{"ha":724,"x_min":0,"x_max":0,"o":"m 518 521 l 249 521 l 278 688 l 547 688 z m 426 0 l 556 0 l 676 688 l 764 688 l 783 800 l 696 800 l 729 990 l 600 990 l 567 800 l 297 800 l 331 990 l 200 990 l 167 800 l 81 800 l 61 688 l 147 688 l 26 0 l 157 0 l 228 406 l 497 406 z "},"Ĥ":{"ha":697,"x_min":0,"x_max":0,"o":"m 413 0 l 543 0 l 717 990 l 586 990 l 510 558 l 240 558 l 317 990 l 186 990 l 13 0 l 143 0 l 219 433 l 489 433 z m 544 1063 l 654 1063 l 544 1281 l 454 1281 l 271 1063 l 385 1063 l 486 1189 z "},"Í":{"ha":474,"x_min":0,"x_max":0,"o":"m 354 0 l 375 122 l 250 122 l 382 872 l 507 872 l 528 990 l 151 990 l 131 872 l 256 872 l 124 122 l -1 122 l -22 0 z m 300 1074 l 400 1074 l 617 1292 l 478 1292 z "},"Ĭ":{"ha":474,"x_min":0,"x_max":0,"o":"m 354 0 l 375 122 l 250 122 l 382 872 l 507 872 l 528 990 l 151 990 l 131 872 l 256 872 l 124 122 l -1 122 l -22 0 z m 365 1072 b 593 1293 508 1072 567 1150 l 496 1293 b 374 1163 479 1203 449 1164 b 293 1293 301 1164 276 1203 l 197 1293 b 365 1072 171 1149 224 1072 z "},"Î":{"ha":474,"x_min":0,"x_max":0,"o":"m 354 0 l 375 122 l 250 122 l 382 872 l 507 872 l 528 990 l 151 990 l 131 872 l 256 872 l 124 122 l -1 122 l -22 0 z m 438 1074 l 547 1074 l 438 1292 l 347 1292 l 164 1074 l 278 1074 l 379 1200 z "},"Ï":{"ha":474,"x_min":0,"x_max":0,"o":"m 354 0 l 375 122 l 250 122 l 382 872 l 507 872 l 528 990 l 151 990 l 131 872 l 256 872 l 124 122 l -1 122 l -22 0 z m 260 1071 b 343 1150 310 1071 332 1089 b 281 1233 353 1211 328 1233 b 197 1154 229 1233 208 1217 b 260 1071 186 1093 210 1071 z m 463 1071 b 546 1150 513 1071 535 1089 b 483 1233 556 1211 531 1233 b 400 1154 432 1233 411 1217 b 463 1071 389 1093 413 1071 z "},"İ":{"ha":474,"x_min":0,"x_max":0,"o":"m 354 0 l 375 122 l 250 122 l 382 872 l 507 872 l 528 990 l 151 990 l 131 872 l 256 872 l 124 122 l -1 122 l -22 0 z m 361 1069 b 456 1160 418 1069 443 1090 b 385 1256 468 1231 439 1256 b 289 1165 326 1256 301 1236 b 361 1069 276 1094 303 1069 z "},"Ì":{"ha":474,"x_min":0,"x_max":0,"o":"m 354 0 l 375 122 l 250 122 l 382 872 l 507 872 l 528 990 l 151 990 l 131 872 l 256 872 l 124 122 l -1 122 l -22 0 z m 304 1074 l 403 1074 l 314 1292 l 176 1292 z "},"Ī":{"ha":474,"x_min":0,"x_max":0,"o":"m 354 0 l 375 122 l 250 122 l 382 872 l 507 872 l 528 990 l 151 990 l 131 872 l 256 872 l 124 122 l -1 122 l -22 0 z m 203 1096 l 524 1096 l 540 1196 l 219 1196 z "},"Į":{"ha":474,"x_min":0,"x_max":0,"o":"m 442 -132 l 326 -132 b 251 -186 313 -165 288 -186 b 200 -137 214 -186 194 -169 b 354 0 207 -97 240 -71 l 375 122 l 250 122 l 382 872 l 507 872 l 528 990 l 151 990 l 131 872 l 256 872 l 124 122 l -1 122 l -22 0 l 206 0 b 100 -128 142 -40 111 -79 b 235 -271 85 -211 132 -271 b 442 -132 336 -271 399 -228 z "},"Ĩ":{"ha":474,"x_min":0,"x_max":0,"o":"m 354 0 l 375 122 l 250 122 l 382 872 l 507 872 l 528 990 l 151 990 l 131 872 l 256 872 l 124 122 l -1 122 l -22 0 z m 143 1076 l 233 1076 b 283 1153 243 1133 258 1153 b 450 1071 333 1153 361 1071 b 597 1244 546 1071 579 1138 l 508 1244 b 456 1168 497 1182 485 1168 b 285 1250 410 1168 371 1250 b 143 1076 193 1250 164 1186 z "},"Ĵ":{"ha":603,"x_min":0,"x_max":0,"o":"m 232 -14 b 497 239 374 -14 464 49 l 629 990 l 494 990 l 368 269 b 242 110 349 163 319 110 b 151 239 161 110 138 161 l 174 367 l 39 367 l 18 244 b 232 -14 -10 85 51 -14 z m 658 1074 l 768 1074 l 658 1292 l 568 1292 l 385 1074 l 499 1074 l 600 1200 z "},"Ķ":{"ha":681,"x_min":0,"x_max":0,"o":"m 349 497 l 439 0 l 582 0 l 456 631 l 453 643 l 736 990 l 588 990 l 240 558 l 240 560 l 315 990 l 188 990 l 14 0 l 142 0 l 211 403 l 350 569 z m 154 -354 b 329 -162 254 -340 311 -265 b 271 -53 343 -82 329 -53 b 179 -133 218 -53 190 -74 b 229 -206 169 -194 186 -206 b 244 -204 235 -206 239 -206 b 167 -285 231 -250 207 -278 z "},"Ĺ":{"ha":553,"x_min":0,"x_max":0,"o":"m 443 0 l 464 125 l 165 125 l 318 990 l 188 990 l 14 0 z m 215 1074 l 315 1074 l 532 1292 l 393 1292 z "},"Ľ":{"ha":553,"x_min":0,"x_max":0,"o":"m 443 0 l 464 125 l 165 125 l 318 990 l 188 990 l 14 0 z m 458 882 l 542 882 l 644 1094 l 535 1094 z "},"Ļ":{"ha":553,"x_min":0,"x_max":0,"o":"m 443 0 l 464 125 l 165 125 l 318 990 l 188 990 l 14 0 z m 107 -364 b 282 -172 207 -350 264 -275 b 224 -62 296 -92 282 -62 b 132 -143 171 -62 143 -83 b 182 -215 122 -204 139 -215 b 197 -214 188 -215 192 -215 b 119 -294 183 -260 160 -287 z "},"Ŀ":{"ha":553,"x_min":0,"x_max":0,"o":"m 443 0 l 464 125 l 165 125 l 318 990 l 188 990 l 14 0 z m 439 357 b 533 447 496 357 521 378 b 463 543 546 518 517 543 b 367 453 404 543 379 524 b 439 357 354 382 381 357 z "},"Ł":{"ha":571,"x_min":0,"x_max":0,"o":"m 461 0 l 482 125 l 183 125 l 246 478 l 426 531 l 417 639 l 267 594 l 336 990 l 206 990 l 129 554 l 14 519 l 26 413 l 108 436 l 32 0 z "},"Ń":{"ha":725,"x_min":0,"x_max":0,"o":"m 243 624 l 258 838 l 278 671 l 456 0 l 569 0 l 743 990 l 622 990 l 513 368 l 501 189 l 478 329 l 303 990 l 188 990 l 14 0 l 133 0 z m 428 1060 l 528 1060 l 744 1278 l 606 1278 z "},"Ň":{"ha":725,"x_min":0,"x_max":0,"o":"m 243 624 l 258 838 l 278 671 l 456 0 l 569 0 l 743 990 l 622 990 l 513 368 l 501 189 l 478 329 l 303 990 l 188 990 l 14 0 l 133 0 z m 521 1060 l 703 1278 l 592 1278 l 490 1156 l 433 1278 l 322 1278 l 431 1060 z "},"Ņ":{"ha":725,"x_min":0,"x_max":0,"o":"m 243 624 l 258 838 l 278 671 l 456 0 l 569 0 l 743 990 l 622 990 l 513 368 l 501 189 l 478 329 l 303 990 l 188 990 l 14 0 l 133 0 z m 154 -353 b 329 -161 254 -339 311 -264 b 271 -51 343 -81 329 -51 b 179 -132 218 -51 190 -72 b 229 -204 169 -193 186 -204 b 244 -203 235 -204 239 -204 b 167 -283 231 -249 207 -276 z "},"Ñ":{"ha":725,"x_min":0,"x_max":0,"o":"m 243 624 l 258 838 l 278 671 l 456 0 l 569 0 l 743 990 l 622 990 l 513 368 l 501 189 l 478 329 l 303 990 l 188 990 l 14 0 l 133 0 z m 272 1067 l 363 1067 b 413 1143 372 1124 388 1143 b 579 1061 463 1143 490 1061 b 726 1235 675 1061 708 1128 l 638 1235 b 585 1158 626 1172 614 1158 b 414 1240 539 1158 500 1240 b 272 1067 322 1240 293 1176 z "},"Ŋ":{"ha":724,"x_min":0,"x_max":0,"o":"m 328 -257 b 560 -54 485 -257 532 -211 l 743 990 l 622 990 l 513 365 l 501 189 l 479 326 l 301 990 l 188 990 l 14 0 l 133 0 l 243 628 l 258 839 l 278 671 l 451 19 l 442 -37 b 335 -135 426 -122 404 -135 l 297 -135 l 276 -257 z "},"Ó":{"ha":690,"x_min":0,"x_max":0,"o":"m 301 -14 b 604 286 486 -14 568 93 l 675 685 b 424 1001 707 892 588 1001 b 115 693 271 1001 156 922 l 50 317 b 301 -14 14 124 94 -14 z m 308 108 b 182 303 217 108 154 154 l 251 694 b 419 883 276 833 328 883 b 543 699 513 883 563 825 l 471 293 b 308 108 446 151 393 108 z m 397 1090 l 497 1090 l 714 1308 l 575 1308 z "},"Ŏ":{"ha":690,"x_min":0,"x_max":0,"o":"m 301 -14 b 604 286 486 -14 568 93 l 675 685 b 424 1001 707 892 588 1001 b 115 693 271 1001 156 922 l 50 317 b 301 -14 14 124 94 -14 z m 308 108 b 182 303 217 108 154 154 l 251 694 b 419 883 276 833 328 883 b 543 699 513 883 563 825 l 471 293 b 308 108 446 151 393 108 z m 476 1088 b 704 1308 619 1088 678 1165 l 607 1308 b 485 1178 590 1218 560 1179 b 404 1308 413 1179 388 1218 l 308 1308 b 476 1088 282 1164 335 1088 z "},"Ô":{"ha":690,"x_min":0,"x_max":0,"o":"m 301 -14 b 604 286 486 -14 568 93 l 675 685 b 424 1001 707 892 588 1001 b 115 693 271 1001 156 922 l 50 317 b 301 -14 14 124 94 -14 z m 308 108 b 182 303 217 108 154 154 l 251 694 b 419 883 276 833 328 883 b 543 699 513 883 563 825 l 471 293 b 308 108 446 151 393 108 z m 550 1089 l 660 1089 l 550 1307 l 460 1307 l 276 1089 l 390 1089 l 492 1215 z "},"Ö":{"ha":690,"x_min":0,"x_max":0,"o":"m 301 -14 b 604 286 486 -14 568 93 l 675 685 b 424 1001 707 892 588 1001 b 115 693 271 1001 156 922 l 50 317 b 301 -14 14 124 94 -14 z m 308 108 b 182 303 217 108 154 154 l 251 694 b 419 883 276 833 328 883 b 543 699 513 883 563 825 l 471 293 b 308 108 446 151 393 108 z m 371 1086 b 454 1165 421 1086 443 1104 b 392 1249 464 1226 439 1249 b 308 1169 340 1249 319 1232 b 371 1086 297 1108 321 1086 z m 574 1086 b 657 1165 624 1086 646 1104 b 594 1249 667 1226 642 1249 b 511 1169 543 1249 522 1232 b 574 1086 500 1108 524 1086 z "},"Ò":{"ha":690,"x_min":0,"x_max":0,"o":"m 301 -14 b 604 286 486 -14 568 93 l 675 685 b 424 1001 707 892 588 1001 b 115 693 271 1001 156 922 l 50 317 b 301 -14 14 124 94 -14 z m 308 108 b 182 303 217 108 154 154 l 251 694 b 419 883 276 833 328 883 b 543 699 513 883 563 825 l 471 293 b 308 108 446 151 393 108 z m 419 1089 l 518 1089 l 429 1307 l 292 1307 z "},"Ő":{"ha":690,"x_min":0,"x_max":0,"o":"m 301 -14 b 604 286 486 -14 568 93 l 675 685 b 424 1001 707 892 588 1001 b 115 693 271 1001 156 922 l 50 317 b 301 -14 14 124 94 -14 z m 308 108 b 182 303 217 108 154 154 l 251 694 b 419 883 276 833 328 883 b 543 699 513 883 563 825 l 471 293 b 308 108 446 151 393 108 z m 622 1307 l 492 1307 l 328 1089 l 419 1089 z m 814 1307 l 682 1307 l 515 1089 l 607 1089 z "},"Ō":{"ha":690,"x_min":0,"x_max":0,"o":"m 301 -14 b 604 286 486 -14 568 93 l 675 685 b 424 1001 707 892 588 1001 b 115 693 271 1001 156 922 l 50 317 b 301 -14 14 124 94 -14 z m 308 108 b 182 303 217 108 154 154 l 251 694 b 419 883 276 833 328 883 b 543 699 513 883 563 825 l 471 293 b 308 108 446 151 393 108 z m 308 1097 l 629 1097 l 646 1197 l 325 1197 z "},"Ø":{"ha":703,"x_min":0,"x_max":0,"o":"m 181 310 l 249 694 b 421 883 272 832 338 883 b 482 875 443 883 464 881 l 188 176 b 181 310 174 207 169 250 z m 314 108 b 261 115 296 108 278 110 l 551 811 b 556 690 563 782 564 742 l 488 300 b 314 108 463 154 400 108 z m 303 -14 b 618 293 494 -14 582 92 b 685 676 618 293 685 675 b 610 947 708 810 674 897 l 681 1103 l 583 1103 l 532 988 b 432 1001 501 997 467 1001 b 115 693 278 1001 154 922 b 51 324 115 692 51 324 b 128 35 28 193 53 92 l 53 -125 l 156 -125 l 210 -3 b 303 -14 238 -10 268 -14 z "},"Ǿ":{"ha":703,"x_min":0,"x_max":0,"o":"m 181 310 l 249 694 b 421 883 272 832 338 883 b 482 875 443 883 464 881 l 188 176 b 181 310 174 207 169 250 z m 314 108 b 261 115 296 108 278 110 l 551 811 b 556 690 563 782 564 742 l 488 300 b 314 108 463 154 400 108 z m 303 -14 b 618 293 494 -14 582 92 b 685 676 618 293 685 675 b 610 947 708 810 674 897 l 681 1103 l 583 1103 l 532 988 b 432 1001 501 997 467 1001 b 115 693 278 1001 154 922 b 51 324 115 692 51 324 b 128 35 28 193 53 92 l 53 -125 l 156 -125 l 210 -3 b 303 -14 238 -10 268 -14 z m 422 1119 l 522 1119 l 739 1338 l 600 1338 z "},"Õ":{"ha":690,"x_min":0,"x_max":0,"o":"m 301 -14 b 604 286 486 -14 568 93 l 675 685 b 424 1001 707 892 588 1001 b 115 693 271 1001 156 922 l 50 317 b 301 -14 14 124 94 -14 z m 308 108 b 182 303 217 108 154 154 l 251 694 b 419 883 276 833 328 883 b 543 699 513 883 563 825 l 471 293 b 308 108 446 151 393 108 z m 254 1092 l 344 1092 b 394 1168 354 1149 369 1168 b 561 1086 444 1168 472 1086 b 708 1260 657 1086 690 1153 l 619 1260 b 567 1183 608 1197 596 1183 b 396 1265 521 1183 482 1265 b 254 1092 304 1265 275 1201 z "},"Œ":{"ha":988,"x_min":0,"x_max":0,"o":"m 308 108 b 183 310 221 108 156 153 l 251 694 b 415 883 275 832 332 883 b 540 690 510 883 565 840 l 472 300 b 308 108 447 154 394 108 z m 414 0 l 872 0 l 893 122 l 564 122 l 621 443 l 894 443 l 915 564 l 642 564 l 696 872 l 1011 872 l 1032 990 l 588 990 l 575 922 b 408 1001 547 981 486 1001 b 115 693 264 1001 154 922 b 51 324 115 692 51 324 b 274 -14 15 118 85 -14 b 424 60 344 -14 390 13 z "},"Ŕ":{"ha":665,"x_min":0,"x_max":0,"o":"m 406 876 b 528 731 504 876 546 832 l 518 676 b 329 515 499 563 457 515 l 233 515 l 296 876 z m 321 400 b 429 264 421 400 443 350 l 396 78 b 404 0 390 46 389 14 l 549 0 b 531 75 529 14 524 39 l 567 276 b 472 458 585 368 561 432 b 642 646 575 483 624 544 l 656 719 b 426 990 686 889 606 990 l 188 990 l 14 0 l 143 0 l 213 400 z m 388 1074 l 488 1074 l 704 1292 l 565 1292 z "},"Ř":{"ha":665,"x_min":0,"x_max":0,"o":"m 406 876 b 528 731 504 876 546 832 l 518 676 b 329 515 499 563 457 515 l 233 515 l 296 876 z m 321 400 b 429 264 421 400 443 350 l 396 78 b 404 0 390 46 389 14 l 549 0 b 531 75 529 14 524 39 l 567 276 b 472 458 585 368 561 432 b 642 646 575 483 624 544 l 656 719 b 426 990 686 889 606 990 l 188 990 l 14 0 l 143 0 l 213 400 z m 481 1074 l 663 1292 l 551 1292 l 450 1169 l 393 1292 l 282 1292 l 390 1074 z "},"Ŗ":{"ha":665,"x_min":0,"x_max":0,"o":"m 406 876 b 528 731 504 876 546 832 l 518 676 b 329 515 499 563 457 515 l 233 515 l 296 876 z m 321 400 b 429 264 421 400 443 350 l 396 78 b 404 0 390 46 389 14 l 549 0 b 531 75 529 14 524 39 l 567 276 b 472 458 585 368 561 432 b 642 646 575 483 624 544 l 656 719 b 426 990 686 889 606 990 l 188 990 l 14 0 l 143 0 l 213 400 z m 139 -356 b 314 -164 239 -342 296 -267 b 256 -54 328 -83 314 -54 b 164 -135 203 -54 175 -75 b 214 -207 154 -196 171 -207 b 229 -206 219 -207 224 -207 b 151 -286 215 -251 192 -279 z "},"Ś":{"ha":625,"x_min":0,"x_max":0,"o":"m 267 -14 b 549 229 444 -14 522 72 l 553 256 b 394 543 581 419 486 485 b 251 751 313 594 232 643 l 256 779 b 388 893 269 854 314 893 b 496 753 478 893 511 842 l 479 658 l 611 658 l 628 756 b 392 1006 650 893 575 1006 b 128 793 254 1006 150 925 l 122 761 b 285 464 92 590 193 521 b 424 260 365 413 442 365 l 419 232 b 276 104 407 158 371 104 b 156 258 186 104 138 154 l 175 371 l 42 371 l 22 271 b 267 -14 -12 93 82 -14 z m 372 1089 l 472 1089 l 689 1307 l 550 1307 z "},"Š":{"ha":625,"x_min":0,"x_max":0,"o":"m 267 -14 b 549 229 444 -14 522 72 l 553 256 b 394 543 581 419 486 485 b 251 751 313 594 232 643 l 256 779 b 388 893 269 854 314 893 b 496 753 478 893 511 842 l 479 658 l 611 658 l 628 756 b 392 1006 650 893 575 1006 b 128 793 254 1006 150 925 l 122 761 b 285 464 92 590 193 521 b 424 260 365 413 442 365 l 419 232 b 276 104 407 158 371 104 b 156 258 186 104 138 154 l 175 371 l 42 371 l 22 271 b 267 -14 -12 93 82 -14 z m 478 1089 l 660 1307 l 549 1307 l 447 1185 l 390 1307 l 279 1307 l 388 1089 z "},"Ş":{"ha":625,"x_min":0,"x_max":0,"o":"m 201 -339 b 393 -212 313 -339 379 -290 b 275 -79 407 -131 367 -82 l 286 -14 b 549 229 450 -7 524 78 l 553 256 b 394 543 581 419 486 485 b 251 751 313 594 232 643 l 256 779 b 388 893 269 854 314 893 b 496 753 478 893 511 842 l 479 658 l 611 658 l 628 756 b 392 1006 650 893 575 1006 b 128 793 254 1006 150 925 l 122 761 b 285 464 92 590 193 521 b 424 260 365 413 442 365 l 419 232 b 276 104 407 158 371 104 b 156 258 186 104 138 154 l 175 371 l 42 371 l 22 271 b 199 -8 -8 117 60 15 l 193 -8 l 167 -153 l 221 -153 b 292 -207 278 -153 299 -172 b 208 -257 286 -237 258 -257 b 138 -194 160 -257 135 -235 l 25 -194 b 201 -339 28 -286 69 -339 z "},"Ŝ":{"ha":625,"x_min":0,"x_max":0,"o":"m 267 -14 b 549 229 444 -14 522 72 l 553 256 b 394 543 581 419 486 485 b 251 751 313 594 232 643 l 256 779 b 388 893 269 854 314 893 b 496 753 478 893 511 842 l 479 658 l 611 658 l 628 756 b 392 1006 650 893 575 1006 b 128 793 254 1006 150 925 l 122 761 b 285 464 92 590 193 521 b 424 260 365 413 442 365 l 419 232 b 276 104 407 158 371 104 b 156 258 186 104 138 154 l 175 371 l 42 371 l 22 271 b 267 -14 -12 93 82 -14 z m 519 1089 l 629 1089 l 519 1307 l 429 1307 l 246 1089 l 360 1089 l 461 1215 z "},"Ș":{"ha":625,"x_min":0,"x_max":0,"o":"m 267 -14 b 549 229 444 -14 522 72 l 553 256 b 394 543 581 419 486 485 b 251 751 313 594 232 643 l 256 779 b 388 893 269 854 314 893 b 496 753 478 893 511 842 l 479 658 l 611 658 l 628 756 b 392 1006 650 893 575 1006 b 128 793 254 1006 150 925 l 122 761 b 285 464 92 590 193 521 b 424 260 365 413 442 365 l 419 232 b 276 104 407 158 371 104 b 156 258 186 104 138 154 l 175 371 l 42 371 l 22 271 b 267 -14 -12 93 82 -14 z m 115 -381 b 290 -189 215 -367 272 -292 b 232 -79 304 -108 290 -79 b 140 -160 179 -79 151 -100 b 190 -232 131 -221 147 -232 b 206 -231 196 -232 200 -232 b 128 -311 192 -276 168 -304 z "},"Ŧ":{"ha":547,"x_min":0,"x_max":0,"o":"m 450 440 l 471 554 l 365 554 l 421 869 l 600 869 l 621 990 l 132 990 l 111 869 l 290 869 l 235 554 l 125 554 l 104 440 l 214 440 l 138 0 l 268 0 l 344 440 z "},"Ť":{"ha":547,"x_min":0,"x_max":0,"o":"m 600 869 l 621 990 l 132 990 l 111 869 l 290 869 l 138 0 l 268 0 l 421 869 z m 439 1074 l 621 1292 l 510 1292 l 408 1169 l 351 1292 l 240 1292 l 349 1074 z "},"Ţ":{"ha":547,"x_min":0,"x_max":0,"o":"m 600 869 l 621 990 l 132 990 l 111 869 l 290 869 l 138 0 l 268 0 l 421 869 z m 82 -364 b 257 -172 182 -350 239 -275 b 199 -62 271 -92 257 -62 b 107 -143 146 -62 118 -83 b 157 -215 97 -204 114 -215 b 172 -214 163 -215 167 -215 b 94 -294 158 -260 135 -287 z "},"Ú":{"ha":676,"x_min":0,"x_max":0,"o":"m 283 -14 b 578 289 467 -14 542 88 l 701 990 l 567 990 l 444 296 b 292 114 419 150 369 114 b 194 308 213 114 167 156 l 315 990 l 181 990 l 63 322 b 283 -14 26 117 76 -14 z m 403 1068 l 503 1068 l 719 1286 l 581 1286 z "},"Ŭ":{"ha":676,"x_min":0,"x_max":0,"o":"m 283 -14 b 578 289 467 -14 542 88 l 701 990 l 567 990 l 444 296 b 292 114 419 150 369 114 b 194 308 213 114 167 156 l 315 990 l 181 990 l 63 322 b 283 -14 26 117 76 -14 z m 463 1067 b 690 1288 606 1067 664 1144 l 593 1288 b 471 1157 576 1197 546 1158 b 390 1288 399 1158 374 1197 l 294 1288 b 463 1067 268 1143 321 1067 z "},"Û":{"ha":676,"x_min":0,"x_max":0,"o":"m 283 -14 b 578 289 467 -14 542 88 l 701 990 l 567 990 l 444 296 b 292 114 419 150 369 114 b 194 308 213 114 167 156 l 315 990 l 181 990 l 63 322 b 283 -14 26 117 76 -14 z m 536 1068 l 646 1068 l 536 1286 l 446 1286 l 263 1068 l 376 1068 l 478 1194 z "},"Ü":{"ha":676,"x_min":0,"x_max":0,"o":"m 283 -14 b 578 289 467 -14 542 88 l 701 990 l 567 990 l 444 296 b 292 114 419 150 369 114 b 194 308 213 114 167 156 l 315 990 l 181 990 l 63 322 b 283 -14 26 117 76 -14 z m 357 1065 b 440 1144 407 1065 429 1083 b 378 1228 450 1206 425 1228 b 294 1149 326 1228 306 1211 b 357 1065 283 1088 307 1065 z m 560 1065 b 643 1144 610 1065 632 1083 b 581 1228 653 1206 628 1228 b 497 1149 529 1228 508 1211 b 560 1065 486 1088 510 1065 z "},"Ù":{"ha":676,"x_min":0,"x_max":0,"o":"m 283 -14 b 578 289 467 -14 542 88 l 701 990 l 567 990 l 444 296 b 292 114 419 150 369 114 b 194 308 213 114 167 156 l 315 990 l 181 990 l 63 322 b 283 -14 26 117 76 -14 z m 406 1068 l 504 1068 l 415 1286 l 278 1286 z "},"Ű":{"ha":676,"x_min":0,"x_max":0,"o":"m 283 -14 b 578 289 467 -14 542 88 l 701 990 l 567 990 l 444 296 b 292 114 419 150 369 114 b 194 308 213 114 167 156 l 315 990 l 181 990 l 63 322 b 283 -14 26 117 76 -14 z m 608 1286 l 478 1286 l 314 1068 l 406 1068 z m 800 1286 l 668 1286 l 501 1068 l 593 1068 z "},"Ū":{"ha":676,"x_min":0,"x_max":0,"o":"m 283 -14 b 578 289 467 -14 542 88 l 701 990 l 567 990 l 444 296 b 292 114 419 150 369 114 b 194 308 213 114 167 156 l 315 990 l 181 990 l 63 322 b 283 -14 26 117 76 -14 z m 294 1076 l 615 1076 l 632 1176 l 311 1176 z "},"Ų":{"ha":676,"x_min":0,"x_max":0,"o":"m 275 -261 b 482 -122 376 -261 439 -218 l 367 -122 b 292 -176 353 -156 328 -176 b 240 -128 254 -176 235 -160 b 372 -4 247 -90 276 -65 b 578 289 493 26 549 124 l 701 990 l 567 990 l 444 296 b 292 114 419 150 369 114 b 194 308 213 114 167 156 l 315 990 l 181 990 l 63 322 b 219 -8 31 140 67 17 b 140 -118 174 -43 150 -76 b 275 -261 125 -201 172 -261 z "},"Ů":{"ha":676,"x_min":0,"x_max":0,"o":"m 283 -14 b 578 289 467 -14 542 88 l 701 990 l 567 990 l 444 296 b 292 114 419 150 369 114 b 194 308 213 114 167 156 l 315 990 l 181 990 l 63 322 b 283 -14 26 117 76 -14 z m 463 1039 b 628 1174 544 1039 613 1083 b 488 1331 643 1258 586 1331 b 324 1197 408 1331 339 1279 b 463 1039 307 1107 360 1039 z m 467 1126 b 417 1188 433 1126 410 1153 b 482 1244 422 1225 449 1244 b 533 1182 517 1244 539 1219 b 467 1126 526 1144 501 1126 z "},"Ũ":{"ha":676,"x_min":0,"x_max":0,"o":"m 283 -14 b 578 289 467 -14 542 88 l 701 990 l 567 990 l 444 296 b 292 114 419 150 369 114 b 194 308 213 114 167 156 l 315 990 l 181 990 l 63 322 b 283 -14 26 117 76 -14 z m 240 1071 l 331 1071 b 381 1147 340 1128 356 1147 b 547 1065 431 1147 458 1065 b 694 1239 643 1065 676 1132 l 606 1239 b 553 1163 594 1176 582 1163 b 382 1244 507 1163 468 1244 b 240 1071 290 1244 261 1181 z "},"Ẃ":{"ha":946,"x_min":0,"x_max":0,"o":"m 506 678 l 546 842 l 531 679 l 546 0 l 664 0 l 1017 990 l 890 990 l 669 347 l 618 124 l 635 326 l 617 990 l 526 990 l 267 326 l 215 136 l 246 347 l 264 990 l 138 990 l 121 0 l 239 0 z m 538 1074 l 638 1074 l 854 1292 l 715 1292 z "},"Ŵ":{"ha":946,"x_min":0,"x_max":0,"o":"m 506 678 l 546 842 l 531 679 l 546 0 l 664 0 l 1017 990 l 890 990 l 669 347 l 618 124 l 635 326 l 617 990 l 526 990 l 267 326 l 215 136 l 246 347 l 264 990 l 138 990 l 121 0 l 239 0 z m 671 1074 l 781 1074 l 671 1292 l 581 1292 l 397 1074 l 511 1074 l 613 1200 z "},"Ẅ":{"ha":946,"x_min":0,"x_max":0,"o":"m 506 678 l 546 842 l 531 679 l 546 0 l 664 0 l 1017 990 l 890 990 l 669 347 l 618 124 l 635 326 l 617 990 l 526 990 l 267 326 l 215 136 l 246 347 l 264 990 l 138 990 l 121 0 l 239 0 z m 492 1071 b 575 1150 542 1071 564 1089 b 513 1233 585 1211 560 1233 b 429 1154 461 1233 440 1217 b 492 1071 418 1093 442 1071 z m 694 1071 b 778 1150 744 1071 767 1089 b 715 1233 788 1211 763 1233 b 632 1154 664 1233 643 1217 b 694 1071 621 1093 644 1071 z "},"Ẁ":{"ha":946,"x_min":0,"x_max":0,"o":"m 506 678 l 546 842 l 531 679 l 546 0 l 664 0 l 1017 990 l 890 990 l 669 347 l 618 124 l 635 326 l 617 990 l 526 990 l 267 326 l 215 136 l 246 347 l 264 990 l 138 990 l 121 0 l 239 0 z m 540 1074 l 639 1074 l 550 1292 l 413 1292 z "},"Ý":{"ha":593,"x_min":0,"x_max":0,"o":"m 289 0 l 351 361 l 689 990 l 549 990 l 340 569 l 307 475 l 306 569 l 249 990 l 111 990 l 217 361 l 154 0 z m 371 1067 l 471 1067 l 688 1285 l 549 1285 z "},"Ŷ":{"ha":593,"x_min":0,"x_max":0,"o":"m 289 0 l 351 361 l 689 990 l 549 990 l 340 569 l 307 475 l 306 569 l 249 990 l 111 990 l 217 361 l 154 0 z m 504 1067 l 614 1067 l 504 1285 l 414 1285 l 231 1067 l 344 1067 l 446 1193 z "},"Ÿ":{"ha":593,"x_min":0,"x_max":0,"o":"m 289 0 l 351 361 l 689 990 l 549 990 l 340 569 l 307 475 l 306 569 l 249 990 l 111 990 l 217 361 l 154 0 z m 325 1064 b 408 1143 375 1064 397 1082 b 346 1226 418 1204 393 1226 b 263 1147 294 1226 274 1210 b 325 1064 251 1086 275 1064 z m 528 1064 b 611 1143 578 1064 600 1082 b 549 1226 621 1204 596 1226 b 465 1147 497 1226 476 1210 b 528 1064 454 1086 478 1064 z "},"Ỳ":{"ha":593,"x_min":0,"x_max":0,"o":"m 289 0 l 351 361 l 689 990 l 549 990 l 340 569 l 307 475 l 306 569 l 249 990 l 111 990 l 217 361 l 154 0 z m 375 1067 l 474 1067 l 385 1285 l 247 1285 z "},"Ĳ":{"ha":801,"x_min":0,"x_max":0,"o":"m 415 0 l 458 0 b 693 224 636 0 660 38 l 828 990 l 693 990 l 560 231 b 456 122 543 136 533 122 l 436 122 z m 350 0 l 371 122 l 249 122 l 381 872 l 503 872 l 524 990 l 151 990 l 131 872 l 254 872 l 122 122 l -1 122 l -22 0 z "},"Ź":{"ha":597,"x_min":0,"x_max":0,"o":"m 476 0 l 499 126 l 149 126 l 626 872 l 647 990 l 179 990 l 158 868 l 486 868 l -4 113 l -24 0 z m 369 1074 l 469 1074 l 686 1292 l 547 1292 z "},"Ž":{"ha":597,"x_min":0,"x_max":0,"o":"m 476 0 l 499 126 l 149 126 l 626 872 l 647 990 l 179 990 l 158 868 l 486 868 l -4 113 l -24 0 z m 463 1074 l 644 1292 l 533 1292 l 432 1169 l 375 1292 l 264 1292 l 372 1074 z "},"Ż":{"ha":597,"x_min":0,"x_max":0,"o":"m 476 0 l 499 126 l 149 126 l 626 872 l 647 990 l 179 990 l 158 868 l 486 868 l -4 113 l -24 0 z m 422 1069 b 517 1160 479 1069 504 1090 b 446 1256 529 1231 500 1256 b 350 1165 388 1256 363 1236 b 422 1069 338 1094 364 1069 z "},"Þ":{"ha":642,"x_min":0,"x_max":0,"o":"m 374 713 b 496 567 472 713 513 663 l 476 457 b 288 296 457 343 394 296 l 193 296 l 267 713 z m 281 181 b 600 428 468 179 569 256 l 624 557 b 394 828 650 724 571 828 l 286 828 l 315 990 l 188 990 l 14 0 l 142 0 l 174 181 z "},"a":{"ha":639,"x_min":0,"x_max":0,"o":"m 242 96 b 150 217 171 96 135 139 b 214 326 158 267 178 300 b 333 379 243 347 282 363 b 444 435 397 400 428 414 l 418 288 b 242 96 399 174 333 96 z m 513 0 l 558 0 l 581 117 l 571 117 b 524 200 514 117 511 133 l 585 549 b 367 808 618 736 521 808 b 94 581 211 808 121 726 l 83 515 l 211 515 l 219 565 b 364 703 235 664 275 703 b 468 588 446 703 479 658 l 467 581 b 303 454 457 522 428 492 b 136 392 235 433 181 415 b 18 226 72 357 33 311 l 17 218 b 182 -10 -12 78 50 -10 b 392 107 272 -10 344 25 b 513 0 388 32 418 0 z "},"b":{"ha":663,"x_min":0,"x_max":0,"o":"m 326 -11 b 579 279 457 -11 546 88 l 619 507 b 432 811 657 715 563 811 b 256 699 349 811 293 769 l 313 1024 l 188 1024 l 8 0 l 114 0 l 151 139 b 326 -11 160 40 218 -11 z m 297 107 b 182 281 201 107 163 174 l 228 536 b 375 699 244 631 289 699 b 486 504 463 699 511 643 l 447 283 b 297 107 426 168 382 107 z "},"c":{"ha":633,"x_min":0,"x_max":0,"o":"m 271 -12 b 547 225 433 -12 521 72 l 568 329 l 431 329 l 417 256 b 278 104 401 160 364 104 b 168 268 183 104 150 168 l 217 544 b 361 697 235 649 281 697 b 467 536 449 697 488 649 l 457 478 l 594 478 l 601 519 b 367 811 635 701 549 811 b 89 564 221 811 118 725 l 42 293 b 271 -12 11 115 68 -12 z "},"d":{"ha":661,"x_min":0,"x_max":0,"o":"m 285 104 b 172 296 197 104 147 157 l 211 517 b 364 699 232 633 279 699 b 478 522 458 699 497 638 l 432 264 b 285 104 415 169 371 104 z m 408 0 l 511 0 l 690 1024 l 565 1024 l 507 694 b 335 810 483 769 422 810 b 79 521 208 810 115 732 l 40 293 b 233 -11 4 85 96 -11 b 413 113 319 -11 378 33 z "},"e":{"ha":636,"x_min":0,"x_max":0,"o":"m 208 533 b 363 697 228 643 272 697 b 478 521 457 697 501 639 l 468 465 l 197 465 z m 551 222 l 560 267 l 428 267 l 425 246 b 281 104 410 154 374 104 b 165 285 179 104 146 168 l 178 357 l 576 357 l 604 515 b 367 811 636 706 539 811 b 89 558 213 811 118 719 l 42 294 b 272 -12 11 115 72 -12 b 551 222 436 -12 524 72 z "},"f":{"ha":394,"x_min":0,"x_max":0,"o":"m 422 679 l 443 800 l 313 800 l 321 849 b 424 949 336 931 351 949 l 469 949 l 490 1064 l 426 1064 b 197 856 294 1064 225 1013 l 188 800 l 88 800 l 67 679 l 167 679 l 47 0 l 171 0 l 290 679 z "},"g":{"ha":658,"x_min":0,"x_max":0,"o":"m 285 104 b 172 296 197 104 147 157 l 211 517 b 364 699 232 633 279 699 b 478 522 458 699 497 638 l 432 264 b 285 104 415 169 371 104 z m 219 -285 b 503 -37 381 -285 472 -204 l 650 800 l 546 800 l 508 674 b 332 810 493 764 432 810 b 82 521 206 810 117 732 l 42 293 b 233 -11 4 85 96 -11 b 403 104 311 -11 367 32 l 382 -15 b 225 -174 361 -129 310 -174 b 114 -90 146 -174 121 -139 l -21 -90 b 219 -285 -17 -210 61 -285 z "},"h":{"ha":649,"x_min":0,"x_max":0,"o":"m 226 529 b 376 696 244 632 292 696 b 471 543 465 696 486 635 l 376 0 l 507 0 l 604 556 b 440 810 633 724 560 810 b 251 674 361 810 294 767 l 313 1024 l 188 1024 l 8 0 l 133 0 z "},"i":{"ha":288,"x_min":0,"x_max":0,"o":"m 233 869 b 329 960 290 869 317 890 b 260 1056 342 1031 318 1056 b 163 965 201 1056 175 1036 b 233 869 150 894 171 869 z m 138 0 l 278 800 l 149 800 l 8 0 z "},"j":{"ha":288,"x_min":0,"x_max":0,"o":"m 232 869 b 328 960 289 869 315 890 b 258 1056 340 1031 317 1056 b 161 965 200 1056 174 1036 b 232 869 149 894 169 869 z m -106 -260 b 128 -53 54 -260 99 -214 l 278 800 l 150 800 l 3 -39 b -96 -135 -12 -121 -29 -135 l -133 -135 l -154 -260 z "},"k":{"ha":618,"x_min":0,"x_max":0,"o":"m 306 426 l 399 0 l 533 0 l 411 506 l 664 800 l 514 800 l 221 450 l 206 425 l 215 467 l 313 1024 l 188 1024 l 8 0 l 133 0 l 183 289 l 306 435 z "},"l":{"ha":286,"x_min":0,"x_max":0,"o":"m 8 0 l 136 0 l 315 1024 l 188 1024 z "},"m":{"ha":971,"x_min":0,"x_max":0,"o":"m 229 529 b 365 703 247 632 281 703 b 449 543 454 703 464 635 l 354 0 l 483 0 l 576 535 b 711 696 594 638 626 696 b 794 543 800 696 810 635 l 700 0 l 831 0 l 928 556 b 775 810 957 724 894 810 b 588 682 690 810 629 767 b 429 818 578 765 522 818 b 246 681 344 818 285 769 l 253 800 l 147 800 l 7 0 l 136 0 z "},"n":{"ha":649,"x_min":0,"x_max":0,"o":"m 229 529 b 376 696 247 632 292 696 b 471 543 465 696 486 635 l 376 0 l 507 0 l 604 556 b 440 810 633 724 560 810 b 244 671 353 810 286 763 l 253 800 l 147 800 l 7 0 l 136 0 z "},"o":{"ha":642,"x_min":0,"x_max":0,"o":"m 271 -12 b 550 231 433 -12 524 74 l 600 515 b 365 811 632 699 543 811 b 90 571 215 811 118 725 l 42 293 b 271 -12 11 115 76 -12 z m 281 104 b 168 268 188 104 150 168 l 218 553 b 361 697 235 651 281 697 b 472 533 447 697 492 644 l 424 254 b 281 104 408 158 367 104 z "},"p":{"ha":661,"x_min":0,"x_max":0,"o":"m 296 107 b 181 281 200 107 161 174 l 226 536 b 374 699 243 631 288 699 b 485 504 461 699 510 643 l 446 283 b 296 107 425 168 381 107 z m 325 -11 b 578 279 456 -11 544 88 l 618 507 b 431 811 656 715 561 811 b 243 682 340 811 281 760 l 250 800 l 147 800 l -40 -264 l 85 -264 l 154 128 b 325 -11 164 35 219 -11 z "},"q":{"ha":658,"x_min":0,"x_max":0,"o":"m 463 -264 l 650 800 l 546 800 l 508 674 b 332 810 493 764 432 810 b 79 521 206 810 114 732 l 39 293 b 233 -11 1 85 96 -11 b 401 103 311 -11 367 32 l 338 -264 z m 285 104 b 172 296 197 104 147 157 l 211 517 b 364 699 232 633 279 699 b 478 522 458 699 497 638 l 432 264 b 285 104 415 169 371 104 z "},"r":{"ha":428,"x_min":0,"x_max":0,"o":"m 135 0 l 218 475 b 406 665 242 611 279 665 l 450 665 l 475 806 l 450 806 b 240 638 333 806 278 769 l 247 800 l 147 800 l 7 0 z "},"s":{"ha":578,"x_min":0,"x_max":0,"o":"m 240 -12 b 507 196 390 -12 482 50 l 508 206 b 351 453 535 356 440 407 b 215 615 274 493 200 526 l 217 624 b 336 707 226 674 267 707 b 429 579 410 707 444 667 l 424 543 l 551 543 l 557 579 b 340 817 581 718 510 817 b 92 633 210 817 114 751 l 89 618 b 244 371 63 469 156 417 b 381 211 322 331 396 297 l 379 201 b 254 101 368 139 335 101 b 146 232 172 101 131 146 l 156 289 l 19 289 l 13 249 b 240 -12 -19 86 61 -12 z "},"t":{"ha":428,"x_min":0,"x_max":0,"o":"m 343 125 l 313 125 b 226 258 222 125 206 142 l 301 679 l 442 679 l 463 800 l 322 800 l 350 957 l 254 957 b 222 851 243 911 236 881 b 172 803 208 824 194 811 b 89 792 151 794 117 792 l 69 679 l 179 679 l 103 246 b 263 0 68 51 106 0 l 322 0 z "},"u":{"ha":636,"x_min":0,"x_max":0,"o":"m 382 0 l 488 0 l 628 800 l 497 800 l 404 271 b 264 104 385 164 340 104 b 179 261 182 104 163 165 l 274 800 l 143 800 l 49 264 b 210 -10 17 79 69 -10 b 392 131 292 -10 351 36 z "},"v":{"ha":592,"x_min":0,"x_max":0,"o":"m 288 0 l 640 800 l 508 800 l 282 250 l 243 121 l 247 250 l 219 800 l 90 800 l 157 0 z "},"w":{"ha":875,"x_min":0,"x_max":0,"o":"m 435 504 l 475 650 l 463 507 l 486 0 l 610 0 l 928 800 l 801 800 l 604 278 l 561 131 l 568 281 l 540 800 l 460 800 l 242 282 l 193 138 l 207 279 l 211 800 l 86 800 l 93 0 l 222 0 z "},"x":{"ha":603,"x_min":0,"x_max":0,"o":"m 272 289 l 290 340 l 292 289 l 372 0 l 513 0 l 376 421 l 632 800 l 492 800 l 335 549 l 317 499 l 314 549 l 246 800 l 108 800 l 232 421 l -51 0 l 92 0 z "},"y":{"ha":593,"x_min":0,"x_max":0,"o":"m 7 -235 b 272 -43 158 -235 201 -204 l 646 800 l 513 800 l 289 258 l 257 146 l 264 253 l 221 800 l 90 800 l 174 15 l 156 -26 b 21 -112 122 -103 100 -112 l -40 -112 l -61 -235 z "},"z":{"ha":531,"x_min":0,"x_max":0,"o":"m -31 -1 l 422 0 l 443 119 l 147 119 l 542 693 l 561 800 l 129 800 l 108 683 l 392 683 l -12 101 z "},"á":{"ha":638,"x_min":0,"x_max":0,"o":"m 240 96 b 149 217 169 96 133 139 b 213 326 157 267 176 300 b 332 379 242 347 281 363 b 443 435 396 400 426 414 l 417 288 b 240 96 397 174 332 96 z m 511 0 l 557 0 l 579 117 l 569 117 b 522 200 513 117 510 133 l 583 549 b 365 808 617 736 519 808 b 93 581 210 808 119 726 l 82 515 l 210 515 l 218 565 b 363 703 233 664 274 703 b 467 588 444 703 478 658 l 465 581 b 301 454 456 522 426 492 b 135 392 233 433 179 415 b 17 226 71 357 32 311 l 15 218 b 181 -10 -14 78 49 -10 b 390 107 271 -10 343 25 b 511 0 386 32 417 0 z m 347 893 l 447 893 l 664 1111 l 525 1111 z "},"ă":{"ha":638,"x_min":0,"x_max":0,"o":"m 240 96 b 149 217 169 96 133 139 b 213 326 157 267 176 300 b 332 379 242 347 281 363 b 443 435 396 400 426 414 l 417 288 b 240 96 397 174 332 96 z m 511 0 l 557 0 l 579 117 l 569 117 b 522 200 513 117 510 133 l 583 549 b 365 808 617 736 519 808 b 93 581 210 808 119 726 l 82 515 l 210 515 l 218 565 b 363 703 233 664 274 703 b 467 588 444 703 478 658 l 465 581 b 301 454 456 522 426 492 b 135 392 233 433 179 415 b 17 226 71 357 32 311 l 15 218 b 181 -10 -14 78 49 -10 b 390 107 271 -10 343 25 b 511 0 386 32 417 0 z m 417 892 b 644 1113 560 892 618 969 l 547 1113 b 425 982 531 1022 500 983 b 344 1113 353 983 328 1022 l 249 1113 b 417 892 222 968 275 892 z "},"â":{"ha":638,"x_min":0,"x_max":0,"o":"m 240 96 b 149 217 169 96 133 139 b 213 326 157 267 176 300 b 332 379 242 347 281 363 b 443 435 396 400 426 414 l 417 288 b 240 96 397 174 332 96 z m 511 0 l 557 0 l 579 117 l 569 117 b 522 200 513 117 510 133 l 583 549 b 365 808 617 736 519 808 b 93 581 210 808 119 726 l 82 515 l 210 515 l 218 565 b 363 703 233 664 274 703 b 467 588 444 703 478 658 l 465 581 b 301 454 456 522 426 492 b 135 392 233 433 179 415 b 17 226 71 357 32 311 l 15 218 b 181 -10 -14 78 49 -10 b 390 107 271 -10 343 25 b 511 0 386 32 417 0 z m 490 893 l 600 893 l 490 1111 l 400 1111 l 217 893 l 331 893 l 432 1019 z "},"ä":{"ha":638,"x_min":0,"x_max":0,"o":"m 240 96 b 149 217 169 96 133 139 b 213 326 157 267 176 300 b 332 379 242 347 281 363 b 443 435 396 400 426 414 l 417 288 b 240 96 397 174 332 96 z m 511 0 l 557 0 l 579 117 l 569 117 b 522 200 513 117 510 133 l 583 549 b 365 808 617 736 519 808 b 93 581 210 808 119 726 l 82 515 l 210 515 l 218 565 b 363 703 233 664 274 703 b 467 588 444 703 478 658 l 465 581 b 301 454 456 522 426 492 b 135 392 233 433 179 415 b 17 226 71 357 32 311 l 15 218 b 181 -10 -14 78 49 -10 b 390 107 271 -10 343 25 b 511 0 386 32 417 0 z m 311 890 b 394 969 361 890 383 908 b 332 1053 404 1031 379 1053 b 249 974 281 1053 260 1036 b 311 890 238 913 261 890 z m 514 890 b 597 969 564 890 586 908 b 535 1053 607 1031 582 1053 b 451 974 483 1053 463 1036 b 514 890 440 913 464 890 z "},"à":{"ha":638,"x_min":0,"x_max":0,"o":"m 240 96 b 149 217 169 96 133 139 b 213 326 157 267 176 300 b 332 379 242 347 281 363 b 443 435 396 400 426 414 l 417 288 b 240 96 397 174 332 96 z m 511 0 l 557 0 l 579 117 l 569 117 b 522 200 513 117 510 133 l 583 549 b 365 808 617 736 519 808 b 93 581 210 808 119 726 l 82 515 l 210 515 l 218 565 b 363 703 233 664 274 703 b 467 588 444 703 478 658 l 465 581 b 301 454 456 522 426 492 b 135 392 233 433 179 415 b 17 226 71 357 32 311 l 15 218 b 181 -10 -14 78 49 -10 b 390 107 271 -10 343 25 b 511 0 386 32 417 0 z m 361 893 l 460 893 l 371 1111 l 233 1111 z "},"ā":{"ha":638,"x_min":0,"x_max":0,"o":"m 240 96 b 149 217 169 96 133 139 b 213 326 157 267 176 300 b 332 379 242 347 281 363 b 443 435 396 400 426 414 l 417 288 b 240 96 397 174 332 96 z m 511 0 l 557 0 l 579 117 l 569 117 b 522 200 513 117 510 133 l 583 549 b 365 808 617 736 519 808 b 93 581 210 808 119 726 l 82 515 l 210 515 l 218 565 b 363 703 233 664 274 703 b 467 588 444 703 478 658 l 465 581 b 301 454 456 522 426 492 b 135 392 233 433 179 415 b 17 226 71 357 32 311 l 15 218 b 181 -10 -14 78 49 -10 b 390 107 271 -10 343 25 b 511 0 386 32 417 0 z m 249 901 l 569 901 l 586 1001 l 265 1001 z "},"ą":{"ha":638,"x_min":0,"x_max":0,"o":"m 439 -271 b 646 -132 540 -271 603 -228 l 531 -132 b 456 -186 517 -165 492 -186 b 404 -137 418 -186 399 -169 b 558 0 411 -97 444 -71 l 557 1 l 579 117 l 569 117 b 522 200 513 117 510 133 l 583 549 b 365 808 617 736 519 808 b 93 581 210 808 119 726 l 82 515 l 210 515 l 218 565 b 363 703 233 664 274 703 b 467 588 444 703 478 658 l 465 581 b 301 454 456 522 426 492 b 135 392 233 433 179 415 b 17 226 71 357 32 311 l 15 218 b 181 -10 -14 78 49 -10 b 390 107 271 -10 343 25 b 432 14 388 60 399 29 b 304 -128 353 -32 317 -74 b 439 -271 289 -211 336 -271 z m 240 96 b 149 217 169 96 133 139 b 213 326 157 267 176 300 b 332 379 242 347 281 363 b 443 435 396 400 426 414 l 417 288 b 240 96 397 174 332 96 z "},"å":{"ha":638,"x_min":0,"x_max":0,"o":"m 240 96 b 149 217 169 96 133 139 b 213 326 157 267 176 300 b 332 379 242 347 281 363 b 443 435 396 400 426 414 l 417 288 b 240 96 397 174 332 96 z m 511 0 l 557 0 l 579 117 l 569 117 b 522 200 513 117 510 133 l 583 549 b 365 808 617 736 519 808 b 93 581 210 808 119 726 l 82 515 l 210 515 l 218 565 b 363 703 233 664 274 703 b 467 588 444 703 478 658 l 465 581 b 301 454 456 522 426 492 b 135 392 233 433 179 415 b 17 226 71 357 32 311 l 15 218 b 181 -10 -14 78 49 -10 b 390 107 271 -10 343 25 b 511 0 386 32 417 0 z m 418 899 b 583 1033 500 899 568 943 b 443 1190 599 1118 542 1190 b 279 1057 364 1190 294 1139 b 418 899 263 967 315 899 z m 422 986 b 372 1047 389 986 365 1013 b 438 1104 378 1085 404 1104 b 489 1042 472 1104 494 1079 b 422 986 482 1004 457 986 z "},"ǻ":{"ha":638,"x_min":0,"x_max":0,"o":"m 240 96 b 149 217 169 96 133 139 b 213 326 157 267 176 300 b 332 379 242 347 281 363 b 443 435 396 400 426 414 l 417 288 b 240 96 397 174 332 96 z m 511 0 l 557 0 l 579 117 l 569 117 b 522 200 513 117 510 133 l 583 549 b 365 808 617 736 519 808 b 93 581 210 808 119 726 l 82 515 l 210 515 l 218 565 b 363 703 233 664 274 703 b 467 588 444 703 478 658 l 465 581 b 301 454 456 522 426 492 b 135 392 233 433 179 415 b 17 226 71 357 32 311 l 15 218 b 181 -10 -14 78 49 -10 b 390 107 271 -10 343 25 b 511 0 386 32 417 0 z m 413 872 b 578 1007 494 872 563 917 b 438 1164 593 1092 536 1164 b 274 1031 358 1164 289 1113 b 413 872 257 940 310 872 z m 417 960 b 367 1021 383 960 360 986 b 432 1078 372 1058 399 1078 b 483 1015 467 1078 489 1053 b 417 960 476 978 451 960 z m 408 1208 l 508 1208 l 725 1426 l 586 1426 z "},"ã":{"ha":638,"x_min":0,"x_max":0,"o":"m 240 96 b 149 217 169 96 133 139 b 213 326 157 267 176 300 b 332 379 242 347 281 363 b 443 435 396 400 426 414 l 417 288 b 240 96 397 174 332 96 z m 511 0 l 557 0 l 579 117 l 569 117 b 522 200 513 117 510 133 l 583 549 b 365 808 617 736 519 808 b 93 581 210 808 119 726 l 82 515 l 210 515 l 218 565 b 363 703 233 664 274 703 b 467 588 444 703 478 658 l 465 581 b 301 454 456 522 426 492 b 135 392 233 433 179 415 b 17 226 71 357 32 311 l 15 218 b 181 -10 -14 78 49 -10 b 390 107 271 -10 343 25 b 511 0 386 32 417 0 z m 194 896 l 285 896 b 335 972 294 953 310 972 b 501 890 385 972 413 890 b 649 1064 597 890 631 957 l 560 1064 b 507 988 549 1001 536 988 b 336 1069 461 988 422 1069 b 194 896 244 1069 215 1006 z "},"æ":{"ha":1013,"x_min":0,"x_max":0,"o":"m 585 533 b 739 697 604 643 649 697 b 854 521 833 697 878 639 l 844 465 l 574 465 z m 242 96 b 150 217 171 96 135 139 b 206 322 158 265 175 297 b 325 378 232 344 271 361 b 446 442 393 397 428 415 l 418 288 b 242 96 399 174 333 96 z m 928 222 l 936 267 l 804 267 l 801 246 b 657 104 786 154 750 104 b 542 285 556 104 522 168 l 554 357 l 953 357 l 981 515 b 743 811 1013 706 915 811 b 549 721 661 811 596 776 b 367 808 517 778 454 808 b 94 581 211 808 121 726 l 81 500 l 207 500 l 218 565 b 364 703 233 664 275 703 b 468 588 446 703 479 658 l 467 581 b 304 454 457 522 429 489 b 103 372 217 431 150 408 b 18 226 58 339 31 294 l 17 218 b 182 -10 -12 78 50 -10 b 417 129 281 -10 365 31 b 649 -12 436 38 508 -12 b 928 222 813 -12 900 72 z "},"ǽ":{"ha":1013,"x_min":0,"x_max":0,"o":"m 585 533 b 739 697 604 643 649 697 b 854 521 833 697 878 639 l 844 465 l 574 465 z m 242 96 b 150 217 171 96 135 139 b 206 322 158 265 175 297 b 325 378 232 344 271 361 b 446 442 393 397 428 415 l 418 288 b 242 96 399 174 333 96 z m 928 222 l 936 267 l 804 267 l 801 246 b 657 104 786 154 750 104 b 542 285 556 104 522 168 l 554 357 l 953 357 l 981 515 b 743 811 1013 706 915 811 b 549 721 661 811 596 776 b 367 808 517 778 454 808 b 94 581 211 808 121 726 l 81 500 l 207 500 l 218 565 b 364 703 233 664 275 703 b 468 588 446 703 479 658 l 467 581 b 304 454 457 522 429 489 b 103 372 217 431 150 408 b 18 226 58 339 31 294 l 17 218 b 182 -10 -12 78 50 -10 b 417 129 281 -10 365 31 b 649 -12 436 38 508 -12 b 928 222 813 -12 900 72 z m 511 864 l 611 864 l 828 1082 l 689 1082 z "},"ć":{"ha":633,"x_min":0,"x_max":0,"o":"m 271 -12 b 547 225 433 -12 521 72 l 568 329 l 431 329 l 417 256 b 278 104 401 160 364 104 b 168 268 183 104 150 168 l 217 544 b 361 697 235 649 281 697 b 467 536 449 697 488 649 l 457 478 l 594 478 l 601 519 b 367 811 635 701 549 811 b 89 564 221 811 118 725 l 42 293 b 271 -12 11 115 68 -12 z m 360 893 l 460 893 l 676 1111 l 538 1111 z "},"č":{"ha":633,"x_min":0,"x_max":0,"o":"m 271 -12 b 547 225 433 -12 521 72 l 568 329 l 431 329 l 417 256 b 278 104 401 160 364 104 b 168 268 183 104 150 168 l 217 544 b 361 697 235 649 281 697 b 467 536 449 697 488 649 l 457 478 l 594 478 l 601 519 b 367 811 635 701 549 811 b 89 564 221 811 118 725 l 42 293 b 271 -12 11 115 68 -12 z m 453 893 l 635 1111 l 524 1111 l 422 989 l 365 1111 l 254 1111 l 363 893 z "},"ç":{"ha":633,"x_min":0,"x_max":0,"o":"m 211 -339 b 403 -212 322 -339 389 -290 b 285 -79 417 -131 376 -82 l 297 -11 b 547 225 443 -3 522 81 l 568 329 l 431 329 l 417 256 b 278 104 401 160 364 104 b 168 268 183 104 150 168 l 217 544 b 361 697 235 649 281 697 b 467 536 449 697 488 649 l 457 478 l 594 478 l 601 519 b 367 811 635 701 549 811 b 89 564 221 811 118 725 l 42 293 b 211 -8 14 133 57 15 l 203 -8 l 176 -153 l 231 -153 b 301 -207 288 -153 308 -172 b 218 -257 296 -237 268 -257 b 147 -194 169 -257 144 -235 l 35 -194 b 211 -339 38 -286 79 -339 z "},"ĉ":{"ha":633,"x_min":0,"x_max":0,"o":"m 271 -12 b 547 225 433 -12 521 72 l 568 329 l 431 329 l 417 256 b 278 104 401 160 364 104 b 168 268 183 104 150 168 l 217 544 b 361 697 235 649 281 697 b 467 536 449 697 488 649 l 457 478 l 594 478 l 601 519 b 367 811 635 701 549 811 b 89 564 221 811 118 725 l 42 293 b 271 -12 11 115 68 -12 z m 494 893 l 604 893 l 494 1111 l 404 1111 l 221 893 l 335 893 l 436 1019 z "},"ċ":{"ha":633,"x_min":0,"x_max":0,"o":"m 271 -12 b 547 225 433 -12 521 72 l 568 329 l 431 329 l 417 256 b 278 104 401 160 364 104 b 168 268 183 104 150 168 l 217 544 b 361 697 235 649 281 697 b 467 536 449 697 488 649 l 457 478 l 594 478 l 601 519 b 367 811 635 701 549 811 b 89 564 221 811 118 725 l 42 293 b 271 -12 11 115 68 -12 z m 413 889 b 507 979 469 889 494 910 b 436 1075 519 1050 490 1075 b 340 985 378 1075 353 1056 b 413 889 328 914 354 889 z "},"ď":{"ha":661,"x_min":0,"x_max":0,"o":"m 285 104 b 172 296 197 104 147 157 l 211 517 b 364 699 232 633 279 699 b 478 522 458 699 497 638 l 432 264 b 285 104 415 169 371 104 z m 408 0 l 511 0 l 690 1024 l 565 1024 l 507 694 b 335 810 483 769 422 810 b 79 521 208 810 115 732 l 40 293 b 233 -11 4 85 96 -11 b 413 113 319 -11 378 33 z m 733 899 l 817 899 l 919 1111 l 810 1111 z "},"đ":{"ha":661,"x_min":0,"x_max":0,"o":"m 285 104 b 172 296 197 104 147 157 l 211 517 b 364 699 232 633 279 699 b 478 522 458 699 497 638 l 432 264 b 285 104 415 169 371 104 z m 408 0 l 511 0 l 663 865 l 733 865 l 749 946 l 676 946 l 690 1024 l 565 1024 l 551 946 l 460 946 l 444 865 l 538 865 l 507 694 b 335 810 483 769 422 810 b 79 521 208 810 115 732 l 40 293 b 233 -11 4 85 96 -11 b 413 113 319 -11 378 33 z "},"ð":{"ha":639,"x_min":0,"x_max":0,"o":"m 268 -12 b 547 231 431 -12 521 74 l 600 529 b 494 954 631 704 588 844 l 636 1050 l 504 1050 l 443 1008 b 393 1050 426 1024 411 1036 l 201 1050 b 343 942 257 1011 304 975 l 199 844 l 332 844 l 397 889 b 492 703 453 828 483 769 b 343 789 468 760 417 789 b 83 549 206 789 111 703 l 39 293 b 268 -12 8 115 74 -12 z m 278 104 b 165 268 185 104 147 168 l 211 531 b 354 675 228 629 274 675 b 465 511 440 675 485 622 l 421 254 b 278 104 406 158 364 104 z "},"é":{"ha":636,"x_min":0,"x_max":0,"o":"m 208 533 b 363 697 228 643 272 697 b 478 521 457 697 501 639 l 468 465 l 197 465 z m 551 222 l 560 267 l 428 267 l 425 246 b 281 104 410 154 374 104 b 165 285 179 104 146 168 l 178 357 l 576 357 l 604 515 b 367 811 636 706 539 811 b 89 558 213 811 118 719 l 42 294 b 272 -12 11 115 72 -12 b 551 222 436 -12 524 72 z m 361 892 l 461 892 l 678 1110 l 539 1110 z "},"ĕ":{"ha":636,"x_min":0,"x_max":0,"o":"m 208 533 b 363 697 228 643 272 697 b 478 521 457 697 501 639 l 468 465 l 197 465 z m 551 222 l 560 267 l 428 267 l 425 246 b 281 104 410 154 374 104 b 165 285 179 104 146 168 l 178 357 l 576 357 l 604 515 b 367 811 636 706 539 811 b 89 558 213 811 118 719 l 42 294 b 272 -12 11 115 72 -12 b 551 222 436 -12 524 72 z m 438 890 b 665 1111 581 890 639 968 l 568 1111 b 446 981 551 1021 521 982 b 365 1111 374 982 349 1021 l 269 1111 b 438 890 243 967 296 890 z "},"ě":{"ha":636,"x_min":0,"x_max":0,"o":"m 208 533 b 363 697 228 643 272 697 b 478 521 457 697 501 639 l 468 465 l 197 465 z m 551 222 l 560 267 l 428 267 l 425 246 b 281 104 410 154 374 104 b 165 285 179 104 146 168 l 178 357 l 576 357 l 604 515 b 367 811 636 706 539 811 b 89 558 213 811 118 719 l 42 294 b 272 -12 11 115 72 -12 b 551 222 436 -12 524 72 z m 467 892 l 649 1110 l 538 1110 l 436 988 l 379 1110 l 268 1110 l 376 892 z "},"ê":{"ha":636,"x_min":0,"x_max":0,"o":"m 208 533 b 363 697 228 643 272 697 b 478 521 457 697 501 639 l 468 465 l 197 465 z m 551 222 l 560 267 l 428 267 l 425 246 b 281 104 410 154 374 104 b 165 285 179 104 146 168 l 178 357 l 576 357 l 604 515 b 367 811 636 706 539 811 b 89 558 213 811 118 719 l 42 294 b 272 -12 11 115 72 -12 b 551 222 436 -12 524 72 z m 497 892 l 607 892 l 497 1110 l 407 1110 l 224 892 l 338 892 l 439 1018 z "},"ë":{"ha":636,"x_min":0,"x_max":0,"o":"m 208 533 b 363 697 228 643 272 697 b 478 521 457 697 501 639 l 468 465 l 197 465 z m 551 222 l 560 267 l 428 267 l 425 246 b 281 104 410 154 374 104 b 165 285 179 104 146 168 l 178 357 l 576 357 l 604 515 b 367 811 636 706 539 811 b 89 558 213 811 118 719 l 42 294 b 272 -12 11 115 72 -12 b 551 222 436 -12 524 72 z m 315 889 b 399 968 365 889 388 907 b 336 1051 408 1029 383 1051 b 253 972 285 1051 264 1035 b 315 889 242 911 265 889 z m 518 889 b 601 968 568 889 590 907 b 539 1051 611 1029 586 1051 b 456 972 488 1051 467 1035 b 518 889 444 911 468 889 z "},"ė":{"ha":636,"x_min":0,"x_max":0,"o":"m 208 533 b 363 697 228 643 272 697 b 478 521 457 697 501 639 l 468 465 l 197 465 z m 551 222 l 560 267 l 428 267 l 425 246 b 281 104 410 154 374 104 b 165 285 179 104 146 168 l 178 357 l 576 357 l 604 515 b 367 811 636 706 539 811 b 89 558 213 811 118 719 l 42 294 b 272 -12 11 115 72 -12 b 551 222 436 -12 524 72 z m 424 888 b 518 978 481 888 506 908 b 447 1074 531 1049 501 1074 b 351 983 389 1074 364 1054 b 424 888 339 913 365 888 z "},"è":{"ha":636,"x_min":0,"x_max":0,"o":"m 208 533 b 363 697 228 643 272 697 b 478 521 457 697 501 639 l 468 465 l 197 465 z m 551 222 l 560 267 l 428 267 l 425 246 b 281 104 410 154 374 104 b 165 285 179 104 146 168 l 178 357 l 576 357 l 604 515 b 367 811 636 706 539 811 b 89 558 213 811 118 719 l 42 294 b 272 -12 11 115 72 -12 b 551 222 436 -12 524 72 z m 376 892 l 475 892 l 386 1110 l 249 1110 z "},"ē":{"ha":636,"x_min":0,"x_max":0,"o":"m 208 533 b 363 697 228 643 272 697 b 478 521 457 697 501 639 l 468 465 l 197 465 z m 551 222 l 560 267 l 428 267 l 425 246 b 281 104 410 154 374 104 b 165 285 179 104 146 168 l 178 357 l 576 357 l 604 515 b 367 811 636 706 539 811 b 89 558 213 811 118 719 l 42 294 b 272 -12 11 115 72 -12 b 551 222 436 -12 524 72 z m 264 900 l 585 900 l 601 1000 l 281 1000 z "},"ę":{"ha":636,"x_min":0,"x_max":0,"o":"m 289 -251 b 496 -112 390 -251 453 -208 l 381 -112 b 306 -167 367 -146 342 -167 b 254 -118 268 -167 249 -150 b 383 4 261 -81 289 -56 b 551 222 476 35 531 111 l 560 267 l 428 267 l 425 246 b 281 104 410 154 374 104 b 165 285 179 104 146 168 l 178 357 l 576 357 l 604 515 b 367 811 636 706 539 811 b 89 558 213 811 118 719 l 42 294 b 219 -10 14 132 61 11 b 154 -108 183 -40 163 -71 b 289 -251 139 -192 186 -251 z m 208 533 b 363 697 228 643 272 697 b 478 521 457 697 501 639 l 468 465 l 197 465 z "},"ğ":{"ha":658,"x_min":0,"x_max":0,"o":"m 285 104 b 172 296 197 104 147 157 l 211 517 b 364 699 232 633 279 699 b 478 522 458 699 497 638 l 432 264 b 285 104 415 169 371 104 z m 219 -285 b 503 -37 381 -285 472 -204 l 650 800 l 546 800 l 508 674 b 332 810 493 764 432 810 b 82 521 206 810 117 732 l 42 293 b 233 -11 4 85 96 -11 b 403 104 311 -11 367 32 l 382 -15 b 225 -174 361 -129 310 -174 b 114 -90 146 -174 121 -139 l -21 -90 b 219 -285 -17 -210 61 -285 z m 439 892 b 667 1113 582 892 640 969 l 569 1113 b 447 982 553 1022 522 983 b 367 1113 375 983 350 1022 l 271 1113 b 439 892 244 968 297 892 z "},"ĝ":{"ha":658,"x_min":0,"x_max":0,"o":"m 285 104 b 172 296 197 104 147 157 l 211 517 b 364 699 232 633 279 699 b 478 522 458 699 497 638 l 432 264 b 285 104 415 169 371 104 z m 219 -285 b 503 -37 381 -285 472 -204 l 650 800 l 546 800 l 508 674 b 332 810 493 764 432 810 b 82 521 206 810 117 732 l 42 293 b 233 -11 4 85 96 -11 b 403 104 311 -11 367 32 l 382 -15 b 225 -174 361 -129 310 -174 b 114 -90 146 -174 121 -139 l -21 -90 b 219 -285 -17 -210 61 -285 z m 513 893 l 622 893 l 513 1111 l 422 1111 l 239 893 l 353 893 l 454 1019 z "},"ģ":{"ha":658,"x_min":0,"x_max":0,"o":"m 285 104 b 172 296 197 104 147 157 l 211 517 b 364 699 232 633 279 699 b 478 522 458 699 497 638 l 432 264 b 285 104 415 169 371 104 z m 219 -285 b 503 -37 381 -285 472 -204 l 650 800 l 546 800 l 508 674 b 332 810 493 764 432 810 b 82 521 206 810 117 732 l 42 293 b 233 -11 4 85 96 -11 b 403 104 311 -11 367 32 l 382 -15 b 225 -174 361 -129 310 -174 b 114 -90 146 -174 121 -139 l -21 -90 b 219 -285 -17 -210 61 -285 z m 397 907 b 489 988 450 907 478 928 b 438 1060 499 1049 481 1060 b 422 1058 432 1060 428 1060 b 500 1139 436 1104 460 1132 l 513 1208 b 338 1017 413 1194 356 1119 b 397 907 324 940 339 907 z "},"ġ":{"ha":658,"x_min":0,"x_max":0,"o":"m 285 104 b 172 296 197 104 147 157 l 211 517 b 364 699 232 633 279 699 b 478 522 458 699 497 638 l 432 264 b 285 104 415 169 371 104 z m 219 -285 b 503 -37 381 -285 472 -204 l 650 800 l 546 800 l 508 674 b 332 810 493 764 432 810 b 82 521 206 810 117 732 l 42 293 b 233 -11 4 85 96 -11 b 403 104 311 -11 367 32 l 382 -15 b 225 -174 361 -129 310 -174 b 114 -90 146 -174 121 -139 l -21 -90 b 219 -285 -17 -210 61 -285 z m 431 889 b 525 979 488 889 513 910 b 454 1075 538 1050 508 1075 b 358 985 396 1075 371 1056 b 431 889 346 914 372 889 z "},"ß":{"ha":676,"x_min":0,"x_max":0,"o":"m 278 804 b 422 928 290 881 335 928 b 533 803 510 928 547 882 l 522 739 b 372 607 507 647 464 607 l 346 607 l 325 493 l 354 493 b 468 333 454 493 488 435 l 453 251 b 299 122 435 154 399 122 l 258 122 l 238 0 l 308 0 b 586 240 513 0 560 94 l 603 333 b 511 546 621 442 599 515 b 649 742 606 574 632 646 l 660 808 b 433 1046 683 951 597 1046 b 150 810 263 1046 175 953 l 8 0 l 136 0 z "},"ħ":{"ha":649,"x_min":0,"x_max":0,"o":"m 226 529 b 376 696 244 632 292 696 b 471 543 465 696 486 635 l 376 0 l 507 0 l 604 556 b 440 810 633 724 560 810 b 251 674 361 810 294 767 l 285 867 l 378 867 l 392 947 l 299 947 l 313 1024 l 188 1024 l 174 947 l 96 947 l 82 867 l 160 867 l 8 0 l 133 0 z "},"ĥ":{"ha":649,"x_min":0,"x_max":0,"o":"m 226 529 b 376 696 244 632 292 696 b 471 543 465 696 486 635 l 376 0 l 507 0 l 604 556 b 440 810 633 724 560 810 b 251 674 361 810 294 767 l 313 1024 l 188 1024 l 8 0 l 133 0 z m 347 1107 l 457 1107 l 347 1325 l 257 1325 l 74 1107 l 188 1107 l 289 1233 z "},"í":{"ha":288,"x_min":0,"x_max":0,"o":"m 8 0 l 138 0 l 278 800 l 149 800 z m 181 883 l 281 883 l 497 1101 l 358 1101 z "},"ĭ":{"ha":288,"x_min":0,"x_max":0,"o":"m 8 0 l 138 0 l 278 800 l 149 800 z m 238 882 b 465 1103 381 882 439 960 l 368 1103 b 246 972 351 1013 321 974 b 165 1103 174 974 149 1013 l 69 1103 b 238 882 43 958 96 882 z "},"î":{"ha":288,"x_min":0,"x_max":0,"o":"m 8 0 l 138 0 l 278 800 l 149 800 z m 307 883 l 417 883 l 307 1101 l 217 1101 l 33 883 l 147 883 l 249 1010 z "},"ï":{"ha":288,"x_min":0,"x_max":0,"o":"m 8 0 l 138 0 l 278 800 l 149 800 z m 126 881 b 210 960 176 881 199 899 b 147 1043 219 1021 194 1043 b 64 964 96 1043 75 1026 b 126 881 53 903 76 881 z m 329 881 b 413 960 379 881 401 899 b 350 1043 422 1021 397 1043 b 267 964 299 1043 278 1026 b 329 881 256 903 279 881 z "},"ì":{"ha":288,"x_min":0,"x_max":0,"o":"m 8 0 l 138 0 l 278 800 l 149 800 z m 181 883 l 279 883 l 190 1101 l 53 1101 z "},"ī":{"ha":288,"x_min":0,"x_max":0,"o":"m 8 0 l 138 0 l 278 800 l 149 800 z m 69 892 l 390 892 l 407 992 l 86 992 z "},"į":{"ha":288,"x_min":0,"x_max":0,"o":"m 233 869 b 329 960 290 869 317 890 b 260 1056 342 1031 318 1056 b 163 965 201 1056 175 1036 b 233 869 150 894 171 869 z m 225 -132 l 110 -132 b 35 -186 96 -165 71 -186 b -17 -137 -3 -186 -22 -169 b 138 0 -10 -97 24 -71 l 278 800 l 149 800 l 11 14 b -117 -128 -68 -32 -104 -74 b 18 -271 -132 -211 -85 -271 b 225 -132 119 -271 182 -228 z "},"ĩ":{"ha":288,"x_min":0,"x_max":0,"o":"m 8 0 l 138 0 l 278 800 l 149 800 z m 22 886 l 113 886 b 163 963 122 943 138 963 b 329 881 213 963 240 881 b 476 1054 425 881 458 947 l 388 1054 b 335 978 376 992 364 978 b 164 1060 289 978 250 1060 b 22 886 72 1060 43 996 z "},"ı":{"ha":288,"x_min":0,"x_max":0,"o":"m 8 0 l 138 0 l 278 800 l 149 800 z "},"ĵ":{"ha":288,"x_min":0,"x_max":0,"o":"m -106 -260 b 128 -53 54 -260 99 -214 l 278 800 l 150 800 l 3 -39 b -96 -135 -12 -121 -29 -135 l -133 -135 l -154 -260 z m 308 883 l 418 883 l 308 1101 l 218 1101 l 35 883 l 149 883 l 250 1010 z "},"ȷ":{"ha":288,"x_min":0,"x_max":0,"o":"m -106 -260 b 128 -53 54 -260 99 -214 l 278 800 l 150 800 l 3 -39 b -96 -135 -12 -121 -29 -135 l -133 -135 l -154 -260 z "},"ķ":{"ha":618,"x_min":0,"x_max":0,"o":"m 306 426 l 399 0 l 533 0 l 411 506 l 664 800 l 514 800 l 221 450 l 206 425 l 215 467 l 313 1024 l 188 1024 l 8 0 l 133 0 l 183 289 l 306 435 z m 131 -356 b 306 -164 231 -342 288 -267 b 247 -54 319 -83 306 -54 b 156 -135 194 -54 167 -75 b 206 -207 146 -196 163 -207 b 221 -206 211 -207 215 -207 b 143 -286 207 -251 183 -279 z "},"ĸ":{"ha":618,"x_min":0,"x_max":0,"o":"m 306 426 l 399 0 l 533 0 l 411 506 l 664 800 l 514 800 l 221 450 l 206 425 l 215 467 l 274 800 l 149 800 l 8 0 l 133 0 l 183 289 l 306 435 z "},"ĺ":{"ha":286,"x_min":0,"x_max":0,"o":"m 8 0 l 136 0 l 315 1024 l 188 1024 z m 217 1107 l 317 1107 l 533 1325 l 394 1325 z "},"ľ":{"ha":286,"x_min":0,"x_max":0,"o":"m 8 0 l 136 0 l 315 1024 l 188 1024 z m 363 899 l 446 899 l 549 1111 l 439 1111 z "},"ļ":{"ha":286,"x_min":0,"x_max":0,"o":"m 8 0 l 136 0 l 315 1024 l 188 1024 z m -57 -378 b 118 -186 43 -364 100 -289 b 60 -76 132 -106 118 -76 b -32 -157 7 -76 -21 -97 b 18 -229 -42 -218 -25 -229 b 33 -228 24 -229 28 -229 b -44 -308 19 -274 -4 -301 z "},"ŀ":{"ha":428,"x_min":0,"x_max":0,"o":"m 8 0 l 136 0 l 315 1024 l 188 1024 z m 339 290 b 433 381 396 290 421 311 b 363 476 446 451 417 476 b 267 386 304 476 279 457 b 339 290 254 315 281 290 z "},"ł":{"ha":310,"x_min":0,"x_max":0,"o":"m 150 0 l 222 415 l 324 446 l 314 521 l 238 499 l 329 1024 l 201 1024 l 103 458 l 1 428 l 11 353 l 88 375 l 22 0 z "},"ń":{"ha":649,"x_min":0,"x_max":0,"o":"m 229 529 b 376 696 247 632 292 696 b 471 543 465 696 486 635 l 376 0 l 507 0 l 604 556 b 440 810 633 724 560 810 b 244 671 353 810 286 763 l 253 800 l 147 800 l 7 0 l 136 0 z m 363 889 l 463 889 l 679 1107 l 540 1107 z "},"ň":{"ha":649,"x_min":0,"x_max":0,"o":"m 229 529 b 376 696 247 632 292 696 b 471 543 465 696 486 635 l 376 0 l 507 0 l 604 556 b 440 810 633 724 560 810 b 244 671 353 810 286 763 l 253 800 l 147 800 l 7 0 l 136 0 z m 456 889 l 638 1107 l 526 1107 l 425 985 l 368 1107 l 257 1107 l 365 889 z "},"ņ":{"ha":649,"x_min":0,"x_max":0,"o":"m 229 529 b 376 696 247 632 292 696 b 471 543 465 696 486 635 l 376 0 l 507 0 l 604 556 b 440 810 633 724 560 810 b 244 671 353 810 286 763 l 253 800 l 147 800 l 7 0 l 136 0 z m 126 -358 b 301 -167 226 -344 283 -269 b 243 -57 315 -86 301 -57 b 151 -137 190 -57 163 -78 b 201 -210 142 -199 158 -210 b 217 -208 207 -210 211 -210 b 139 -289 203 -254 179 -282 z "},"ñ":{"ha":649,"x_min":0,"x_max":0,"o":"m 229 529 b 376 696 247 632 292 696 b 471 543 465 696 486 635 l 376 0 l 507 0 l 604 556 b 440 810 633 724 560 810 b 244 671 353 810 286 763 l 253 800 l 147 800 l 7 0 l 136 0 z m 214 892 l 304 892 b 354 968 314 949 329 968 b 521 886 404 968 432 886 b 668 1060 617 886 650 953 l 579 1060 b 526 983 568 997 556 983 b 356 1065 481 983 442 1065 b 214 892 264 1065 235 1001 z "},"ŋ":{"ha":649,"x_min":0,"x_max":0,"o":"m 260 -260 b 497 -53 421 -260 468 -218 b 604 556 497 -53 596 508 b 440 810 633 724 560 810 b 244 671 353 810 286 763 l 253 800 l 147 800 l 7 0 l 136 0 l 229 529 b 376 696 247 632 292 696 b 471 543 465 696 486 635 l 369 -39 b 269 -135 354 -121 338 -135 l 232 -135 l 211 -260 z "},"ó":{"ha":642,"x_min":0,"x_max":0,"o":"m 271 -12 b 550 231 433 -12 524 74 l 600 515 b 365 811 632 699 543 811 b 90 571 215 811 118 725 l 42 293 b 271 -12 11 115 76 -12 z m 281 104 b 168 268 188 104 150 168 l 218 553 b 361 697 235 651 281 697 b 472 533 447 697 492 644 l 424 254 b 281 104 408 158 367 104 z m 360 893 l 460 893 l 676 1111 l 538 1111 z "},"ŏ":{"ha":642,"x_min":0,"x_max":0,"o":"m 271 -12 b 550 231 433 -12 524 74 l 600 515 b 365 811 632 699 543 811 b 90 571 215 811 118 725 l 42 293 b 271 -12 11 115 76 -12 z m 281 104 b 168 268 188 104 150 168 l 218 553 b 361 697 235 651 281 697 b 472 533 447 697 492 644 l 424 254 b 281 104 408 158 367 104 z m 419 892 b 647 1113 563 892 621 969 l 550 1113 b 428 982 533 1022 503 983 b 347 1113 356 983 331 1022 l 251 1113 b 419 892 225 968 278 892 z "},"ô":{"ha":642,"x_min":0,"x_max":0,"o":"m 271 -12 b 550 231 433 -12 524 74 l 600 515 b 365 811 632 699 543 811 b 90 571 215 811 118 725 l 42 293 b 271 -12 11 115 76 -12 z m 281 104 b 168 268 188 104 150 168 l 218 553 b 361 697 235 651 281 697 b 472 533 447 697 492 644 l 424 254 b 281 104 408 158 367 104 z m 493 893 l 603 893 l 493 1111 l 403 1111 l 219 893 l 333 893 l 435 1019 z "},"ö":{"ha":642,"x_min":0,"x_max":0,"o":"m 271 -12 b 550 231 433 -12 524 74 l 600 515 b 365 811 632 699 543 811 b 90 571 215 811 118 725 l 42 293 b 271 -12 11 115 76 -12 z m 281 104 b 168 268 188 104 150 168 l 218 553 b 361 697 235 651 281 697 b 472 533 447 697 492 644 l 424 254 b 281 104 408 158 367 104 z m 314 890 b 397 969 364 890 386 908 b 335 1053 407 1031 382 1053 b 251 974 283 1053 263 1036 b 314 890 240 913 264 890 z m 517 890 b 600 969 567 890 589 908 b 538 1053 610 1031 585 1053 b 454 974 486 1053 465 1036 b 517 890 443 913 467 890 z "},"œ":{"ha":1025,"x_min":0,"x_max":0,"o":"m 281 104 b 168 268 188 104 150 168 l 218 553 b 361 697 235 651 281 697 b 472 533 447 697 492 644 l 424 254 b 281 104 408 158 367 104 z m 597 533 b 751 697 617 643 661 697 b 867 521 846 697 890 639 l 857 465 l 586 465 z m 940 222 l 949 267 l 817 267 l 814 246 b 669 104 799 154 763 104 b 554 285 568 104 535 168 l 567 357 l 965 357 l 993 515 b 776 811 1025 706 928 811 b 553 700 669 811 599 769 b 358 811 524 769 458 811 b 90 571 208 811 118 725 l 42 293 b 267 -12 11 115 72 -12 b 464 92 361 -12 422 28 b 661 -12 492 26 551 -12 b 940 222 825 -12 913 72 z "},"ò":{"ha":642,"x_min":0,"x_max":0,"o":"m 271 -12 b 550 231 433 -12 524 74 l 600 515 b 365 811 632 699 543 811 b 90 571 215 811 118 725 l 42 293 b 271 -12 11 115 76 -12 z m 281 104 b 168 268 188 104 150 168 l 218 553 b 361 697 235 651 281 697 b 472 533 447 697 492 644 l 424 254 b 281 104 408 158 367 104 z m 364 893 l 463 893 l 374 1111 l 236 1111 z "},"ő":{"ha":642,"x_min":0,"x_max":0,"o":"m 271 -12 b 550 231 433 -12 524 74 l 600 515 b 365 811 632 699 543 811 b 90 571 215 811 118 725 l 42 293 b 271 -12 11 115 76 -12 z m 281 104 b 168 268 188 104 150 168 l 218 553 b 361 697 235 651 281 697 b 472 533 447 697 492 644 l 424 254 b 281 104 408 158 367 104 z m 565 1111 l 435 1111 l 271 893 l 363 893 z m 757 1111 l 625 1111 l 458 893 l 550 893 z "},"ō":{"ha":642,"x_min":0,"x_max":0,"o":"m 271 -12 b 550 231 433 -12 524 74 l 600 515 b 365 811 632 699 543 811 b 90 571 215 811 118 725 l 42 293 b 271 -12 11 115 76 -12 z m 281 104 b 168 268 188 104 150 168 l 218 553 b 361 697 235 651 281 697 b 472 533 447 697 492 644 l 424 254 b 281 104 408 158 367 104 z m 251 901 l 572 901 l 589 1001 l 268 1001 z "},"ø":{"ha":642,"x_min":0,"x_max":0,"o":"m 168 268 l 218 553 b 361 697 235 651 281 697 b 403 692 376 697 390 696 l 175 164 b 168 268 163 192 161 226 z m 281 104 b 236 110 264 104 250 106 l 465 640 b 472 533 478 614 481 579 l 424 254 b 281 104 408 158 367 104 z m 271 -12 b 550 231 433 -12 524 74 l 600 515 b 522 768 621 632 592 719 l 588 911 l 501 911 l 451 800 b 365 811 426 807 397 811 b 90 571 215 811 118 725 l 42 293 b 115 29 22 176 43 81 l 46 -125 l 136 -125 l 188 -3 b 271 -12 213 -10 240 -12 z "},"ǿ":{"ha":642,"x_min":0,"x_max":0,"o":"m 168 268 l 218 553 b 361 697 235 651 281 697 b 403 692 376 697 390 696 l 175 164 b 168 268 163 192 161 226 z m 281 104 b 236 110 264 104 250 106 l 465 640 b 472 533 478 614 481 579 l 424 254 b 281 104 408 158 367 104 z m 271 -12 b 550 231 433 -12 524 74 l 600 515 b 522 768 621 632 592 719 l 588 911 l 501 911 l 451 800 b 365 811 426 807 397 811 b 90 571 215 811 118 725 l 42 293 b 115 29 22 176 43 81 l 46 -125 l 136 -125 l 188 -3 b 271 -12 213 -10 240 -12 z m 369 936 l 469 936 l 686 1154 l 547 1154 z "},"õ":{"ha":642,"x_min":0,"x_max":0,"o":"m 271 -12 b 550 231 433 -12 524 74 l 600 515 b 365 811 632 699 543 811 b 90 571 215 811 118 725 l 42 293 b 271 -12 11 115 76 -12 z m 281 104 b 168 268 188 104 150 168 l 218 553 b 361 697 235 651 281 697 b 472 533 447 697 492 644 l 424 254 b 281 104 408 158 367 104 z m 197 896 l 288 896 b 338 972 297 953 313 972 b 504 890 388 972 415 890 b 651 1064 600 890 633 957 l 563 1064 b 510 988 551 1001 539 988 b 339 1069 464 988 425 1069 b 197 896 247 1069 218 1006 z "},"ŕ":{"ha":428,"x_min":0,"x_max":0,"o":"m 135 0 l 218 475 b 406 665 242 611 279 665 l 450 665 l 475 806 l 450 806 b 240 638 333 806 278 769 l 247 800 l 147 800 l 7 0 z m 261 872 l 361 872 l 578 1090 l 439 1090 z "},"ř":{"ha":428,"x_min":0,"x_max":0,"o":"m 135 0 l 218 475 b 406 665 242 611 279 665 l 450 665 l 475 806 l 450 806 b 240 638 333 806 278 769 l 247 800 l 147 800 l 7 0 z m 354 872 l 536 1090 l 425 1090 l 324 968 l 267 1090 l 156 1090 l 264 872 z "},"ŗ":{"ha":428,"x_min":0,"x_max":0,"o":"m 135 0 l 218 475 b 406 665 242 611 279 665 l 450 665 l 475 806 l 450 806 b 240 638 333 806 278 769 l 247 800 l 147 800 l 7 0 z m -61 -378 b 114 -186 39 -364 96 -289 b 56 -76 128 -106 114 -76 b -36 -157 3 -76 -25 -97 b 14 -229 -46 -218 -29 -229 b 29 -228 19 -229 24 -229 b -49 -308 15 -274 -8 -301 z "},"ś":{"ha":578,"x_min":0,"x_max":0,"o":"m 240 -12 b 507 196 390 -12 482 50 l 508 206 b 351 453 535 356 440 407 b 215 615 274 493 200 526 l 217 624 b 336 707 226 674 267 707 b 429 579 410 707 444 667 l 424 543 l 551 543 l 557 579 b 340 817 581 718 510 817 b 92 633 210 817 114 751 l 89 618 b 244 371 63 469 156 417 b 381 211 322 331 396 297 l 379 201 b 254 101 368 139 335 101 b 146 232 172 101 131 146 l 156 289 l 19 289 l 13 249 b 240 -12 -19 86 61 -12 z m 324 893 l 424 893 l 640 1111 l 501 1111 z "},"š":{"ha":578,"x_min":0,"x_max":0,"o":"m 240 -12 b 507 196 390 -12 482 50 l 508 206 b 351 453 535 356 440 407 b 215 615 274 493 200 526 l 217 624 b 336 707 226 674 267 707 b 429 579 410 707 444 667 l 424 543 l 551 543 l 557 579 b 340 817 581 718 510 817 b 92 633 210 817 114 751 l 89 618 b 244 371 63 469 156 417 b 381 211 322 331 396 297 l 379 201 b 254 101 368 139 335 101 b 146 232 172 101 131 146 l 156 289 l 19 289 l 13 249 b 240 -12 -19 86 61 -12 z m 418 893 l 600 1111 l 489 1111 l 388 989 l 331 1111 l 219 1111 l 328 893 z "},"ş":{"ha":578,"x_min":0,"x_max":0,"o":"m 189 -339 b 381 -212 300 -339 367 -290 b 263 -79 394 -131 354 -82 l 275 -11 b 507 196 404 -3 483 61 l 508 206 b 351 453 535 356 440 407 b 215 615 274 493 200 526 l 217 624 b 336 707 226 674 267 707 b 429 579 410 707 444 667 l 424 543 l 551 543 l 557 579 b 340 817 581 718 510 817 b 92 633 210 817 114 751 l 89 618 b 244 371 63 469 156 417 b 381 211 322 331 396 297 l 379 201 b 254 101 368 139 335 101 b 146 232 172 101 131 146 l 156 289 l 19 289 l 13 249 b 181 -8 -15 106 43 13 l 154 -153 l 208 -153 b 279 -207 265 -153 286 -172 b 196 -257 274 -237 246 -257 b 125 -194 147 -257 122 -235 l 13 -194 b 189 -339 15 -286 57 -339 z "},"ŝ":{"ha":578,"x_min":0,"x_max":0,"o":"m 240 -12 b 507 196 390 -12 482 50 l 508 206 b 351 453 535 356 440 407 b 215 615 274 493 200 526 l 217 624 b 336 707 226 674 267 707 b 429 579 410 707 444 667 l 424 543 l 551 543 l 557 579 b 340 817 581 718 510 817 b 92 633 210 817 114 751 l 89 618 b 244 371 63 469 156 417 b 381 211 322 331 396 297 l 379 201 b 254 101 368 139 335 101 b 146 232 172 101 131 146 l 156 289 l 19 289 l 13 249 b 240 -12 -19 86 61 -12 z m 458 893 l 568 893 l 458 1111 l 368 1111 l 185 893 l 299 893 l 400 1019 z "},"ș":{"ha":578,"x_min":0,"x_max":0,"o":"m 240 -12 b 507 196 390 -12 482 50 l 508 206 b 351 453 535 356 440 407 b 215 615 274 493 200 526 l 217 624 b 336 707 226 674 267 707 b 429 579 410 707 444 667 l 424 543 l 551 543 l 557 579 b 340 817 581 718 510 817 b 92 633 210 817 114 751 l 89 618 b 244 371 63 469 156 417 b 381 211 322 331 396 297 l 379 201 b 254 101 368 139 335 101 b 146 232 172 101 131 146 l 156 289 l 19 289 l 13 249 b 240 -12 -19 86 61 -12 z m 88 -385 b 263 -193 188 -371 244 -296 b 204 -83 276 -112 263 -83 b 113 -164 151 -83 124 -104 b 163 -236 103 -225 119 -236 b 178 -235 168 -236 172 -236 b 100 -315 164 -281 140 -308 z "},"ŧ":{"ha":428,"x_min":0,"x_max":0,"o":"m 343 125 l 313 125 b 226 258 222 125 206 142 l 243 356 l 339 356 l 357 461 l 263 461 l 301 679 l 442 679 l 463 800 l 322 800 l 350 957 l 254 957 b 222 851 243 911 236 881 b 172 803 208 824 194 811 b 89 792 151 794 117 792 l 69 679 l 179 679 l 140 461 l 65 461 l 47 356 l 122 356 l 103 246 b 263 0 68 51 106 0 l 322 0 z "},"ť":{"ha":428,"x_min":0,"x_max":0,"o":"m 343 125 l 313 125 b 226 258 222 125 206 142 l 301 679 l 442 679 l 463 800 l 322 800 l 350 957 l 254 957 b 222 851 243 911 236 881 b 172 803 208 824 194 811 b 89 792 151 794 117 792 l 69 679 l 179 679 l 103 246 b 263 0 68 51 106 0 l 322 0 z m 431 899 l 514 899 l 617 1111 l 507 1111 z "},"ţ":{"ha":428,"x_min":0,"x_max":0,"o":"m 343 125 l 313 125 b 226 258 222 125 206 142 l 301 679 l 442 679 l 463 800 l 322 800 l 350 957 l 254 957 b 222 851 243 911 236 881 b 172 803 208 824 194 811 b 89 792 151 794 117 792 l 69 679 l 179 679 l 103 246 b 263 0 68 51 106 0 l 322 0 z m 63 -375 b 238 -183 163 -361 219 -286 b 179 -74 251 -103 238 -74 b 88 -154 126 -74 99 -94 b 138 -226 78 -215 94 -226 b 153 -225 143 -226 147 -226 b 75 -306 139 -271 115 -299 z "},"ú":{"ha":636,"x_min":0,"x_max":0,"o":"m 382 0 l 488 0 l 628 800 l 497 800 l 404 271 b 264 104 385 164 340 104 b 179 261 182 104 163 165 l 274 800 l 143 800 l 49 264 b 210 -10 17 79 69 -10 b 392 131 292 -10 351 36 z m 343 875 l 443 875 l 660 1093 l 521 1093 z "},"ŭ":{"ha":636,"x_min":0,"x_max":0,"o":"m 382 0 l 488 0 l 628 800 l 497 800 l 404 271 b 264 104 385 164 340 104 b 179 261 182 104 163 165 l 274 800 l 143 800 l 49 264 b 210 -10 17 79 69 -10 b 392 131 292 -10 351 36 z m 408 874 b 636 1094 551 874 610 951 l 539 1094 b 417 964 522 1004 492 965 b 336 1094 344 965 319 1004 l 240 1094 b 408 874 214 950 267 874 z "},"û":{"ha":636,"x_min":0,"x_max":0,"o":"m 382 0 l 488 0 l 628 800 l 497 800 l 404 271 b 264 104 385 164 340 104 b 179 261 182 104 163 165 l 274 800 l 143 800 l 49 264 b 210 -10 17 79 69 -10 b 392 131 292 -10 351 36 z m 476 875 l 586 875 l 476 1093 l 386 1093 l 203 875 l 317 875 l 418 1001 z "},"ü":{"ha":636,"x_min":0,"x_max":0,"o":"m 382 0 l 488 0 l 628 800 l 497 800 l 404 271 b 264 104 385 164 340 104 b 179 261 182 104 163 165 l 274 800 l 143 800 l 49 264 b 210 -10 17 79 69 -10 b 392 131 292 -10 351 36 z m 297 872 b 381 951 347 872 369 890 b 318 1035 390 1013 365 1035 b 235 956 267 1035 246 1018 b 297 872 224 894 247 872 z m 500 872 b 583 951 550 872 572 890 b 521 1035 593 1013 568 1035 b 438 956 469 1035 449 1018 b 500 872 426 894 450 872 z "},"ù":{"ha":636,"x_min":0,"x_max":0,"o":"m 382 0 l 488 0 l 628 800 l 497 800 l 404 271 b 264 104 385 164 340 104 b 179 261 182 104 163 165 l 274 800 l 143 800 l 49 264 b 210 -10 17 79 69 -10 b 392 131 292 -10 351 36 z m 347 875 l 446 875 l 357 1093 l 219 1093 z "},"ű":{"ha":636,"x_min":0,"x_max":0,"o":"m 382 0 l 488 0 l 628 800 l 497 800 l 404 271 b 264 104 385 164 340 104 b 179 261 182 104 163 165 l 274 800 l 143 800 l 49 264 b 210 -10 17 79 69 -10 b 392 131 292 -10 351 36 z m 549 1093 l 418 1093 l 254 875 l 346 875 z m 740 1093 l 608 1093 l 442 875 l 533 875 z "},"ū":{"ha":636,"x_min":0,"x_max":0,"o":"m 382 0 l 488 0 l 628 800 l 497 800 l 404 271 b 264 104 385 164 340 104 b 179 261 182 104 163 165 l 274 800 l 143 800 l 49 264 b 210 -10 17 79 69 -10 b 392 131 292 -10 351 36 z m 235 883 l 556 883 l 572 983 l 251 983 z "},"ų":{"ha":636,"x_min":0,"x_max":0,"o":"m 575 -132 l 460 -132 b 385 -186 446 -165 421 -186 b 333 -137 347 -186 328 -169 b 488 0 340 -97 374 -71 l 628 800 l 497 800 l 404 271 b 264 104 385 164 340 104 b 179 261 182 104 163 165 l 274 800 l 143 800 l 49 264 b 210 -10 17 79 69 -10 b 392 131 292 -10 351 36 l 383 26 b 233 -128 289 -25 247 -69 b 368 -271 218 -211 265 -271 b 575 -132 469 -271 532 -228 z "},"ů":{"ha":636,"x_min":0,"x_max":0,"o":"m 382 0 l 488 0 l 628 800 l 497 800 l 404 271 b 264 104 385 164 340 104 b 179 261 182 104 163 165 l 274 800 l 143 800 l 49 264 b 210 -10 17 79 69 -10 b 392 131 292 -10 351 36 z m 413 878 b 578 1013 494 878 563 922 b 438 1169 593 1097 536 1169 b 274 1036 358 1169 289 1118 b 413 878 257 946 310 878 z m 417 965 b 367 1026 383 965 360 992 b 432 1083 372 1064 399 1083 b 483 1021 467 1083 489 1058 b 417 965 476 983 451 965 z "},"ũ":{"ha":636,"x_min":0,"x_max":0,"o":"m 382 0 l 488 0 l 628 800 l 497 800 l 404 271 b 264 104 385 164 340 104 b 179 261 182 104 163 165 l 274 800 l 143 800 l 49 264 b 210 -10 17 79 69 -10 b 392 131 292 -10 351 36 z m 197 883 l 288 883 b 338 960 297 940 313 960 b 504 878 388 960 415 878 b 651 1051 600 878 633 944 l 563 1051 b 510 975 551 989 539 975 b 339 1057 464 975 425 1057 b 197 883 247 1057 218 993 z "},"ẃ":{"ha":875,"x_min":0,"x_max":0,"o":"m 435 504 l 475 650 l 463 507 l 486 0 l 610 0 l 928 800 l 801 800 l 604 278 l 561 131 l 568 281 l 540 800 l 460 800 l 242 282 l 193 138 l 207 279 l 211 800 l 86 800 l 93 0 l 222 0 z m 458 883 l 558 883 l 775 1101 l 636 1101 z "},"ŵ":{"ha":875,"x_min":0,"x_max":0,"o":"m 435 504 l 475 650 l 463 507 l 486 0 l 610 0 l 928 800 l 801 800 l 604 278 l 561 131 l 568 281 l 540 800 l 460 800 l 242 282 l 193 138 l 207 279 l 211 800 l 86 800 l 93 0 l 222 0 z m 592 883 l 701 883 l 592 1101 l 501 1101 l 318 883 l 432 883 l 533 1010 z "},"ẅ":{"ha":875,"x_min":0,"x_max":0,"o":"m 435 504 l 475 650 l 463 507 l 486 0 l 610 0 l 928 800 l 801 800 l 604 278 l 561 131 l 568 281 l 540 800 l 460 800 l 242 282 l 193 138 l 207 279 l 211 800 l 86 800 l 93 0 l 222 0 z m 413 881 b 496 960 463 881 485 899 b 433 1043 506 1021 481 1043 b 350 964 382 1043 361 1026 b 413 881 339 903 363 881 z m 615 881 b 699 960 665 881 688 899 b 636 1043 708 1021 683 1043 b 553 964 585 1043 564 1026 b 615 881 542 903 565 881 z "},"ẁ":{"ha":875,"x_min":0,"x_max":0,"o":"m 435 504 l 475 650 l 463 507 l 486 0 l 610 0 l 928 800 l 801 800 l 604 278 l 561 131 l 568 281 l 540 800 l 460 800 l 242 282 l 193 138 l 207 279 l 211 800 l 86 800 l 93 0 l 222 0 z m 461 883 l 560 883 l 471 1101 l 333 1101 z "},"ý":{"ha":593,"x_min":0,"x_max":0,"o":"m 7 -235 b 272 -43 158 -235 201 -204 l 646 800 l 513 800 l 289 258 l 257 146 l 264 253 l 221 800 l 90 800 l 174 15 l 156 -26 b 21 -112 122 -103 100 -112 l -40 -112 l -61 -235 z m 326 871 l 426 871 l 643 1089 l 504 1089 z "},"ŷ":{"ha":593,"x_min":0,"x_max":0,"o":"m 7 -235 b 272 -43 158 -235 201 -204 l 646 800 l 513 800 l 289 258 l 257 146 l 264 253 l 221 800 l 90 800 l 174 15 l 156 -26 b 21 -112 122 -103 100 -112 l -40 -112 l -61 -235 z m 463 876 l 572 876 l 463 1094 l 372 1094 l 189 876 l 303 876 l 404 1003 z "},"ÿ":{"ha":593,"x_min":0,"x_max":0,"o":"m 7 -235 b 272 -43 158 -235 201 -204 l 646 800 l 513 800 l 289 258 l 257 146 l 264 253 l 221 800 l 90 800 l 174 15 l 156 -26 b 21 -112 122 -103 100 -112 l -40 -112 l -61 -235 z m 283 874 b 367 953 333 874 356 892 b 304 1036 376 1014 351 1036 b 221 957 253 1036 232 1019 b 283 874 210 896 233 874 z m 486 874 b 569 953 536 874 558 892 b 507 1036 579 1014 554 1036 b 424 957 456 1036 435 1019 b 486 874 413 896 436 874 z "},"ỳ":{"ha":593,"x_min":0,"x_max":0,"o":"m 7 -235 b 272 -43 158 -235 201 -204 l 646 800 l 513 800 l 289 258 l 257 146 l 264 253 l 221 800 l 90 800 l 174 15 l 156 -26 b 21 -112 122 -103 100 -112 l -40 -112 l -61 -235 z m 333 876 l 432 876 l 343 1094 l 206 1094 z "},"ĳ":{"ha":567,"x_min":0,"x_max":0,"o":"m 517 869 b 613 960 574 869 600 890 b 543 1056 625 1031 601 1056 b 446 965 485 1056 458 1036 b 517 869 433 894 454 869 z m 233 869 b 329 960 290 869 317 890 b 260 1056 342 1031 318 1056 b 163 965 201 1056 175 1036 b 233 869 150 894 171 869 z m 174 -247 b 408 -42 335 -247 381 -203 l 557 801 l 429 801 l 283 -28 b 185 -124 269 -110 253 -124 l -10 -124 l -32 -247 z m 138 0 l 278 800 l 149 800 l 8 0 z "},"ź":{"ha":531,"x_min":0,"x_max":0,"o":"m -31 -1 l 422 0 l 443 119 l 147 119 l 542 693 l 561 800 l 129 800 l 108 683 l 392 683 l -12 101 z m 310 883 l 410 883 l 626 1101 l 488 1101 z "},"ž":{"ha":531,"x_min":0,"x_max":0,"o":"m -31 -1 l 422 0 l 443 119 l 147 119 l 542 693 l 561 800 l 129 800 l 108 683 l 392 683 l -12 101 z m 403 883 l 585 1101 l 474 1101 l 372 979 l 315 1101 l 204 1101 l 313 883 z "},"ż":{"ha":531,"x_min":0,"x_max":0,"o":"m -31 -1 l 422 0 l 443 119 l 147 119 l 542 693 l 561 800 l 129 800 l 108 683 l 392 683 l -12 101 z m 363 879 b 457 969 419 879 444 900 b 386 1065 469 1040 440 1065 b 290 975 328 1065 303 1046 b 363 879 278 904 304 879 z "},"þ":{"ha":661,"x_min":0,"x_max":0,"o":"m 296 107 b 181 281 200 107 161 174 l 226 536 b 374 699 243 631 288 699 b 485 504 461 699 510 643 l 446 283 b 296 107 425 168 381 107 z m 325 -11 b 578 279 456 -11 544 88 l 618 507 b 431 811 656 715 561 811 b 257 708 351 811 294 771 l 313 1024 l 188 1024 l -39 -264 l 86 -264 l 154 122 b 325 -11 165 33 222 -11 z "},"ª":{"ha":482,"x_min":0,"x_max":0,"o":"m 257 521 b 201 592 215 521 194 547 b 232 651 207 618 215 636 b 304 685 247 665 271 675 b 375 722 344 697 364 707 l 358 632 b 349 593 356 618 353 603 b 257 521 332 550 299 521 z m 468 438 l 492 438 l 513 544 l 510 544 b 463 603 463 544 453 553 l 501 821 b 333 1003 524 950 447 1003 b 126 843 219 1003 146 946 l 117 788 l 235 788 l 243 833 b 328 904 253 885 276 904 b 393 843 378 904 400 885 b 274 756 386 803 361 779 b 124 690 207 738 157 719 b 74 596 97 668 82 639 l 72 590 b 188 431 51 492 96 431 b 344 508 253 431 310 451 b 468 438 357 458 403 438 z "},"º":{"ha":489,"x_min":0,"x_max":0,"o":"m 264 431 b 468 599 382 431 450 490 l 503 797 b 331 1003 525 924 458 1003 b 129 836 222 1003 149 943 l 96 643 b 264 431 74 519 125 431 z m 275 538 b 208 638 221 538 197 576 l 238 813 b 326 900 249 871 275 900 b 393 800 378 900 406 867 l 364 629 b 275 538 354 571 329 538 z "},"&":{"ha":824,"x_min":0,"x_max":0,"o":"m 372 772 l 374 779 b 479 903 388 858 419 903 b 553 807 535 903 563 865 b 368 588 536 713 481 654 b 372 772 360 656 363 717 z m 279 97 b 142 249 175 97 126 164 l 143 257 b 283 435 158 339 206 383 b 318 319 293 397 304 358 b 408 125 346 240 375 175 b 279 97 369 107 326 97 z m 621 -11 b 722 18 669 -11 697 -4 l 743 138 b 647 101 717 113 690 101 b 578 122 625 101 601 108 b 797 601 682 225 764 386 l 803 633 l 685 633 l 679 601 b 504 194 647 422 589 281 b 422 363 475 235 447 290 b 386 485 407 406 396 446 b 663 789 544 575 639 658 l 664 796 b 486 1003 685 917 614 1003 b 258 778 360 1003 283 918 l 257 768 b 261 539 244 699 247 621 b 18 267 133 464 39 388 l 17 260 b 267 -14 -11 94 79 -14 b 476 44 339 -14 410 6 b 621 -11 519 7 567 -11 z "},"´":{"ha":589,"x_min":0,"x_max":0,"o":"m 297 883 l 397 883 l 614 1101 l 475 1101 z "},"˘":{"ha":589,"x_min":0,"x_max":0,"o":"m 388 882 b 615 1103 531 882 589 960 l 518 1103 b 396 972 501 1013 471 974 b 315 1103 324 974 299 1013 l 219 1103 b 388 882 193 958 246 882 z "},"ˇ":{"ha":589,"x_min":0,"x_max":0,"o":"m 424 883 l 606 1101 l 494 1101 l 393 979 l 336 1101 l 225 1101 l 333 883 z "},"¸":{"ha":589,"x_min":0,"x_max":0,"o":"m 172 -322 b 364 -196 283 -322 350 -274 b 246 -62 378 -114 338 -65 l 258 8 l 164 8 l 138 -136 l 192 -136 b 263 -190 249 -136 269 -156 b 179 -240 257 -221 229 -240 b 108 -178 131 -240 106 -218 l -4 -178 b 172 -322 -1 -269 40 -322 z "},"ˆ":{"ha":589,"x_min":0,"x_max":0,"o":"m 461 883 l 571 883 l 461 1101 l 371 1101 l 188 883 l 301 883 l 403 1010 z "},"¨":{"ha":594,"x_min":0,"x_max":0,"o":"m 283 881 b 367 960 333 881 356 899 b 304 1043 376 1021 351 1043 b 221 964 253 1043 232 1026 b 283 881 210 903 233 881 z m 486 881 b 569 960 536 881 558 899 b 507 1043 579 1021 554 1043 b 424 964 456 1043 435 1026 b 486 881 413 903 436 881 z "},"˙":{"ha":593,"x_min":0,"x_max":0,"o":"m 374 879 b 468 969 431 879 456 900 b 397 1065 481 1040 451 1065 b 301 975 339 1065 314 1046 b 374 879 289 904 315 879 z "},"`":{"ha":589,"x_min":0,"x_max":0,"o":"m 393 883 l 492 883 l 403 1101 l 265 1101 z "},"˝":{"ha":589,"x_min":0,"x_max":0,"o":"m 456 1101 l 325 1101 l 161 883 l 253 883 z m 647 1101 l 515 1101 l 349 883 l 440 883 z "},"¯":{"ha":589,"x_min":0,"x_max":0,"o":"m 221 892 l 542 892 l 558 992 l 238 992 z "},"˛":{"ha":589,"x_min":0,"x_max":0,"o":"m 175 -271 b 382 -132 276 -271 339 -228 l 267 -132 b 192 -186 253 -165 228 -186 b 140 -137 154 -186 135 -169 b 294 0 147 -97 181 -71 l 224 43 b 40 -128 106 -15 56 -62 b 175 -271 25 -211 72 -271 z "},"˚":{"ha":589,"x_min":0,"x_max":0,"o":"m 392 889 b 557 1024 474 889 542 933 b 417 1181 572 1108 515 1181 b 253 1047 338 1181 268 1129 b 392 889 236 957 289 889 z m 396 976 b 346 1038 363 976 339 1003 b 411 1094 351 1075 378 1094 b 463 1032 446 1094 468 1069 b 396 976 456 994 431 976 z "},"˜":{"ha":589,"x_min":0,"x_max":0,"o":"m 169 886 l 260 886 b 310 963 269 943 285 963 b 476 881 360 963 388 881 b 624 1054 572 881 606 947 l 535 1054 b 482 978 524 992 511 978 b 311 1060 436 978 397 1060 b 169 886 219 1060 190 996 z "},".":{"ha":343,"x_min":0,"x_max":0,"o":"m 103 -12 b 203 83 164 -12 190 10 b 131 185 217 154 192 185 b 29 89 68 185 42 160 b 103 -12 15 14 42 -12 z "},",":{"ha":343,"x_min":0,"x_max":0,"o":"m -6 -174 b 197 51 110 -151 175 -72 b 131 175 217 144 192 175 b 31 79 69 175 43 150 b 83 -8 18 14 42 -8 b 104 -6 90 -8 97 -7 b 7 -100 89 -58 56 -89 z "},":":{"ha":347,"x_min":0,"x_max":0,"o":"m 200 531 b 300 626 261 531 288 553 b 228 728 314 697 289 728 b 126 632 165 728 139 703 b 200 531 113 557 139 531 z m 113 33 b 213 129 174 33 200 56 b 140 231 226 200 201 231 b 39 135 78 231 51 206 b 113 33 25 60 51 33 z "},";":{"ha":347,"x_min":0,"x_max":0,"o":"m 200 531 b 300 626 261 531 288 553 b 228 728 314 697 289 728 b 126 632 165 728 139 703 b 200 531 113 557 139 531 z m -3 -174 b 200 51 113 -151 178 -72 b 133 175 219 144 194 175 b 33 79 72 175 46 150 b 86 -8 21 14 44 -8 b 107 -6 93 -8 100 -7 b 10 -100 92 -58 58 -89 z "},"…":{"ha":844,"x_min":0,"x_max":0,"o":"m 607 -12 b 703 83 668 -12 690 10 b 635 185 717 154 696 185 b 538 89 572 185 550 160 b 607 -12 524 14 546 -12 z m 354 -12 b 450 83 415 -12 438 10 b 382 185 464 154 443 185 b 285 89 319 185 297 160 b 354 -12 271 14 293 -12 z m 99 -12 b 194 83 160 -12 182 10 b 126 185 208 154 188 185 b 29 89 64 185 42 160 b 99 -12 15 14 38 -12 z "},"!":{"ha":354,"x_min":0,"x_max":0,"o":"m 100 239 b 149 244 110 242 128 244 b 194 239 169 244 183 242 b 307 753 204 265 272 553 l 349 990 l 210 990 l 168 753 b 100 239 133 553 99 265 z m 106 -12 b 206 83 167 -12 193 10 b 133 185 219 154 194 185 b 32 89 71 185 44 160 b 106 -12 18 14 44 -12 z "},"¡":{"ha":354,"x_min":0,"x_max":0,"o":"m 219 621 b 319 717 281 621 307 643 b 247 818 333 788 308 818 b 146 722 185 818 158 793 b 219 621 132 647 158 621 z m 3 -187 l 142 -187 l 183 51 b 251 565 218 251 253 539 b 204 560 242 563 225 560 b 157 565 183 560 168 563 b 44 51 147 539 79 251 z "},"?":{"ha":631,"x_min":0,"x_max":0,"o":"m 332 235 l 347 310 b 471 456 363 388 415 419 b 621 665 533 497 600 543 l 635 742 b 404 1001 658 903 578 1001 b 125 783 243 1001 151 926 l 94 618 l 232 618 l 257 760 b 396 883 271 840 311 883 b 501 754 486 883 513 822 l 488 676 b 372 539 475 604 426 574 b 221 338 313 499 246 456 l 213 299 b 204 235 207 275 206 246 b 272 249 215 243 240 249 b 332 235 304 249 324 243 z m 229 -12 b 329 83 290 -12 317 10 b 257 185 343 154 318 185 b 156 89 194 185 168 160 b 229 -12 142 14 168 -12 z "},"¿":{"ha":631,"x_min":0,"x_max":0,"o":"m 404 815 b 304 719 343 815 317 793 b 376 618 290 649 315 618 b 478 714 439 618 465 643 b 404 815 492 789 465 815 z m 301 568 l 286 493 b 163 347 271 415 218 383 b 13 138 100 306 33 260 l -1 61 b 229 -199 -25 -100 56 -199 b 508 19 390 -199 482 -124 l 539 185 l 401 185 l 376 43 b 238 -81 363 -37 322 -81 b 132 49 147 -81 121 -19 l 146 126 b 261 264 158 199 207 229 b 413 465 321 304 388 347 l 421 504 b 429 568 426 528 428 557 b 361 554 418 560 393 554 b 301 568 329 554 310 560 z "},"‽":{"ha":668,"x_min":0,"x_max":0,"o":"m 446 753 l 469 892 b 539 768 529 875 549 831 l 522 676 b 411 510 506 576 460 571 b 386 475 403 500 394 489 b 446 753 411 569 433 678 z m 304 246 b 349 239 326 246 339 243 l 360 294 b 493 457 375 374 433 413 b 649 682 558 506 628 561 l 661 753 b 415 1004 685 919 586 1004 b 126 781 247 1004 154 929 l 96 611 l 222 611 l 249 761 b 358 896 263 839 293 882 l 333 753 b 265 339 310 618 281 444 b 254 238 256 281 254 253 b 304 246 264 243 281 246 z m 263 -12 b 363 83 324 -12 350 10 b 290 185 376 154 351 185 b 189 89 228 185 201 160 b 263 -12 175 14 201 -12 z "},"⸘":{"ha":668,"x_min":0,"x_max":0,"o":"m 403 810 b 303 714 342 810 315 788 b 375 613 289 643 314 613 b 476 708 438 613 464 638 b 403 810 490 783 464 810 z m 250 -207 b 539 17 418 -207 511 -132 l 569 186 l 443 186 l 417 36 b 307 -99 403 -42 372 -85 l 332 44 b 400 458 356 179 385 353 b 411 560 410 517 411 544 b 361 551 401 554 385 551 b 317 558 339 551 326 554 l 306 503 b 172 340 290 424 232 385 b 17 115 107 292 38 236 l 4 44 b 250 -207 -19 -122 79 -207 z m 126 29 l 143 121 b 254 288 160 221 206 226 b 279 322 263 297 271 308 b 219 44 254 228 232 119 l 196 -94 b 126 29 136 -78 117 -33 z "},"‘":{"ha":318,"x_min":0,"x_max":0,"o":"m 210 683 b 303 772 267 683 292 707 b 254 853 314 832 292 853 b 235 850 247 853 242 851 b 325 938 249 899 281 928 l 336 1006 b 149 797 229 985 169 913 b 210 683 131 711 154 683 z "},"’":{"ha":318,"x_min":0,"x_max":0,"o":"m 136 681 b 324 889 243 701 303 774 b 263 1003 342 975 318 1003 b 169 914 206 1003 181 979 b 218 833 158 854 181 833 b 238 836 225 833 231 835 b 147 749 224 788 192 758 z "},"“":{"ha":544,"x_min":0,"x_max":0,"o":"m 436 683 b 529 772 493 683 518 707 b 481 853 540 832 518 853 b 461 850 474 853 468 851 b 551 938 475 899 507 928 l 563 1006 b 375 797 456 985 396 913 b 436 683 357 711 381 683 z m 210 683 b 303 772 267 683 292 707 b 254 853 314 832 292 853 b 235 850 247 853 242 851 b 325 938 249 899 281 928 l 336 1006 b 149 797 229 985 169 913 b 210 683 131 711 154 683 z "},"”":{"ha":544,"x_min":0,"x_max":0,"o":"m 136 681 b 324 889 243 701 303 774 b 263 1003 342 975 318 1003 b 169 914 206 1003 181 979 b 218 833 158 854 181 833 b 238 836 225 833 231 835 b 147 749 224 788 192 758 z m 363 681 b 550 889 469 701 529 774 b 489 1003 568 975 544 1003 b 396 914 432 1003 407 979 b 444 833 385 854 407 833 b 464 836 451 833 457 835 b 374 749 450 788 418 758 z "},"‚":{"ha":333,"x_min":0,"x_max":0,"o":"m -6 -154 b 182 54 101 -133 161 -61 b 121 168 200 140 176 168 b 28 79 64 168 39 144 b 76 -1 17 19 39 -1 b 96 1 83 -1 89 0 b 6 -86 82 -47 50 -76 z "},"„":{"ha":544,"x_min":0,"x_max":0,"o":"m 215 -154 b 403 54 322 -133 382 -61 b 342 168 421 140 397 168 b 249 79 285 168 260 144 b 297 -1 238 19 260 -1 b 317 1 304 -1 310 0 b 226 -86 303 -47 271 -76 z m -11 -154 b 176 54 96 -133 156 -61 b 115 168 194 140 171 168 b 22 79 58 168 33 144 b 71 -1 11 19 33 -1 b 90 1 78 -1 83 0 b 0 -86 76 -47 44 -76 z "},"‛":{"ha":318,"x_min":0,"x_max":0,"o":"m 288 744 b 228 836 240 750 222 776 b 249 832 233 833 240 832 b 328 908 293 832 315 839 b 264 1003 339 976 319 1003 b 164 883 204 1003 181 975 b 276 681 144 772 181 688 z "},"‟":{"ha":544,"x_min":0,"x_max":0,"o":"m 288 744 b 228 836 240 750 222 776 b 249 832 233 833 240 832 b 328 908 293 832 315 839 b 264 1003 339 976 319 1003 b 164 883 204 1003 181 975 b 276 681 144 772 181 688 z m 514 744 b 454 836 467 750 449 776 b 475 832 460 833 467 832 b 554 908 519 832 542 839 b 490 1003 565 976 546 1003 b 390 883 431 1003 407 975 b 503 681 371 772 407 688 z "},"‹":{"ha":431,"x_min":0,"x_max":0,"o":"m 324 157 l 199 408 l 419 683 l 292 683 l 86 422 l 83 408 l 206 157 z "},"›":{"ha":431,"x_min":0,"x_max":0,"o":"m 144 157 l 350 418 l 353 432 l 231 683 l 113 683 l 238 432 l 17 157 z "},"«":{"ha":654,"x_min":0,"x_max":0,"o":"m 558 157 l 428 410 l 651 685 l 528 685 l 317 421 l 314 407 l 440 157 z m 324 157 l 194 419 l 408 685 l 286 685 l 83 431 l 82 419 l 206 157 z "},"»":{"ha":654,"x_min":0,"x_max":0,"o":"m 138 157 l 349 421 l 351 435 l 225 685 l 107 685 l 238 432 l 14 157 z m 379 157 l 582 411 l 583 422 l 460 685 l 342 685 l 471 422 l 257 157 z "},"/":{"ha":422,"x_min":0,"x_max":0,"o":"m -40 0 l 94 0 l 496 990 l 363 990 z "},"\\":{"ha":422,"x_min":0,"x_max":0,"o":"m 136 990 l 186 0 l 318 0 l 268 990 z "},"|":{"ha":300,"x_min":0,"x_max":0,"o":"m 129 -86 l 333 1076 l 203 1076 l -1 -86 z "},"‖":{"ha":568,"x_min":0,"x_max":0,"o":"m 267 -86 l 397 -86 l 601 1076 l 471 1076 z m -1 -86 l 129 -86 l 333 1076 l 203 1076 z "},"¦":{"ha":300,"x_min":0,"x_max":0,"o":"m 111 556 l 242 556 l 333 1076 l 203 1076 z m 93 453 l -1 -86 l 129 -86 l 224 453 z "},"•":{"ha":368,"x_min":0,"x_max":0,"o":"m 169 293 b 292 397 236 293 278 318 b 199 508 307 475 265 508 b 75 404 131 508 89 481 b 169 293 60 322 103 293 z "},"·":{"ha":343,"x_min":0,"x_max":0,"o":"m 160 317 b 260 413 221 317 247 339 b 188 514 274 483 249 514 b 86 418 125 514 99 489 b 160 317 72 343 99 317 z "},"-":{"ha":549,"x_min":0,"x_max":0,"o":"m 54 350 l 476 350 l 499 479 l 76 479 z "},"­":{"ha":549,"x_min":0,"x_max":0,"o":"m 54 350 l 476 350 l 499 479 l 76 479 z "},"–":{"ha":518,"x_min":0,"x_max":0,"o":"m 54 350 l 444 350 l 467 479 l 76 479 z "},"—":{"ha":699,"x_min":0,"x_max":0,"o":"m 54 350 l 625 350 l 647 479 l 76 479 z "},"‒":{"ha":719,"x_min":0,"x_max":0,"o":"m 54 350 l 646 350 l 668 479 l 76 479 z "},"―":{"ha":893,"x_min":0,"x_max":0,"o":"m 54 350 l 819 350 l 842 479 l 76 479 z "},"(":{"ha":443,"x_min":0,"x_max":0,"o":"m 288 -228 l 310 -101 b 179 189 193 -94 144 -11 l 253 601 b 485 894 289 804 364 885 l 507 1018 b 121 628 304 1008 171 913 l 47 206 b 288 -228 -4 -81 88 -219 z "},")":{"ha":443,"x_min":0,"x_max":0,"o":"m -68 -228 b 318 163 135 -218 268 -122 l 392 585 b 151 1018 443 871 351 1010 l 129 892 b 260 601 246 885 294 801 l 186 189 b -46 -104 150 -14 75 -94 z "},"[":{"ha":431,"x_min":0,"x_max":0,"o":"m 293 -114 l 133 -114 l 313 903 l 472 903 l 492 1015 l 201 1015 l -17 -226 l 274 -226 z "},"]":{"ha":431,"x_min":0,"x_max":0,"o":"m 226 -226 l 444 1015 l 154 1015 l 135 903 l 294 903 l 115 -114 l -44 -114 l -64 -226 z "},"{":{"ha":451,"x_min":0,"x_max":0,"o":"m 294 -226 l 313 -119 l 263 -119 b 172 -26 185 -119 161 -89 b 290 264 186 53 275 174 b 186 401 304 340 265 401 l 188 408 b 338 539 272 410 322 456 b 322 817 353 629 308 739 b 444 910 333 878 367 910 l 494 910 l 514 1017 l 403 1017 b 193 836 267 1017 211 935 b 207 556 175 732 221 632 b 104 467 196 493 165 467 l 56 467 l 33 343 l 86 343 b 158 247 144 343 171 315 b 39 -24 144 172 57 82 b 182 -226 21 -126 47 -226 z "},"}":{"ha":451,"x_min":0,"x_max":0,"o":"m -65 -226 l 46 -226 b 256 -46 182 -226 238 -144 b 242 235 274 58 228 158 b 344 324 253 297 283 324 l 393 324 l 415 447 l 363 447 b 290 543 304 447 278 475 b 410 814 304 618 392 708 b 267 1017 428 917 401 1017 l 154 1017 l 136 910 l 186 910 b 276 817 264 910 288 879 b 158 526 263 738 174 617 b 263 389 144 450 183 389 l 261 382 b 111 251 176 381 126 335 b 126 -26 96 161 140 51 b 4 -119 115 -87 82 -119 l -46 -119 z "},"〈":{"ha":407,"x_min":0,"x_max":0,"o":"m 272 -226 l 190 393 l 485 1015 l 344 1015 l 53 399 l 135 -226 z "},"〉":{"ha":407,"x_min":0,"x_max":0,"o":"m 61 -226 l 353 390 l 271 1015 l 133 1015 l 215 396 l -79 -226 z "},"*":{"ha":507,"x_min":0,"x_max":0,"o":"m 451 696 l 521 789 l 351 842 l 539 896 l 501 989 l 347 863 l 421 1042 l 313 1042 l 324 861 l 211 988 l 140 894 l 308 842 l 122 789 l 160 696 l 317 822 l 242 643 l 350 643 l 340 821 z "},"†":{"ha":532,"x_min":0,"x_max":0,"o":"m 521 661 l 544 790 l 397 790 l 447 1076 l 319 1076 l 269 790 l 124 790 l 100 661 l 246 661 l 115 -86 l 243 -86 l 374 661 z "},"‡":{"ha":532,"x_min":0,"x_max":0,"o":"m 444 228 l 468 357 l 321 357 l 375 664 l 522 664 l 544 793 l 397 793 l 447 1076 l 319 1076 l 269 793 l 124 793 l 101 664 l 247 664 l 193 357 l 47 357 l 24 228 l 171 228 l 115 -86 l 243 -86 l 299 228 z "},"§":{"ha":628,"x_min":0,"x_max":0,"o":"m 333 444 b 181 585 222 499 172 536 l 182 593 b 231 657 188 622 211 649 b 342 589 264 629 306 608 b 486 442 419 549 496 514 l 485 432 b 451 368 482 407 468 385 b 333 444 421 397 381 422 z m 253 -12 b 514 188 403 -12 493 42 l 515 197 b 483 332 524 250 511 294 b 613 426 543 339 604 368 l 614 436 b 449 671 628 533 588 603 b 285 819 369 710 272 746 l 286 828 b 401 906 294 878 332 906 b 499 778 475 906 514 865 l 493 742 l 621 742 l 626 778 b 406 1015 650 917 575 1015 b 161 838 275 1015 182 956 l 158 822 b 193 692 149 768 165 726 b 57 600 125 689 65 647 l 54 585 b 229 361 35 475 100 432 b 388 203 338 307 399 279 l 386 193 b 263 101 378 131 343 101 b 153 232 181 101 138 146 l 163 289 l 26 289 l 19 249 b 253 -12 -12 86 74 -12 z "},"¶":{"ha":799,"x_min":0,"x_max":0,"o":"m 422 0 l 576 881 l 676 881 l 521 0 l 644 0 l 818 990 l 447 990 b 104 711 251 990 136 896 b 343 400 71 532 165 399 l 369 400 l 299 0 z m 365 513 b 232 697 263 513 210 576 b 428 881 253 828 318 881 l 454 881 l 389 513 z "},"^":{"ha":624,"x_min":0,"x_max":0,"o":"m 458 611 l 571 611 l 460 990 l 365 990 l 125 611 l 246 611 l 396 868 z "},"~":{"ha":618,"x_min":0,"x_max":0,"o":"m 156 754 l 246 754 b 296 831 256 811 271 831 b 463 749 346 831 374 749 b 610 922 558 749 592 815 l 521 922 b 468 846 510 860 497 846 b 297 928 422 846 383 928 b 156 754 206 928 176 864 z "},"_":{"ha":653,"x_min":0,"x_max":0,"o":"m -57 -190 l 499 -190 l 521 -64 l -35 -64 z "},"'":{"ha":251,"x_min":0,"x_max":0,"o":"m 133 664 l 207 664 b 283 965 226 717 261 840 l 288 990 l 169 990 l 165 965 b 133 664 143 840 131 715 z "},"\"":{"ha":447,"x_min":0,"x_max":0,"o":"m 329 664 l 403 664 b 479 965 422 717 457 840 l 483 990 l 365 990 l 361 965 b 329 664 339 840 326 717 z m 133 664 l 207 664 b 283 965 226 717 261 840 l 288 990 l 169 990 l 165 965 b 133 664 143 840 131 717 z "},"‴":{"ha":643,"x_min":0,"x_max":0,"o":"m 524 664 l 599 664 b 675 965 618 717 653 840 l 679 990 l 561 990 l 557 965 b 524 664 535 840 521 717 z m 329 664 l 404 664 b 479 965 424 717 457 840 l 483 990 l 365 990 l 361 965 b 329 664 339 840 326 717 z m 133 664 l 208 664 b 283 965 228 717 261 840 l 288 990 l 169 990 l 165 965 b 133 664 143 840 131 717 z "},"@":{"ha":883,"x_min":0,"x_max":0,"o":"m 354 -176 b 660 -35 474 -176 583 -128 l 546 7 b 357 -71 494 -44 446 -71 b 139 226 186 -71 104 26 b 196 549 139 226 186 494 b 518 851 231 743 349 851 b 743 574 706 851 772 742 l 692 282 b 614 138 674 176 650 138 b 581 222 578 138 569 160 b 671 733 582 232 671 733 l 604 733 l 571 656 b 468 742 564 707 533 742 b 288 540 379 742 313 679 l 233 236 b 356 39 211 103 256 39 b 479 124 419 39 457 69 b 604 44 494 72 540 44 b 797 279 710 44 768 118 l 850 579 b 524 957 889 801 764 957 b 92 556 297 957 136 810 l 32 218 b 354 -176 -15 -53 126 -176 z m 390 132 b 343 244 339 132 328 163 l 393 532 b 482 650 408 618 435 650 b 529 529 533 650 544 615 l 479 246 b 390 132 464 165 440 132 z "},"©":{"ha":865,"x_min":0,"x_max":0,"o":"m 389 -14 b 796 382 593 -14 744 83 l 831 578 b 507 1001 885 885 711 1001 b 100 610 303 1001 151 908 l 65 410 b 389 -14 13 103 185 -14 z m 397 81 b 160 396 246 81 119 169 l 199 615 b 499 907 238 836 349 907 b 736 594 650 907 776 821 l 697 372 b 397 81 658 151 547 81 z m 408 161 b 611 365 532 161 589 229 l 622 428 l 524 428 l 514 369 b 417 253 497 275 469 253 b 344 375 356 253 328 285 l 390 635 b 489 743 406 717 436 743 b 561 644 549 743 575 715 l 550 575 l 649 575 l 660 642 b 500 833 682 765 610 833 b 293 633 389 833 319 779 l 249 379 b 408 161 225 249 271 161 z "},"®":{"ha":567,"x_min":0,"x_max":0,"o":"m 311 521 b 568 739 444 521 542 589 l 574 768 b 379 1008 599 913 506 1008 b 122 783 249 1008 149 931 l 118 757 b 311 521 90 604 182 521 z m 317 579 b 176 756 213 579 157 646 l 178 771 b 376 947 199 890 269 947 b 514 769 479 947 535 879 l 511 753 b 317 579 492 633 422 579 z m 363 846 b 403 807 396 846 408 831 b 350 771 399 782 381 771 l 308 771 l 321 846 z m 338 725 b 374 686 369 725 378 715 b 367 646 372 683 368 654 b 369 632 365 640 367 635 l 428 632 b 424 646 424 635 422 639 l 431 686 b 408 749 436 722 431 740 b 460 806 436 757 454 775 b 374 896 468 854 443 896 l 274 896 l 228 632 l 283 632 l 300 725 z "},"℗":{"ha":864,"x_min":0,"x_max":0,"o":"m 386 -14 b 796 382 590 -14 744 83 l 831 578 b 507 1001 885 885 711 1001 b 100 610 303 1001 151 908 l 65 410 b 386 -14 13 103 182 -14 z m 394 81 b 160 396 243 81 119 169 l 199 615 b 499 907 238 836 349 907 b 736 594 650 907 776 821 l 697 372 b 394 81 658 151 544 81 z m 493 736 b 560 663 550 736 568 715 l 536 535 b 447 460 528 482 501 460 l 392 460 l 440 736 z m 439 374 b 631 529 553 374 614 433 l 656 672 b 513 819 672 769 629 819 l 363 819 l 247 168 l 340 168 l 376 374 z "},"™":{"ha":686,"x_min":0,"x_max":0,"o":"m 354 917 l 367 990 l 139 990 l 126 917 l 200 917 l 139 568 l 217 568 l 278 917 z m 446 760 l 457 888 l 467 792 l 504 676 l 515 676 l 593 792 l 638 888 l 603 760 l 569 568 l 643 568 l 717 990 l 650 990 l 532 801 l 479 990 l 414 990 l 340 568 l 413 568 z "},"℠":{"ha":703,"x_min":0,"x_max":0,"o":"m 475 760 l 486 888 l 496 792 l 533 676 l 544 676 l 622 792 l 667 888 l 632 760 l 599 568 l 672 568 l 746 990 l 679 990 l 561 801 l 508 990 l 443 990 l 369 568 l 442 568 z m 197 564 b 333 678 276 564 319 604 b 265 815 349 760 306 792 b 207 892 231 833 200 851 b 256 936 213 919 226 936 b 286 885 285 936 292 913 l 281 854 l 360 854 l 367 892 b 258 1000 376 949 344 1000 b 129 893 183 1000 142 957 b 199 764 115 825 153 790 b 257 682 232 744 265 728 b 206 633 251 650 236 633 b 168 688 167 633 163 657 l 175 728 l 93 728 l 85 683 b 197 564 69 608 107 564 z "},"€":{"ha":694,"x_min":0,"x_max":0,"o":"m 650 294 l 653 311 l 514 311 l 513 301 b 360 108 488 151 442 108 b 236 310 276 108 208 153 l 244 358 l 454 358 l 507 453 l 261 453 l 278 549 l 556 549 l 610 643 l 296 643 l 306 701 b 471 885 329 839 383 885 b 585 715 572 885 607 831 l 582 701 l 721 701 l 722 708 b 481 1003 756 897 660 1003 b 174 700 319 1003 213 921 b 164 643 174 700 169 678 l 76 643 l 60 549 l 147 549 b 131 453 142 517 136 483 l 43 453 l 26 358 l 114 358 b 106 315 108 332 106 315 b 347 -14 69 118 140 -14 b 650 294 535 -14 615 89 z "},"$":{"ha":625,"x_min":0,"x_max":0,"o":"m 282 -157 l 307 -12 b 549 229 457 0 525 85 l 553 256 b 394 543 581 419 486 485 b 251 751 313 594 232 643 l 256 779 b 388 893 269 854 314 893 b 496 753 478 893 511 842 l 479 658 l 611 658 l 628 756 b 492 992 646 865 601 958 l 519 1151 l 394 1151 l 368 1004 b 128 793 243 996 149 918 l 122 761 b 285 464 92 590 193 521 b 424 260 365 413 442 365 l 419 232 b 276 104 407 158 371 104 b 156 258 186 104 138 154 l 175 371 l 42 371 l 22 271 b 182 -6 -7 122 54 24 l 156 -157 z "},"¢":{"ha":633,"x_min":0,"x_max":0,"o":"m 547 225 l 568 329 l 431 329 l 417 256 b 278 104 401 160 364 104 b 168 268 183 104 150 168 l 217 544 b 361 697 235 649 281 697 b 467 536 449 697 488 649 l 457 478 l 594 478 l 601 519 b 460 800 628 667 576 767 l 486 949 l 363 949 l 338 810 b 89 564 207 799 117 714 l 42 293 b 192 -4 15 140 53 25 l 165 -157 l 290 -157 l 317 -10 b 547 225 450 4 524 88 z "},"£":{"ha":693,"x_min":0,"x_max":0,"o":"m 406 -21 b 619 211 538 -21 590 44 l 629 263 l 492 263 l 486 229 b 396 97 468 129 446 97 b 292 139 360 97 326 115 b 318 224 304 165 313 193 b 329 399 329 288 331 344 l 482 399 l 500 501 l 322 501 b 317 772 313 592 299 672 b 429 888 329 846 367 888 b 508 776 499 888 522 843 l 499 721 l 639 722 l 646 764 b 440 1006 671 917 596 1006 b 179 785 297 1006 204 921 b 197 501 160 675 182 583 l 86 501 l 68 399 l 215 399 b 221 214 226 338 232 278 b 215 188 219 204 217 196 b 106 219 182 206 147 219 b -36 110 31 219 -24 175 b 83 -21 -50 39 -14 -21 b 235 51 139 -21 193 7 b 406 -21 279 15 332 -21 z m 100 65 b 61 100 72 65 58 79 b 106 135 65 121 81 135 b 175 103 129 135 151 122 b 100 65 154 78 129 65 z "},"ƒ":{"ha":424,"x_min":0,"x_max":0,"o":"m 201 1 l 279 439 l 408 439 l 429 556 l 300 556 l 354 861 b 461 978 371 958 389 978 l 504 978 l 524 1090 l 463 1090 b 228 874 324 1090 257 1033 l 172 556 l 47 556 l 26 439 l 151 439 l 78 18 b -22 -81 63 -65 46 -81 l -78 -81 l -99 -203 l -28 -203 b 201 1 129 -203 174 -157 z "},"¥":{"ha":593,"x_min":0,"x_max":0,"o":"m 482 179 l 500 282 l 338 282 l 353 369 l 517 369 l 536 474 l 371 474 l 688 990 l 549 990 l 351 643 l 321 564 l 318 643 l 247 990 l 111 990 l 236 474 l 85 474 l 65 369 l 221 369 l 206 282 l 49 282 l 31 179 l 188 179 l 156 0 l 288 0 l 319 179 z "},"₡":{"ha":715,"x_min":0,"x_max":0,"o":"m 278 107 b 235 125 263 111 249 117 l 483 890 b 528 879 499 888 514 885 z m 171 310 l 240 701 b 408 890 261 819 331 876 l 181 186 b 171 310 167 217 161 257 z m 183 -158 l 260 -158 l 307 -14 l 322 -14 b 654 294 510 -14 619 89 l 671 389 l 546 389 l 531 301 b 349 100 507 160 433 106 l 585 831 b 599 715 603 803 608 764 l 581 611 l 706 611 l 722 711 b 626 958 743 826 703 911 l 690 1136 l 614 1136 l 564 988 b 518 999 549 992 533 996 l 563 1136 l 489 1136 l 446 1003 b 118 700 289 999 156 917 b 50 315 118 699 50 315 b 131 42 28 194 57 99 l 57 -158 l 133 -158 l 192 8 b 236 -6 206 3 221 -1 z "},"₢":{"ha":714,"x_min":0,"x_max":0,"o":"m 635 294 l 649 375 l 510 375 l 497 301 b 365 113 476 175 431 125 l 400 308 b 557 463 424 443 440 463 l 628 463 l 651 592 l 599 592 b 419 463 513 592 453 554 l 424 588 l 332 588 l 250 121 b 183 310 194 143 164 197 l 253 701 b 438 885 276 839 346 885 b 569 715 547 885 592 831 l 560 668 l 699 668 l 707 711 b 447 1003 740 900 635 1003 b 117 700 282 1003 156 921 b 49 315 117 699 49 315 b 314 -14 13 118 90 -14 b 635 294 501 -14 600 89 z "},"₣":{"ha":557,"x_min":0,"x_max":0,"o":"m 468 246 l 489 367 l 206 367 l 224 469 l 507 469 l 528 590 l 246 590 l 294 871 l 594 871 l 615 990 l 188 990 l 14 0 l 142 0 l 185 246 z "},"₤":{"ha":693,"x_min":0,"x_max":0,"o":"m 406 -21 b 619 211 538 -21 590 44 l 629 263 l 492 263 l 486 229 b 396 97 468 129 446 97 b 303 131 364 97 333 113 b 325 203 313 153 321 178 b 336 329 332 246 336 288 l 469 329 l 485 417 l 333 417 b 326 483 331 439 329 461 l 497 483 l 513 572 l 317 572 b 317 772 308 643 304 711 b 429 888 329 846 367 888 b 508 776 499 888 522 843 l 499 721 l 639 722 l 646 764 b 440 1006 671 917 596 1006 b 181 788 297 1006 206 924 b 189 572 167 715 175 643 l 99 572 l 83 483 l 208 483 b 222 417 214 461 218 439 l 71 417 l 56 329 l 236 329 b 233 203 240 288 240 246 b 229 181 232 194 231 188 b 106 219 192 201 153 219 b -36 110 31 219 -24 175 b 83 -21 -50 39 -14 -21 b 243 46 142 -21 199 3 b 406 -21 285 11 336 -21 z m 100 65 b 61 100 72 65 58 79 b 106 135 65 121 81 135 b 182 97 131 135 156 119 b 100 65 157 75 129 65 z "},"₦":{"ha":818,"x_min":0,"x_max":0,"o":"m 275 626 l 299 831 l 318 699 l 336 624 l 275 624 z m 376 461 l 246 461 l 258 535 l 358 535 z m 590 461 l 490 461 l 472 535 l 604 535 z m 492 0 l 628 0 l 693 374 l 799 374 l 814 461 l 708 461 l 721 535 l 826 535 l 843 624 l 738 624 l 801 990 l 683 990 l 619 624 l 450 624 l 360 990 l 221 990 l 157 624 l 53 624 l 36 535 l 140 535 l 128 461 l 24 461 l 8 374 l 113 374 l 47 0 l 165 0 l 231 374 l 399 374 z m 529 303 l 511 374 l 575 374 l 575 372 l 550 165 z "},"₧":{"ha":1568,"x_min":0,"x_max":0,"o":"m 403 875 b 525 729 501 875 542 825 l 501 594 b 313 433 482 481 419 433 l 218 433 l 294 875 z m 306 318 b 625 565 493 317 594 393 l 646 679 l 774 679 l 706 292 b 928 0 671 97 733 0 l 1235 0 b 1513 196 1385 0 1488 50 l 1514 206 b 1358 451 1540 354 1446 407 b 1221 615 1279 492 1206 526 l 1222 624 b 1336 707 1232 674 1272 707 b 1436 586 1407 707 1453 672 l 1428 544 l 1556 544 l 1564 588 b 1339 817 1588 725 1506 817 b 1097 633 1211 817 1119 751 l 1094 618 b 1250 371 1068 469 1163 417 b 1386 211 1328 332 1401 297 l 1385 201 b 1233 117 1374 139 1314 117 l 940 117 b 829 304 831 117 808 167 l 896 679 l 1036 679 l 1057 800 l 917 800 l 944 957 l 849 957 b 817 851 838 911 831 881 b 767 803 803 824 789 811 b 658 792 746 794 686 792 l 657 788 b 424 990 654 914 575 990 l 188 990 l 14 0 l 142 0 l 197 318 z "},"₨":{"ha":1229,"x_min":0,"x_max":0,"o":"m 864 -14 b 1158 197 1014 -14 1133 51 l 1160 206 b 1001 453 1186 356 1090 408 b 867 615 924 493 851 526 l 868 624 b 982 707 878 674 918 707 b 1082 586 1053 707 1099 672 l 1074 544 l 1201 544 l 1210 588 b 985 817 1233 725 1151 817 b 743 633 857 817 765 751 l 740 618 b 896 371 714 471 807 417 b 1032 211 974 332 1047 297 l 1031 203 b 872 103 1019 140 953 103 l 850 103 b 656 253 757 103 700 144 l 622 333 b 485 458 599 392 557 438 b 642 646 579 486 625 550 l 656 719 b 426 990 686 889 606 990 l 188 990 l 14 0 l 143 0 l 213 400 l 294 400 b 511 265 417 400 481 342 l 544 185 b 840 -14 600 50 675 -14 z m 406 876 b 528 731 504 876 546 832 l 518 676 b 329 515 499 563 457 515 l 233 515 l 296 876 z "},"₩":{"ha":989,"x_min":0,"x_max":0,"o":"m 522 678 l 574 860 l 561 679 l 561 633 l 506 633 z m 353 471 l 269 471 l 271 544 l 381 544 z m 564 471 l 443 471 l 471 544 l 563 544 z m 739 471 l 649 471 l 647 544 l 764 544 z m 265 347 l 267 383 l 319 383 l 297 326 l 235 117 z m 569 0 l 688 0 l 824 383 l 971 383 l 986 471 l 856 471 l 882 544 l 1000 544 l 1015 633 l 913 633 l 1040 990 l 917 990 l 794 633 l 646 633 l 640 990 l 550 990 l 414 633 l 274 633 l 285 990 l 161 990 l 156 633 l 54 633 l 39 544 l 154 544 l 153 471 l 25 471 l 10 383 l 151 383 l 144 0 l 263 0 l 410 383 l 565 383 z m 651 326 l 650 383 l 710 383 l 697 347 l 639 110 z "},"₪":{"ha":950,"x_min":0,"x_max":0,"o":"m 415 879 b 572 663 549 879 599 817 l 492 210 b 642 364 588 210 619 243 l 694 669 b 428 990 735 882 624 990 l 188 990 l 14 0 l 135 0 l 289 879 z m 500 0 b 858 338 718 0 821 124 l 974 990 l 850 990 l 736 344 b 499 113 707 176 614 113 l 376 113 b 468 631 392 201 465 622 b 372 786 490 758 476 786 l 235 0 z "},"₮":{"ha":547,"x_min":0,"x_max":0,"o":"m 468 446 l 483 531 l 351 475 l 364 550 l 496 606 l 511 690 l 379 635 l 421 869 l 600 869 l 621 990 l 132 990 l 111 869 l 290 869 l 239 576 l 117 525 l 101 439 l 224 490 l 210 415 l 89 364 l 74 279 l 196 331 l 138 0 l 268 0 l 336 390 z "},"₱":{"ha":683,"x_min":0,"x_max":0,"o":"m 410 875 b 535 758 499 875 540 835 l 282 758 l 301 875 z m 508 597 l 253 597 l 267 675 l 522 675 z m 313 393 l 218 393 l 239 515 l 492 515 b 313 393 465 429 407 393 z m 306 278 b 624 515 489 276 590 350 l 689 515 l 703 597 l 638 597 l 651 675 l 717 675 l 732 758 l 664 758 b 431 990 674 901 593 990 l 194 990 l 154 758 l 76 758 l 61 675 l 139 675 l 125 597 l 47 597 l 33 515 l 111 515 l 21 0 l 149 0 l 197 278 z "},"฿":{"ha":699,"x_min":0,"x_max":0,"o":"m 310 -128 l 332 0 b 611 208 513 0 586 56 b 628 303 611 207 628 303 b 540 506 644 397 626 472 b 679 674 617 529 663 579 l 693 751 b 507 989 715 875 675 979 l 529 1118 l 432 1118 l 410 990 l 188 990 l 14 0 l 235 0 l 213 -128 z m 242 563 l 297 879 l 390 879 l 335 563 z m 564 757 l 553 697 b 432 564 539 611 508 572 l 486 876 b 564 757 551 867 575 825 z m 163 117 l 221 449 l 314 449 l 256 117 z m 496 321 l 482 244 b 353 118 465 157 435 122 l 411 447 b 496 321 490 440 510 399 z "},"#":{"ha":910,"x_min":0,"x_max":0,"o":"m 524 393 l 351 393 l 422 624 l 594 624 z m 404 0 l 529 0 l 614 281 l 801 281 l 821 393 l 649 393 l 718 624 l 899 624 l 918 736 l 753 736 l 829 990 l 706 990 l 628 736 l 456 736 l 533 990 l 408 990 l 331 736 l 146 736 l 126 624 l 297 624 l 226 393 l 49 393 l 29 281 l 192 281 l 107 0 l 232 0 l 317 281 l 489 281 z "},"⁰":{"ha":378,"x_min":0,"x_max":0,"o":"m 217 488 b 376 642 313 488 358 540 l 410 833 b 282 997 431 950 363 997 b 119 843 204 997 139 957 l 88 660 b 217 488 69 557 113 488 z m 225 576 b 183 665 188 576 172 596 l 213 832 b 272 913 222 892 240 913 b 314 831 308 913 324 894 l 283 658 b 225 576 274 597 257 576 z "},"¹":{"ha":299,"x_min":0,"x_max":0,"o":"m 285 496 l 299 582 l 224 582 l 296 990 l 224 990 b 131 910 208 939 182 913 l 118 839 l 185 839 l 139 582 l 61 582 l 47 496 z "},"²":{"ha":356,"x_min":0,"x_max":0,"o":"m 336 496 l 351 583 l 172 583 b 279 697 192 633 235 664 b 396 854 331 738 383 779 l 397 863 b 271 997 413 938 379 997 b 122 879 186 997 135 947 l 108 797 l 201 797 l 214 872 b 265 918 219 903 235 918 b 306 865 296 918 313 904 l 304 857 b 189 733 294 807 242 775 b 64 550 135 690 79 639 l 54 496 z "},"³":{"ha":363,"x_min":0,"x_max":0,"o":"m 204 488 b 357 615 286 488 340 525 l 361 638 b 325 744 369 685 365 725 b 392 851 374 761 385 801 l 394 865 b 267 997 413 950 356 997 b 122 885 183 997 135 953 b 111 824 122 885 111 826 l 204 824 l 213 874 b 264 919 218 901 228 919 b 304 864 303 919 311 899 l 301 846 b 235 788 294 804 281 788 l 199 788 l 183 707 l 218 707 b 269 647 261 707 276 690 l 265 626 b 208 571 257 586 247 571 b 167 633 171 571 160 592 l 174 675 l 79 675 l 74 642 b 204 488 56 539 97 488 z "},"⁴":{"ha":361,"x_min":0,"x_max":0,"o":"m 261 810 l 299 879 l 278 803 l 256 671 l 160 671 z m 379 596 l 393 671 l 335 671 l 390 990 l 311 990 l 68 663 l 56 596 l 242 596 l 225 496 l 304 496 l 322 596 z "},"⁵":{"ha":364,"x_min":0,"x_max":0,"o":"m 206 488 b 368 624 301 488 353 535 l 385 714 b 288 839 397 790 360 839 b 199 797 247 839 221 824 b 231 904 207 828 219 869 l 311 904 b 413 983 382 904 403 929 l 414 990 l 172 990 l 104 740 l 176 717 b 186 729 178 718 186 729 b 251 765 201 750 219 765 b 293 711 286 765 299 746 l 279 629 b 218 571 272 594 257 571 b 174 631 179 571 168 594 l 181 669 l 85 669 l 79 642 b 206 488 61 539 104 488 z "},"⁶":{"ha":376,"x_min":0,"x_max":0,"o":"m 375 635 l 379 663 b 282 797 394 753 351 797 b 189 746 240 797 210 783 l 206 843 b 275 919 215 896 232 919 b 315 850 307 919 325 904 l 313 835 l 406 835 l 407 842 b 282 997 426 943 368 997 b 117 843 199 997 136 957 l 85 657 b 217 488 67 554 100 488 b 375 635 311 488 357 538 z m 219 569 b 172 650 176 569 161 588 l 178 685 b 242 731 192 715 213 731 b 292 665 285 731 299 713 l 288 639 b 219 569 278 586 261 569 z "},"⁷":{"ha":318,"x_min":0,"x_max":0,"o":"m 176 496 b 383 915 225 647 301 796 l 396 990 l 126 990 l 111 903 l 290 903 b 75 496 221 804 129 654 z "},"⁸":{"ha":376,"x_min":0,"x_max":0,"o":"m 207 488 b 374 619 307 488 356 521 l 379 649 b 338 749 389 700 368 732 b 407 843 372 760 393 786 l 411 868 b 279 997 429 960 364 997 b 129 874 207 997 146 971 l 126 854 b 163 757 119 800 133 771 b 83 657 122 744 93 715 l 79 633 b 207 488 60 536 103 488 z m 254 785 b 215 847 214 785 208 810 l 218 865 b 278 925 224 913 244 925 b 325 858 318 925 336 915 l 322 844 b 261 785 314 804 300 785 z m 222 568 b 171 635 181 568 161 582 l 175 658 b 239 717 182 696 200 717 l 246 717 b 293 656 286 717 300 696 l 289 631 b 222 568 278 576 257 568 z "},"⁹":{"ha":368,"x_min":0,"x_max":0,"o":"m 247 758 b 197 824 204 758 190 776 l 200 844 b 268 918 207 897 231 918 b 315 833 308 918 326 896 l 310 803 b 247 758 297 774 275 758 z m 201 486 b 371 640 293 486 351 526 l 403 826 b 269 997 421 929 382 997 b 114 853 181 997 129 947 l 110 826 b 203 692 94 736 135 692 b 300 746 242 692 276 706 l 282 640 b 213 568 272 588 256 568 b 172 635 181 568 163 581 l 178 657 l 83 657 l 79 638 b 201 486 60 536 107 486 z "},"⁺":{"ha":374,"x_min":0,"x_max":0,"o":"m 365 697 l 379 772 l 286 772 l 303 863 l 225 863 l 208 772 l 119 772 l 106 697 l 196 697 l 179 604 l 257 604 l 274 697 z "},"⁻":{"ha":374,"x_min":0,"x_max":0,"o":"m 107 694 l 364 694 l 378 776 l 121 776 z "},"⁼":{"ha":374,"x_min":0,"x_max":0,"o":"m 119 767 l 376 767 l 390 844 l 133 844 z m 94 628 l 351 628 l 365 706 l 108 706 z "},"⁽":{"ha":268,"x_min":0,"x_max":0,"o":"m 239 364 l 256 458 b 179 619 190 463 160 504 l 221 851 b 354 1021 242 971 286 1015 l 369 1110 b 135 874 247 1103 165 1043 l 93 635 b 239 364 63 461 115 372 z "},"⁾":{"ha":268,"x_min":0,"x_max":0,"o":"m 15 364 b 249 600 138 371 218 431 l 290 839 b 144 1110 321 1013 268 1101 l 129 1019 b 204 854 194 1015 224 969 l 163 622 b 31 457 142 503 99 463 z "},"₀":{"ha":378,"x_min":0,"x_max":0,"o":"m 131 -8 b 290 146 226 -8 272 44 l 324 338 b 196 501 344 454 276 501 b 33 347 118 501 53 461 l 1 164 b 131 -8 -17 61 26 -8 z m 139 81 b 97 169 101 81 86 100 l 126 336 b 186 417 136 396 154 417 b 228 335 222 417 238 399 l 197 163 b 139 81 188 101 171 81 z "},"₁":{"ha":299,"x_min":0,"x_max":0,"o":"m 199 0 l 213 86 l 138 86 l 210 494 l 138 494 b 44 414 122 443 96 417 l 32 343 l 99 343 l 53 86 l -25 86 l -39 0 z "},"₂":{"ha":356,"x_min":0,"x_max":0,"o":"m 250 0 l 265 88 l 86 88 b 193 201 106 138 149 168 b 310 358 244 242 297 283 l 311 367 b 185 501 326 442 293 501 b 36 383 100 501 49 451 l 22 301 l 115 301 l 128 376 b 179 422 133 407 149 422 b 219 369 210 422 226 408 l 218 361 b 103 238 208 311 156 279 b -22 54 49 194 -7 143 l -32 0 z "},"₃":{"ha":363,"x_min":0,"x_max":0,"o":"m 118 -8 b 271 119 200 -8 254 29 l 275 142 b 239 249 283 189 279 229 b 306 356 288 265 299 306 l 308 369 b 181 501 326 454 269 501 b 36 389 97 501 49 457 b 25 328 36 389 25 331 l 118 328 l 126 378 b 178 424 132 406 142 424 b 218 368 217 424 225 403 l 215 350 b 149 292 208 308 194 292 l 113 292 l 97 211 l 132 211 b 183 151 175 211 190 194 l 179 131 b 122 75 171 90 161 75 b 81 138 85 75 74 96 l 88 179 l -7 179 l -12 146 b 118 -8 -31 43 11 -8 z "},"₄":{"ha":361,"x_min":0,"x_max":0,"o":"m 175 314 l 213 383 l 192 307 l 169 175 l 74 175 z m 293 100 l 307 175 l 249 175 l 304 494 l 225 494 l -18 167 l -31 100 l 156 100 l 139 0 l 218 0 l 236 100 z "},"₅":{"ha":364,"x_min":0,"x_max":0,"o":"m 119 -8 b 282 128 215 -8 267 39 l 299 218 b 201 343 311 294 274 343 b 113 301 161 343 135 328 b 144 408 121 332 133 374 l 225 408 b 326 488 296 408 317 433 l 328 494 l 86 494 l 18 244 l 90 221 b 100 233 92 222 100 233 b 165 269 115 254 133 269 b 207 215 200 269 213 250 l 193 133 b 132 75 186 99 171 75 b 88 135 93 75 82 99 l 94 174 l -1 174 l -7 146 b 119 -8 -25 43 18 -8 z "},"₆":{"ha":376,"x_min":0,"x_max":0,"o":"m 289 139 l 293 167 b 196 301 308 257 265 301 b 103 250 154 301 124 288 l 119 347 b 189 424 129 400 146 424 b 229 354 221 424 239 408 l 226 339 l 319 339 l 321 346 b 196 501 340 447 282 501 b 31 347 113 501 50 461 l -1 161 b 131 -8 -19 58 14 -8 b 289 139 225 -8 271 42 z m 133 74 b 86 154 90 74 75 92 l 92 189 b 156 235 106 219 126 235 b 206 169 199 235 213 217 l 201 143 b 133 74 192 90 175 74 z "},"₇":{"ha":318,"x_min":0,"x_max":0,"o":"m 90 0 b 297 419 139 151 215 300 l 310 494 l 40 494 l 25 407 l 204 407 b -11 0 135 308 43 158 z "},"₈":{"ha":376,"x_min":0,"x_max":0,"o":"m 121 -8 b 288 124 221 -8 269 25 l 293 153 b 251 253 303 204 282 236 b 321 347 286 264 307 290 l 325 372 b 193 501 343 464 278 501 b 43 378 121 501 60 475 l 40 358 b 76 261 33 304 47 275 b -3 161 36 249 7 219 l -7 138 b 121 -8 -26 40 17 -8 z m 168 289 b 129 351 128 289 122 314 l 132 369 b 192 429 138 417 158 429 b 239 363 232 429 250 419 l 236 349 b 175 289 228 308 214 289 z m 136 72 b 85 139 94 72 75 86 l 89 163 b 153 221 96 200 114 221 l 160 221 b 207 160 200 221 214 200 l 203 135 b 136 72 192 81 171 72 z "},"₉":{"ha":368,"x_min":0,"x_max":0,"o":"m 161 263 b 111 328 118 263 104 281 l 114 349 b 182 422 121 401 144 422 b 229 338 222 422 240 400 l 224 307 b 161 263 211 278 189 263 z m 115 -10 b 285 144 207 -10 265 31 l 317 331 b 183 501 335 433 296 501 b 28 357 94 501 43 451 l 24 331 b 117 196 8 240 49 196 b 214 250 156 196 190 210 l 196 144 b 126 72 186 92 169 72 b 86 139 94 72 76 85 l 92 161 l -3 161 l -7 142 b 115 -10 -26 40 21 -10 z "},"₊":{"ha":374,"x_min":0,"x_max":0,"o":"m 279 201 l 293 276 l 200 276 l 217 367 l 139 367 l 122 276 l 33 276 l 19 201 l 110 201 l 93 108 l 171 108 l 188 201 z "},"₋":{"ha":374,"x_min":0,"x_max":0,"o":"m 21 199 l 278 199 l 292 281 l 35 281 z "},"₌":{"ha":374,"x_min":0,"x_max":0,"o":"m 33 271 l 290 271 l 304 349 l 47 349 z m 8 132 l 265 132 l 279 210 l 22 210 z "},"₍":{"ha":268,"x_min":0,"x_max":0,"o":"m 153 -132 l 169 -37 b 93 124 104 -33 74 8 l 135 356 b 268 525 156 475 200 519 l 283 614 b 49 378 161 607 79 547 l 7 139 b 153 -132 -24 -35 29 -124 z "},"₎":{"ha":268,"x_min":0,"x_max":0,"o":"m -71 -132 b 163 104 51 -125 132 -65 l 204 343 b 58 614 235 517 182 606 l 43 524 b 118 358 108 519 138 474 l 76 126 b -56 -39 56 7 13 -33 z "},"⁄":{"ha":799,"x_min":0,"x_max":0,"o":"m 496 554 l 856 942 l 746 1022 l 458 582 z m 107 -25 l 393 431 l 358 458 l -6 61 z "},"⅟":{"ha":799,"x_min":0,"x_max":0,"o":"m 496 554 l 856 942 l 746 1022 l 458 582 z m 107 -25 l 393 431 l 358 458 l -6 61 z m 311 496 l 325 582 l 250 582 l 322 990 l 250 990 b 157 910 235 939 208 913 l 144 839 l 211 839 l 165 582 l 88 582 l 74 496 z "},"½":{"ha":799,"x_min":0,"x_max":0,"o":"m 496 554 l 856 942 l 746 1022 l 458 582 z m 107 -25 l 393 431 l 358 458 l -6 61 z m 311 496 l 325 582 l 250 582 l 322 990 l 250 990 b 157 910 235 939 208 913 l 144 839 l 211 839 l 165 582 l 88 582 l 74 496 z m 674 0 l 689 88 l 510 88 b 617 201 529 138 572 168 b 733 358 668 242 721 283 l 735 367 b 608 501 750 442 717 501 b 460 383 524 501 472 451 l 446 301 l 539 301 l 551 376 b 603 422 557 407 572 422 b 643 369 633 422 650 408 l 642 361 b 526 238 632 311 579 279 b 401 54 472 194 417 143 l 392 0 z "},"⅓":{"ha":799,"x_min":0,"x_max":0,"o":"m 496 554 l 856 942 l 746 1022 l 458 582 z m 107 -25 l 393 431 l 358 458 l -6 61 z m 311 496 l 325 582 l 250 582 l 322 990 l 250 990 b 157 910 235 939 208 913 l 144 839 l 211 839 l 165 582 l 88 582 l 74 496 z m 535 -8 b 688 119 617 -8 671 29 l 692 142 b 656 249 700 189 696 229 b 722 356 704 265 715 306 l 725 369 b 597 501 743 454 686 501 b 453 389 514 501 465 457 b 442 328 453 389 442 331 l 535 328 l 543 378 b 594 424 549 406 558 424 b 635 368 633 424 642 403 l 632 350 b 565 292 625 308 611 292 l 529 292 l 514 211 l 549 211 b 600 151 592 211 607 194 l 596 131 b 539 75 588 90 578 75 b 497 138 501 75 490 96 l 504 179 l 410 179 l 404 146 b 535 -8 386 43 428 -8 z "},"⅔":{"ha":799,"x_min":0,"x_max":0,"o":"m 496 554 l 856 942 l 746 1022 l 458 582 z m 107 -25 l 393 431 l 358 458 l -6 61 z m 342 496 l 357 583 l 178 583 b 285 697 197 633 240 664 b 401 854 336 738 389 779 l 403 863 b 276 997 418 938 385 997 b 128 879 192 997 140 947 l 114 797 l 207 797 l 219 872 b 271 918 225 903 240 918 b 311 865 301 918 318 904 l 310 857 b 194 733 300 807 247 775 b 69 550 140 690 85 639 l 60 496 z m 535 -8 b 688 119 617 -8 671 29 l 692 142 b 656 249 700 189 696 229 b 722 356 704 265 715 306 l 725 369 b 597 501 743 454 686 501 b 453 389 514 501 465 457 b 442 328 453 389 442 331 l 535 328 l 543 378 b 594 424 549 406 558 424 b 635 368 633 424 642 403 l 632 350 b 565 292 625 308 611 292 l 529 292 l 514 211 l 549 211 b 600 151 592 211 607 194 l 596 131 b 539 75 588 90 578 75 b 497 138 501 75 490 96 l 504 179 l 410 179 l 404 146 b 535 -8 386 43 428 -8 z "},"¼":{"ha":799,"x_min":0,"x_max":0,"o":"m 496 554 l 856 942 l 746 1022 l 458 582 z m 107 -25 l 393 431 l 358 458 l -6 61 z m 567 314 l 604 383 l 583 307 l 561 175 l 465 175 z m 685 100 l 699 175 l 640 175 l 696 494 l 617 494 l 374 167 l 361 100 l 547 100 l 531 0 l 610 0 l 628 100 z m 311 496 l 325 582 l 250 582 l 322 990 l 250 990 b 157 910 235 939 208 913 l 144 839 l 211 839 l 165 582 l 88 582 l 74 496 z "},"¾":{"ha":799,"x_min":0,"x_max":0,"o":"m 496 554 l 856 942 l 746 1022 l 458 582 z m 107 -25 l 393 431 l 358 458 l -6 61 z m 565 314 l 603 383 l 582 307 l 560 175 l 464 175 z m 683 100 l 697 175 l 639 175 l 694 494 l 615 494 l 372 167 l 360 100 l 546 100 l 529 0 l 608 0 l 626 100 z m 204 488 b 357 615 286 488 340 525 l 361 638 b 325 744 369 685 365 725 b 392 851 374 761 385 801 l 394 865 b 267 997 413 950 356 997 b 122 885 183 997 135 953 b 111 824 122 885 111 826 l 204 824 l 213 874 b 264 919 218 901 228 919 b 304 864 303 919 311 899 l 301 846 b 235 788 294 804 281 788 l 199 788 l 183 707 l 218 707 b 269 647 261 707 276 690 l 265 626 b 208 571 257 586 247 571 b 167 633 171 571 160 592 l 174 675 l 79 675 l 74 642 b 204 488 56 539 97 488 z "},"⅕":{"ha":799,"x_min":0,"x_max":0,"o":"m 496 554 l 856 942 l 746 1022 l 458 582 z m 107 -25 l 393 431 l 358 458 l -6 61 z m 535 -8 b 697 128 631 -8 682 39 l 714 218 b 617 343 726 294 689 343 b 528 301 576 343 550 328 b 560 408 536 332 549 374 l 640 408 b 742 488 711 408 732 433 l 743 494 l 501 494 l 433 244 l 506 221 b 515 233 507 222 515 233 b 581 269 531 254 549 269 b 622 215 615 269 628 250 l 608 133 b 547 75 601 99 586 75 b 503 135 508 75 497 99 l 510 174 l 414 174 l 408 146 b 535 -8 390 43 433 -8 z m 311 496 l 325 582 l 250 582 l 322 990 l 250 990 b 157 910 235 939 208 913 l 144 839 l 211 839 l 165 582 l 88 582 l 74 496 z "},"⅖":{"ha":799,"x_min":0,"x_max":0,"o":"m 496 554 l 856 942 l 746 1022 l 458 582 z m 107 -25 l 393 431 l 358 458 l -6 61 z m 535 -8 b 697 128 631 -8 682 39 l 714 218 b 617 343 726 294 689 343 b 528 301 576 343 550 328 b 560 408 536 332 549 374 l 640 408 b 742 488 711 408 732 433 l 743 494 l 501 494 l 433 244 l 506 221 b 515 233 507 222 515 233 b 581 269 531 254 549 269 b 622 215 615 269 628 250 l 608 133 b 547 75 601 99 586 75 b 503 135 508 75 497 99 l 510 174 l 414 174 l 408 146 b 535 -8 390 43 433 -8 z m 343 496 l 358 583 l 179 583 b 286 697 199 633 242 664 b 403 854 338 738 390 779 l 404 863 b 278 997 419 938 386 997 b 129 879 193 997 142 947 l 115 797 l 208 797 l 221 872 b 272 918 226 903 242 918 b 313 865 303 918 319 904 l 311 857 b 196 733 301 807 249 775 b 71 550 142 690 86 639 l 61 496 z "},"⅗":{"ha":799,"x_min":0,"x_max":0,"o":"m 496 554 l 856 942 l 746 1022 l 458 582 z m 107 -25 l 393 431 l 358 458 l -6 61 z m 535 -8 b 697 128 631 -8 682 39 l 714 218 b 617 343 726 294 689 343 b 528 301 576 343 550 328 b 560 408 536 332 549 374 l 640 408 b 742 488 711 408 732 433 l 743 494 l 501 494 l 433 244 l 506 221 b 515 233 507 222 515 233 b 581 269 531 254 549 269 b 622 215 615 269 628 250 l 608 133 b 547 75 601 99 586 75 b 503 135 508 75 497 99 l 510 174 l 414 174 l 408 146 b 535 -8 390 43 433 -8 z m 207 488 b 360 615 289 488 343 525 l 364 638 b 328 744 372 685 368 725 b 394 851 376 761 388 801 l 397 865 b 269 997 415 950 358 997 b 125 885 186 997 138 953 b 114 824 125 885 114 826 l 207 824 l 215 874 b 267 919 221 901 231 919 b 307 864 306 919 314 899 l 304 846 b 238 788 297 804 283 788 l 201 788 l 186 707 l 221 707 b 272 647 264 707 279 690 l 268 626 b 211 571 260 586 250 571 b 169 633 174 571 163 592 l 176 675 l 82 675 l 76 642 b 207 488 58 539 100 488 z "},"⅘":{"ha":799,"x_min":0,"x_max":0,"o":"m 496 554 l 856 942 l 746 1022 l 458 582 z m 107 -25 l 393 431 l 358 458 l -6 61 z m 535 -8 b 697 128 631 -8 682 39 l 714 218 b 617 343 726 294 689 343 b 528 301 576 343 550 328 b 560 408 536 332 549 374 l 640 408 b 742 488 711 408 732 433 l 743 494 l 501 494 l 433 244 l 506 221 b 515 233 507 222 515 233 b 581 269 531 254 549 269 b 622 215 615 269 628 250 l 608 133 b 547 75 601 99 586 75 b 503 135 508 75 497 99 l 510 174 l 414 174 l 408 146 b 535 -8 390 43 433 -8 z m 267 810 l 304 879 l 283 803 l 261 671 l 165 671 z m 385 596 l 399 671 l 340 671 l 396 990 l 317 990 l 74 663 l 61 596 l 247 596 l 231 496 l 310 496 l 328 596 z "},"⅙":{"ha":799,"x_min":0,"x_max":0,"o":"m 496 554 l 856 942 l 746 1022 l 458 582 z m 107 -25 l 393 431 l 358 458 l -6 61 z m 311 496 l 325 582 l 250 582 l 322 990 l 250 990 b 157 910 235 939 208 913 l 144 839 l 211 839 l 165 582 l 88 582 l 74 496 z m 696 139 l 700 167 b 603 301 715 257 672 301 b 510 250 561 301 531 288 l 526 347 b 596 424 536 400 553 424 b 636 354 628 424 646 408 l 633 339 l 726 339 l 728 346 b 603 501 747 447 689 501 b 438 347 519 501 457 461 l 406 161 b 538 -8 388 58 421 -8 b 696 139 632 -8 678 42 z m 540 74 b 493 154 497 74 482 92 l 499 189 b 563 235 513 219 533 235 b 613 169 606 235 619 217 l 608 143 b 540 74 599 90 582 74 z "},"⅚":{"ha":799,"x_min":0,"x_max":0,"o":"m 496 554 l 856 942 l 746 1022 l 458 582 z m 107 -25 l 393 431 l 358 458 l -6 61 z m 203 488 b 365 624 299 488 350 535 l 382 714 b 285 839 394 790 357 839 b 196 797 244 839 218 824 b 228 904 204 828 217 869 l 308 904 b 410 983 379 904 400 929 l 411 990 l 169 990 l 101 740 l 174 717 b 183 729 175 718 183 729 b 249 765 199 750 217 765 b 290 711 283 765 296 746 l 276 629 b 215 571 269 594 254 571 b 171 631 176 571 165 594 l 178 669 l 82 669 l 76 642 b 203 488 58 539 101 488 z m 696 139 l 700 167 b 603 301 715 257 672 301 b 510 250 561 301 531 288 l 526 347 b 596 424 536 400 553 424 b 636 354 628 424 646 408 l 633 339 l 726 339 l 728 346 b 603 501 747 447 689 501 b 438 347 519 501 457 461 l 406 161 b 538 -8 388 58 421 -8 b 696 139 632 -8 678 42 z m 540 74 b 493 154 497 74 482 92 l 499 189 b 563 235 513 219 533 235 b 613 169 606 235 619 217 l 608 143 b 540 74 599 90 582 74 z "},"⅛":{"ha":799,"x_min":0,"x_max":0,"o":"m 496 554 l 856 942 l 746 1022 l 458 582 z m 107 -25 l 393 431 l 358 458 l -6 61 z m 313 496 l 326 582 l 251 582 l 324 990 l 251 990 b 158 910 236 939 210 913 l 146 839 l 213 839 l 167 582 l 89 582 l 75 496 z m 528 -8 b 694 124 628 -8 676 25 l 700 153 b 658 253 710 204 689 236 b 728 347 693 264 714 290 l 732 372 b 600 501 750 464 685 501 b 450 378 528 501 467 475 l 447 358 b 483 261 440 304 454 275 b 404 161 443 249 414 219 l 400 138 b 528 -8 381 40 424 -8 z m 575 289 b 536 351 535 289 529 314 l 539 369 b 599 429 544 417 565 429 b 646 363 639 429 657 419 l 643 349 b 582 289 635 308 621 289 z m 543 72 b 492 139 501 72 482 86 l 496 163 b 560 221 503 200 521 221 l 567 221 b 614 160 607 221 621 200 l 610 135 b 543 72 599 81 578 72 z "},"⅜":{"ha":799,"x_min":0,"x_max":0,"o":"m 496 554 l 856 942 l 746 1022 l 458 582 z m 107 -25 l 393 431 l 358 458 l -6 61 z m 528 -8 b 694 124 628 -8 676 25 l 700 153 b 658 253 710 204 689 236 b 728 347 693 264 714 290 l 732 372 b 600 501 750 464 685 501 b 450 378 528 501 467 475 l 447 358 b 483 261 440 304 454 275 b 404 161 443 249 414 219 l 400 138 b 528 -8 381 40 424 -8 z m 575 289 b 536 351 535 289 529 314 l 539 369 b 599 429 544 417 565 429 b 646 363 639 429 657 419 l 643 349 b 582 289 635 308 621 289 z m 543 72 b 492 139 501 72 482 86 l 496 163 b 560 221 503 200 521 221 l 567 221 b 614 160 607 221 621 200 l 610 135 b 543 72 599 81 578 72 z m 206 488 b 358 615 288 488 342 525 l 363 638 b 326 744 371 685 367 725 b 393 851 375 761 386 801 l 396 865 b 268 997 414 950 357 997 b 124 885 185 997 136 953 b 113 824 124 885 113 826 l 206 824 l 214 874 b 265 919 219 901 229 919 b 306 864 304 919 313 899 l 303 846 b 236 788 296 804 282 788 l 200 788 l 185 707 l 219 707 b 271 647 263 707 278 690 l 267 626 b 210 571 258 586 249 571 b 168 633 172 571 161 592 l 175 675 l 81 675 l 75 642 b 206 488 57 539 99 488 z "},"⅝":{"ha":799,"x_min":0,"x_max":0,"o":"m 496 554 l 856 942 l 746 1022 l 458 582 z m 107 -25 l 393 431 l 358 458 l -6 61 z m 528 -8 b 694 124 628 -8 676 25 l 700 153 b 658 253 710 204 689 236 b 728 347 693 264 714 290 l 732 372 b 600 501 750 464 685 501 b 450 378 528 501 467 475 l 447 358 b 483 261 440 304 454 275 b 404 161 443 249 414 219 l 400 138 b 528 -8 381 40 424 -8 z m 575 289 b 536 351 535 289 529 314 l 539 369 b 599 429 544 417 565 429 b 646 363 639 429 657 419 l 643 349 b 582 289 635 308 621 289 z m 543 72 b 492 139 501 72 482 86 l 496 163 b 560 221 503 200 521 221 l 567 221 b 614 160 607 221 621 200 l 610 135 b 543 72 599 81 578 72 z m 203 488 b 365 624 299 488 350 535 l 382 714 b 285 839 394 790 357 839 b 196 797 244 839 218 824 b 228 904 204 828 217 869 l 308 904 b 410 983 379 904 400 929 l 411 990 l 169 990 l 101 740 l 174 717 b 183 729 175 718 183 729 b 249 765 199 750 217 765 b 290 711 283 765 296 746 l 276 629 b 215 571 269 594 254 571 b 171 631 176 571 165 594 l 178 669 l 82 669 l 76 642 b 203 488 58 539 101 488 z "},"⅞":{"ha":799,"x_min":0,"x_max":0,"o":"m 496 554 l 856 942 l 746 1022 l 458 582 z m 107 -25 l 393 431 l 358 458 l -6 61 z m 528 -8 b 694 124 628 -8 676 25 l 700 153 b 658 253 710 204 689 236 b 728 347 693 264 714 290 l 732 372 b 600 501 750 464 685 501 b 450 378 528 501 467 475 l 447 358 b 483 261 440 304 454 275 b 404 161 443 249 414 219 l 400 138 b 528 -8 381 40 424 -8 z m 575 289 b 536 351 535 289 529 314 l 539 369 b 599 429 544 417 565 429 b 646 363 639 429 657 419 l 643 349 b 582 289 635 308 621 289 z m 543 72 b 492 139 501 72 482 86 l 496 163 b 560 221 503 200 521 221 l 567 221 b 614 160 607 221 621 200 l 610 135 b 543 72 599 81 578 72 z m 250 496 b 457 915 299 647 375 796 l 469 990 l 200 990 l 185 903 l 364 903 b 149 496 294 804 203 654 z "},"%":{"ha":844,"x_min":0,"x_max":0,"o":"m 250 563 b 419 692 349 563 406 608 l 446 844 b 301 1001 464 942 408 1001 b 136 874 210 1001 151 956 l 108 725 b 250 563 92 631 135 563 z m 4 0 l 140 0 l 871 990 l 738 990 z m 260 650 b 204 721 218 650 196 669 l 226 856 b 299 917 233 896 260 917 b 351 846 338 917 361 897 l 329 715 b 260 650 322 669 297 650 z m 571 -14 b 740 115 669 -14 726 32 l 767 268 b 622 425 785 365 729 425 b 457 297 531 425 472 379 l 429 149 b 571 -14 413 54 456 -14 z m 581 74 b 525 144 539 74 517 93 l 547 279 b 619 340 554 319 581 340 b 672 269 658 340 682 321 l 650 139 b 581 74 643 93 618 74 z "},"‰":{"ha":1232,"x_min":0,"x_max":0,"o":"m 250 563 b 419 692 349 563 406 608 l 446 844 b 301 1001 464 942 408 1001 b 136 874 210 1001 151 956 l 108 725 b 250 563 92 631 135 563 z m 4 0 l 140 0 l 871 990 l 738 990 z m 260 650 b 204 721 218 650 196 669 l 226 856 b 299 917 233 896 260 917 b 351 846 338 917 361 897 l 329 715 b 260 650 322 669 297 650 z m 958 -14 b 1128 115 1057 -14 1114 32 l 1154 268 b 1010 425 1172 365 1117 425 b 844 297 918 425 860 379 l 817 149 b 958 -14 800 54 843 -14 z m 571 -14 b 740 115 669 -14 726 32 l 767 268 b 622 425 785 365 729 425 b 457 297 531 425 472 379 l 429 149 b 571 -14 413 54 456 -14 z m 968 74 b 913 144 926 74 904 93 l 935 279 b 1007 340 942 319 968 340 b 1060 269 1046 340 1069 321 l 1038 139 b 968 74 1031 93 1006 74 z m 581 74 b 525 144 539 74 517 93 l 547 279 b 619 340 554 319 581 340 b 672 269 658 340 682 321 l 650 139 b 581 74 643 93 618 74 z "},"№":{"ha":1193,"x_min":0,"x_max":0,"o":"m 957 431 b 1161 599 1075 431 1143 490 l 1196 797 b 1024 1003 1218 924 1151 1003 b 822 836 915 1003 842 943 l 789 643 b 957 431 767 519 818 431 z m 968 538 b 901 638 914 538 890 576 l 931 813 b 1019 900 942 871 968 900 b 1086 800 1071 900 1099 867 l 1057 629 b 968 538 1047 571 1022 538 z m 243 624 l 258 838 l 278 671 l 456 0 l 569 0 l 743 990 l 622 990 l 513 368 l 501 189 l 478 329 l 303 990 l 188 990 l 14 0 l 133 0 z m 725 229 l 1086 229 l 1106 340 l 744 340 z "},"¤":{"ha":725,"x_min":0,"x_max":0,"o":"m 358 357 b 260 482 279 357 247 413 l 268 535 b 408 660 282 608 335 660 b 507 535 486 660 519 606 l 499 482 b 358 357 486 411 431 357 z m 349 249 b 471 275 393 249 435 258 l 551 168 l 649 249 l 565 358 b 608 467 586 389 601 425 l 618 524 b 606 658 626 574 622 621 l 739 781 l 664 861 l 533 740 b 415 769 501 760 463 769 b 303 746 375 769 338 761 l 218 857 l 124 775 l 207 667 b 160 553 183 635 168 597 l 149 496 b 157 365 140 447 143 401 l 18 239 l 94 157 l 226 278 b 349 249 258 260 300 249 z "},"←":{"ha":1056,"x_min":0,"x_max":0,"o":"m 947 436 l 947 558 l 282 558 b 463 793 353 614 426 703 l 322 793 b 90 525 290 701 190 589 l 90 465 b 329 199 190 404 296 290 l 471 199 b 279 436 432 292 353 382 z "},"→":{"ha":1056,"x_min":0,"x_max":0,"o":"m 725 199 b 963 465 757 290 863 404 l 963 525 b 731 793 863 589 764 701 l 592 793 b 771 558 626 703 700 614 l 107 558 l 107 436 l 775 436 b 582 199 701 382 621 292 z "},"↑":{"ha":1056,"x_min":0,"x_max":0,"o":"m 821 556 l 821 697 b 554 929 729 731 615 829 l 494 929 b 225 697 431 829 318 729 l 225 557 b 464 740 317 593 408 668 l 464 74 l 586 74 l 586 739 b 821 556 640 668 729 593 z "},"↓":{"ha":1056,"x_min":0,"x_max":0,"o":"m 553 67 b 822 299 615 167 729 267 l 822 439 b 582 254 729 401 638 326 l 582 922 l 461 922 l 461 256 b 226 440 407 328 318 403 l 226 299 b 493 67 318 265 431 167 z "},"↖":{"ha":1056,"x_min":0,"x_max":0,"o":"m 869 243 l 399 714 b 694 750 488 701 604 711 l 594 850 b 242 826 507 810 357 799 l 200 783 b 174 429 226 668 217 518 l 272 331 b 311 629 311 421 324 539 l 785 157 z "},"↗":{"ha":1056,"x_min":0,"x_max":0,"o":"m 768 331 l 868 431 b 843 783 826 518 817 668 l 801 825 b 447 851 686 799 535 808 l 347 753 b 646 714 438 714 556 701 l 175 240 l 261 156 l 732 628 b 768 331 719 539 729 422 z "},"↘":{"ha":1056,"x_min":0,"x_max":0,"o":"m 801 181 l 844 222 b 869 576 818 338 828 489 l 771 676 b 732 378 732 585 721 468 l 260 849 l 174 763 l 646 292 b 349 256 557 304 442 294 l 449 156 b 801 181 538 197 688 207 z "},"↙":{"ha":1056,"x_min":0,"x_max":0,"o":"m 596 154 l 694 253 b 396 292 604 292 486 303 l 868 764 l 782 850 l 311 379 b 275 675 324 468 314 583 l 175 575 b 199 222 215 486 226 336 l 242 179 b 596 154 357 206 507 196 z "},"○":{"ha":1249,"x_min":0,"x_max":0,"o":"m 621 -14 b 1122 486 915 -14 1122 199 b 621 989 1122 779 911 989 b 124 486 331 989 124 775 b 621 -14 124 194 331 -14 z m 621 164 b 303 486 442 164 303 303 b 621 814 303 672 442 814 b 943 486 807 814 943 668 b 621 164 943 303 807 164 z "},"●":{"ha":1249,"x_min":0,"x_max":0,"o":"m 621 -14 b 1122 486 915 -14 1122 199 b 621 989 1122 779 911 989 b 124 486 331 989 124 775 b 621 -14 124 194 331 -14 z "},"■":{"ha":1260,"x_min":0,"x_max":0,"o":"m 138 0 l 1119 0 l 1119 990 l 138 990 z "},"□":{"ha":1260,"x_min":0,"x_max":0,"o":"m 138 0 l 1119 0 l 1119 990 l 138 990 z m 317 168 l 317 822 l 940 822 l 940 168 z "},"⊠":{"ha":1260,"x_min":0,"x_max":0,"o":"m 138 0 l 1119 0 l 1119 990 l 138 990 z m 317 168 l 317 822 l 940 822 l 940 168 z m 781 236 l 886 340 l 729 500 l 886 663 l 782 764 l 628 606 l 474 763 l 368 661 l 525 500 l 369 340 l 475 238 l 626 394 z "},"▪":{"ha":1058,"x_min":0,"x_max":0,"o":"m 138 0 l 918 0 l 918 781 l 138 781 z "},"▫":{"ha":1058,"x_min":0,"x_max":0,"o":"m 138 0 l 918 0 l 918 781 l 138 781 z m 317 168 l 317 614 l 742 614 l 742 168 z "},"▲":{"ha":1226,"x_min":0,"x_max":0,"o":"m 1194 0 l 614 1011 l 29 0 z "},"▼":{"ha":1226,"x_min":0,"x_max":0,"o":"m 614 -17 l 1194 994 l 29 994 z "},"◄":{"ha":1226,"x_min":0,"x_max":0,"o":"m 1086 1089 l 75 506 l 1086 -76 z "},"►":{"ha":1226,"x_min":0,"x_max":0,"o":"m 138 -76 l 1149 506 l 138 1089 z "},"◤":{"ha":1226,"x_min":0,"x_max":0,"o":"m 1168 -72 l 867 1053 l 42 228 z "},"◥":{"ha":1226,"x_min":0,"x_max":0,"o":"m 1188 221 l 364 1047 l 63 -78 z "},"◢":{"ha":1226,"x_min":0,"x_max":0,"o":"m 1189 726 l 64 1028 l 364 -99 z "},"◣":{"ha":1226,"x_min":0,"x_max":0,"o":"m 863 -99 l 1164 1028 l 38 726 z "},"◎":{"ha":1249,"x_min":0,"x_max":0,"o":"m 621 -14 b 1122 486 915 -14 1122 199 b 621 989 1122 779 911 989 b 124 486 331 989 124 775 b 621 -14 124 194 331 -14 z m 621 164 b 303 486 442 164 303 303 b 621 814 303 672 442 814 b 943 486 807 814 943 668 b 621 164 943 303 807 164 z m 622 254 b 857 485 757 254 857 354 b 622 718 857 618 756 718 b 390 485 492 718 390 618 b 622 254 390 351 488 254 z m 622 407 b 550 485 581 407 550 442 b 622 565 550 532 581 565 b 697 485 667 565 697 532 b 622 407 697 442 667 407 z "},"★":{"ha":1231,"x_min":0,"x_max":0,"o":"m 356 115 l 611 300 l 865 115 l 765 413 l 1022 596 l 708 597 l 613 893 l 513 597 l 203 599 l 456 414 z "},"☼":{"ha":1269,"x_min":0,"x_max":0,"o":"m 615 772 l 642 772 l 665 967 l 593 967 z m 761 743 l 782 729 l 900 885 l 838 922 z m 476 729 l 494 743 l 421 922 l 356 885 z m 872 640 l 886 618 l 1065 696 l 1025 757 z m 372 618 l 386 639 l 229 757 l 193 694 z m 392 483 b 628 247 392 354 499 247 b 867 483 757 247 867 354 b 628 722 867 614 757 722 b 392 483 499 722 392 614 z m 915 499 l 915 474 l 1110 450 l 1110 522 z m 342 474 l 342 499 l 149 522 l 149 450 z m 386 332 l 372 351 l 193 276 l 232 213 z m 886 351 l 872 333 l 1028 213 l 1065 278 z m 494 229 l 476 243 l 356 86 l 421 50 z m 782 243 l 761 229 l 838 50 l 900 86 z m 642 200 l 615 200 l 593 6 l 665 6 z "},"☾":{"ha":1076,"x_min":0,"x_max":0,"o":"m 729 824 b 825 807 760 824 793 815 b 583 885 756 857 671 885 b 181 481 360 885 181 704 b 583 78 181 260 360 78 b 825 157 671 78 756 107 b 729 140 793 147 760 140 b 403 481 549 140 403 294 b 729 824 403 669 549 824 z "},"♻":{"ha":1135,"x_min":0,"x_max":0,"o":"m 478 925 b 583 861 478 925 547 921 l 665 717 l 619 689 l 817 651 l 889 846 l 839 817 l 806 874 b 701 926 776 924 744 925 l 478 926 z m 242 718 l 415 618 l 549 850 b 358 890 525 893 428 931 b 321 856 342 882 326 865 z m 940 635 l 768 538 l 901 307 b 1032 451 950 307 1032 369 b 1022 500 1032 472 1026 490 z m 226 171 b 231 294 226 171 199 235 b 315 439 233 300 315 439 l 361 410 l 294 603 l 92 567 l 142 538 l 108 481 b 114 363 78 431 93 400 l 224 171 z m 1008 336 b 896 275 1008 336 965 275 l 731 275 l 731 333 l 601 176 l 731 19 l 731 75 l 796 75 b 896 140 857 75 875 104 l 1010 335 z m 526 75 l 526 275 l 260 275 b 321 90 233 232 250 132 b 371 75 339 79 357 75 z "},"♼":{"ha":1135,"x_min":0,"x_max":0,"o":"m 1026 481 b 568 944 1026 739 821 944 b 104 481 313 944 104 739 b 568 24 104 226 313 24 b 1026 481 821 24 1026 226 z m 489 833 l 663 833 b 746 790 697 833 722 831 l 769 749 l 808 768 l 754 618 l 601 647 l 636 669 l 572 781 b 489 832 546 826 489 832 z m 374 775 b 403 804 376 785 389 796 b 550 772 457 836 532 807 l 449 594 l 314 671 z m 914 503 b 925 465 919 493 925 481 b 825 349 925 401 864 349 l 721 529 l 856 608 z m 300 246 l 213 394 b 208 486 200 425 186 447 l 235 531 l 199 554 l 351 581 l 406 432 l 368 456 l 304 343 b 301 246 278 297 301 246 z m 906 371 l 819 222 b 743 175 803 197 789 175 l 692 175 l 692 129 l 590 250 l 692 369 l 692 329 l 819 329 b 904 372 875 329 904 372 z m 408 175 b 368 186 399 175 382 178 b 322 329 315 215 301 294 l 529 329 l 529 175 z "},"♽":{"ha":1135,"x_min":0,"x_max":0,"o":"m 1026 481 b 568 944 1026 739 821 944 b 104 481 313 944 104 739 b 568 24 104 226 313 24 b 1026 481 821 24 1026 226 z m 1004 481 b 568 46 1004 239 808 46 b 128 481 325 46 128 239 b 568 921 128 726 325 921 b 1004 481 808 921 1004 726 z m 489 832 b 572 781 489 832 546 826 l 636 669 l 601 647 l 754 618 l 808 768 l 769 749 l 746 790 b 663 833 722 831 697 833 l 489 833 z m 314 671 l 449 594 l 550 772 b 403 804 532 807 457 836 b 374 775 389 796 376 785 z m 856 608 l 721 529 l 825 349 b 925 465 864 349 925 401 b 914 503 925 481 919 493 z m 301 246 b 304 343 301 246 278 297 l 368 456 l 406 432 l 351 581 l 199 554 l 235 531 l 208 486 b 213 394 186 447 200 425 l 300 246 z m 904 372 b 819 329 904 372 875 329 l 692 329 l 692 369 l 590 250 l 692 129 l 692 175 l 743 175 b 819 222 789 175 803 197 l 906 371 z m 529 175 l 529 329 l 322 329 b 368 186 301 294 315 215 b 408 175 382 178 399 175 z "},"⌂":{"ha":1165,"x_min":0,"x_max":0,"o":"m 138 0 l 1025 0 l 1025 553 l 582 979 l 138 553 z "},"♠":{"ha":1233,"x_min":0,"x_max":0,"o":"m 658 386 b 900 206 694 294 769 206 b 1111 417 1018 206 1111 301 b 807 847 1111 569 1028 671 l 619 996 l 433 847 b 118 417 211 671 118 569 b 346 206 118 301 222 206 b 574 386 469 206 540 294 b 447 0 574 225 483 68 l 792 0 b 658 386 757 68 658 225 z "},"♣":{"ha":1233,"x_min":0,"x_max":0,"o":"m 883 175 b 1118 413 1014 175 1118 282 b 885 647 1118 543 1015 647 b 821 636 863 647 840 643 b 847 756 838 672 847 715 b 614 989 847 885 743 989 b 376 756 482 989 376 885 b 404 639 376 715 388 674 b 347 647 386 643 368 647 b 111 413 217 647 111 543 b 347 175 111 282 217 175 b 572 335 451 175 535 242 b 449 0 556 193 481 60 l 793 0 b 664 333 763 60 682 193 b 883 175 699 242 779 175 z "},"♥":{"ha":1233,"x_min":0,"x_max":0,"o":"m 613 -24 l 799 188 b 1110 738 1022 433 1110 582 b 857 989 1110 875 994 989 b 613 769 718 989 625 893 b 364 989 600 893 501 989 b 119 738 226 989 119 875 b 424 188 119 582 203 433 z "},"♦":{"ha":1233,"x_min":0,"x_max":0,"o":"m 615 -14 l 1050 494 l 615 1000 l 179 494 z "},"+":{"ha":600,"x_min":0,"x_max":0,"o":"m 535 433 l 554 547 l 381 547 l 411 718 l 299 718 l 268 547 l 97 547 l 78 433 l 249 433 l 218 263 l 331 263 l 361 433 z "},"−":{"ha":600,"x_min":0,"x_max":0,"o":"m 542 432 l 563 550 l 88 550 l 67 432 z "},"±":{"ha":600,"x_min":0,"x_max":0,"o":"m 539 556 l 560 671 l 403 671 l 429 822 l 317 822 l 290 671 l 136 671 l 115 556 l 269 556 l 243 404 l 356 404 l 382 556 z m 478 211 l 499 328 l 75 328 l 54 211 z "},"×":{"ha":593,"x_min":0,"x_max":0,"o":"m 418 272 l 510 350 l 388 501 l 554 644 l 492 724 l 325 581 l 213 719 l 121 642 l 233 501 l 57 350 l 119 272 l 296 424 z "},"÷":{"ha":600,"x_min":0,"x_max":0,"o":"m 338 617 b 419 688 385 617 410 635 b 363 757 428 740 411 757 b 281 688 315 757 289 740 b 338 617 271 633 288 617 z m 76 431 l 533 431 l 554 547 l 97 547 z m 268 225 b 350 294 315 225 340 242 b 293 364 360 349 342 364 b 211 294 246 364 221 349 b 268 225 201 240 218 225 z "},"=":{"ha":617,"x_min":0,"x_max":0,"o":"m 556 569 l 575 685 l 138 685 l 118 569 z m 508 307 l 529 422 l 92 422 l 71 307 z "},"≠":{"ha":617,"x_min":0,"x_max":0,"o":"m 510 310 l 529 422 l 324 422 l 390 572 l 556 572 l 575 685 l 440 685 l 488 790 l 413 790 l 365 685 l 138 685 l 118 572 l 315 572 l 249 422 l 92 422 l 72 310 l 199 310 l 144 189 l 219 189 l 274 310 z "},"≈":{"ha":617,"x_min":0,"x_max":0,"o":"m 197 449 b 89 404 156 449 108 429 l 67 281 b 178 333 93 313 140 333 b 406 276 243 333 318 276 b 511 322 450 276 493 299 l 533 446 b 425 392 503 408 464 392 b 197 449 361 392 276 449 z m 244 706 b 133 660 201 706 153 685 l 113 536 b 222 590 139 571 186 590 b 450 533 288 590 361 533 b 557 579 492 533 539 554 l 579 703 b 471 649 550 665 510 649 b 244 706 406 649 322 706 z "},"<":{"ha":617,"x_min":0,"x_max":0,"o":"m 500 261 l 522 389 l 242 506 l 563 621 l 586 756 l 111 565 l 92 454 z "},">":{"ha":617,"x_min":0,"x_max":0,"o":"m 65 261 l 540 451 l 560 563 l 151 756 l 129 628 l 410 511 l 89 396 z "},"≤":{"ha":617,"x_min":0,"x_max":0,"o":"m 519 368 l 542 496 l 271 597 l 578 694 l 601 829 l 129 658 l 110 547 z m 488 178 l 508 293 l 67 293 l 46 178 z "},"≥":{"ha":617,"x_min":0,"x_max":0,"o":"m 85 368 l 557 539 l 576 650 l 167 829 l 144 701 l 415 600 l 108 503 z m 50 178 l 490 178 l 511 293 l 71 293 z "},"¬":{"ha":688,"x_min":0,"x_max":0,"o":"m 579 279 l 644 647 l 101 647 l 81 528 l 499 528 l 456 279 z "},"≡":{"ha":617,"x_min":0,"x_max":0,"o":"m 571 654 l 590 767 l 153 767 l 133 654 z m 532 440 l 553 554 l 115 554 l 94 440 z m 494 228 l 515 340 l 78 340 l 57 228 z "},"′":{"ha":239,"x_min":0,"x_max":0,"o":"m 176 713 l 314 990 l 188 990 l 86 713 z "},"″":{"ha":419,"x_min":0,"x_max":0,"o":"m 349 713 l 494 990 l 368 990 l 260 713 z m 175 713 l 311 990 l 186 990 l 86 713 z "},"℅":{"ha":844,"x_min":0,"x_max":0,"o":"m 4 0 l 140 0 l 871 990 l 738 990 z m 250 563 b 419 692 349 563 406 608 l 428 743 l 328 743 l 324 715 b 258 650 317 669 293 650 b 204 721 217 650 196 669 l 226 856 b 297 917 233 896 258 917 b 346 846 333 917 356 897 l 343 829 l 443 829 l 446 844 b 301 1001 464 942 408 1001 b 136 874 210 1001 151 956 l 108 725 b 250 563 92 631 135 563 z m 571 -14 b 740 115 669 -14 726 32 l 767 268 b 622 425 785 365 729 425 b 457 297 531 425 472 379 l 429 149 b 571 -14 413 54 456 -14 z m 581 74 b 525 144 539 74 517 93 l 547 279 b 619 340 554 319 581 340 b 672 269 658 340 682 321 l 650 139 b 581 74 643 93 618 74 z "},"‗":{"ha":625,"x_min":0,"x_max":0,"o":"m 522 99 l -6 99 l -22 0 l 506 0 z m 493 -69 l -35 -69 l -53 -168 l 475 -168 z "},"‼":{"ha":646,"x_min":0,"x_max":0,"o":"m 393 239 b 442 244 403 242 421 244 b 488 239 463 244 476 242 b 600 753 497 265 565 553 l 642 990 l 503 990 l 461 753 b 393 239 426 553 392 265 z m 100 239 b 149 244 110 242 128 244 b 194 239 169 244 183 242 b 307 753 204 265 272 553 l 349 990 l 210 990 l 168 753 b 100 239 133 553 99 265 z m 399 -12 b 499 83 460 -12 486 10 b 426 185 513 154 488 185 b 325 89 364 185 338 160 b 399 -12 311 14 338 -12 z m 106 -12 b 206 83 167 -12 193 10 b 133 185 219 154 194 185 b 32 89 71 185 44 160 b 106 -12 18 14 44 -12 z "},"∞":{"ha":1006,"x_min":0,"x_max":0,"o":"m 267 301 b 510 425 364 301 435 361 b 728 301 565 365 631 301 b 947 489 849 301 926 372 b 772 699 968 608 892 699 b 531 574 674 699 600 638 b 311 697 478 635 419 697 b 92 513 208 697 111 628 b 267 301 69 386 140 301 z m 279 414 b 210 506 229 414 201 458 b 311 588 218 554 264 588 b 449 503 361 588 407 551 b 279 414 388 449 333 414 z m 731 414 b 596 496 676 414 638 449 b 758 585 653 549 704 585 b 828 494 810 585 836 543 b 731 414 819 447 781 414 z "},"∂":{"ha":639,"x_min":0,"x_max":0,"o":"m 268 -12 b 547 231 431 -12 521 74 l 600 529 b 393 1050 640 760 554 928 l 201 1050 b 492 703 389 919 476 825 b 343 789 468 760 417 789 b 83 549 206 789 111 703 l 39 293 b 268 -12 8 115 74 -12 z m 278 104 b 165 268 185 104 147 168 l 211 531 b 354 675 228 629 274 675 b 465 511 440 675 485 622 l 421 254 b 278 104 406 158 364 104 z "},"π":{"ha":778,"x_min":0,"x_max":0,"o":"m 438 203 b 607 0 410 46 450 0 l 658 0 l 678 118 l 640 118 b 571 217 572 118 557 135 l 686 871 l 826 871 l 847 990 l 136 990 l 115 871 l 249 871 l 96 0 l 225 0 l 378 871 l 556 871 z "},"μ":{"ha":640,"x_min":0,"x_max":0,"o":"m 242 -11 b 393 117 321 -11 365 36 l 386 0 l 492 0 l 632 800 l 501 800 l 410 279 b 261 104 390 171 342 104 b 182 254 182 104 165 160 l 278 800 l 147 800 l -40 -264 l 85 -264 l 146 79 b 242 -11 147 18 172 -11 z "},"∫":{"ha":421,"x_min":0,"x_max":0,"o":"m -100 -203 l -29 -203 b 200 1 128 -203 172 -157 l 353 861 b 460 978 369 958 388 978 l 503 978 l 522 1090 l 461 1090 b 226 874 322 1090 256 1033 l 76 18 b -24 -81 61 -65 44 -81 l -79 -81 z "},"√":{"ha":767,"x_min":0,"x_max":0,"o":"m 331 0 l 838 992 l 700 992 l 310 210 l 269 689 l 93 689 l 71 565 l 153 565 l 207 0 z "},"∆":{"ha":811,"x_min":0,"x_max":0,"o":"m -58 0 l 728 0 l 513 1010 z m 568 118 l 149 118 l 461 688 z "},"Ω":{"ha":863,"x_min":0,"x_max":0,"o":"m 328 103 b 254 567 267 250 221 376 b 506 883 296 800 389 883 b 653 567 631 883 693 792 b 419 103 619 376 547 250 l 454 0 l 754 0 l 775 122 l 583 122 b 785 551 679 238 754 378 b 517 1006 842 858 713 1006 b 124 578 311 1006 175 867 b 179 122 88 379 125 236 l -17 122 l -37 0 l 253 0 z "},"∏":{"ha":778,"x_min":0,"x_max":0,"o":"m 410 0 l 539 0 l 692 871 l 826 871 l 847 990 l 136 990 l 115 871 l 249 871 l 96 0 l 225 0 l 378 871 l 563 871 z "},"∑":{"ha":544,"x_min":0,"x_max":0,"o":"m 450 119 l 132 119 l 425 500 l 265 874 l 565 874 l 586 990 l 151 990 l 131 867 l 285 511 l -8 133 l -31 0 l 429 0 z "},"◊":{"ha":807,"x_min":0,"x_max":0,"o":"m 356 124 l 792 493 l 483 865 l 49 496 z m 381 293 l 217 492 l 458 697 l 622 497 z "},"°":{"ha":431,"x_min":0,"x_max":0,"o":"m 278 667 b 461 819 371 667 444 717 b 307 1000 479 917 419 1000 b 124 850 215 1000 142 943 b 278 667 106 746 160 667 z m 282 767 b 231 839 244 767 222 799 b 300 903 238 882 261 903 b 354 829 340 903 361 872 b 282 767 347 786 322 767 z "}}}
